SplineFontDB: 3.2
FontName: Samaano-Wide-Bold-Slanted
FullName: Samaano Wide Bold Slanted
FamilyName: Samaano
Weight: BoldSlanted
Copyright: Copyright 2024 The Samaano Project Authors (https://github.com/mitradranirban/samaano-fonts)
UComments: " fonts.atipra.in"
Version: 1.511
ItalicAngle: -20
UnderlinePosition: 0
UnderlineWidth: 102
Ascent: 1638
Descent: 410
InvalidEm: 0
UFOAscent: 1638
UFODescent: -410
LayerCount: 2
Layer: 0 0 "Back" 1
Layer: 1 0 "public.default" 0 "glyphs"
StyleMap: 0x0021
FSType: 0
OS2Version: 0
OS2_WeightWidthSlopeOnly: 0
OS2_UseTypoMetrics: 0
CreationTime: 1730190068
ModificationTime: 1730308452
PfmFamily: 17
TTFWeight: 700
TTFWidth: 9
LineGap: 0
VLineGap: 0
Panose: 2 7 8 9 0 0 0 0 0 0
OS2TypoAscent: 2457
OS2TypoAOffset: 0
OS2TypoDescent: -615
OS2TypoDOffset: 0
OS2TypoLinegap: 0
OS2WinAscent: 2834
OS2WinAOffset: 0
OS2WinDescent: 978
OS2WinDOffset: 0
HheadAscent: 2457
HheadAOffset: 0
HheadDescent: -615
HheadDOffset: 0
OS2CapHeight: 1548
OS2XHeight: 1023
OS2FamilyClass: 1031
OS2Vendor: 'anir'
Lookup: 4 0 1 "ligaStandardLigaturesinLatinlookup0" { "ligaStandardLigaturesinLatinlookup0 subtable"  } ['liga' ('latn' <'dflt' > 'DFLT' <'dflt' > ) ]
Lookup: 4 0 0 "nuktNuktaFormsinDevanagari2lookup0" { "nuktNuktaFormsinDevanagari2lookup0 subtable"  } ['nukt' ('dev2' <'dflt' > 'DFLT' <'dflt' > ) ]
Lookup: 4 0 0 "akhnAkhandinDevanagari2lookup0" { "akhnAkhandinDevanagari2lookup0 subtable"  } ['akhn' ('dev2' <'dflt' > 'DFLT' <'dflt' > ) ]
Lookup: 4 0 0 "rphfRephForminDevanagari2lookup0" { "rphfRephForminDevanagari2lookup0 subtable"  } ['rphf' ('dev2' <'dflt' > 'DFLT' <'dflt' > ) ]
Lookup: 4 0 0 "blwfBelowBaseFormsinDevanagari2lookup0" { "blwfBelowBaseFormsinDevanagari2lookup0 subtable"  } ['blwf' ('dev2' <'dflt' > 'DFLT' <'dflt' > ) ]
Lookup: 4 0 0 "halfHalfFormsinDevanagari2lookup0" { "halfHalfFormsinDevanagari2lookup0 subtable"  } ['half' ('dev2' <'dflt' > 'DFLT' <'dflt' > ) ]

StartChar: .notdef
Encoding: 0 0 0
GlifName: _notdef
Width: 2048
VWidth: 0
Flags: W
LayerCount: 2
Fore
SplineSet
519.177 -16 m 257
 1517.18 -16 l 257
 2114.09 1624 l 257
 1116.09 1624 l 257
 519.177 -16 l 257
622.294 64 m 257
 1162.43 1548 l 257
 1293 827 l 257
 622.294 64 l 257
714.294 64 m 257
 1302.98 750 l 257
 1394.29 64 l 257
 714.294 64 l 257
1286.07 1558 m 257
 1917.07 1558 l 257
 1362.85 909 l 257
 1286.07 1558 l 257
1372.82 832 m 257
 2013.43 1559 l 257
 1469.29 64 l 257
 1372.82 832 l 257
EndSplineSet
EndChar

StartChar: A
Encoding: 65 65 1
GlifName: A_
Width: 2048
VWidth: 0
GlyphClass: 2
Flags: W
AnchorPoint: "base" 546 0 basechar 0
AnchorPoint: "top" 1477 1609 basechar 0
LayerCount: 2
Fore
SplineSet
121 0 m 257
 320 0 l 257
 883.426 1548 l 257
 684.426 1548 l 257
 121 0 l 257
666.809 1332 m 257
 2334.81 1332 l 257
 2413.43 1548 l 257
 745.426 1548 l 257
 666.809 1332 l 257
572.342 1023 m 257
 509.011 849 l 257
 2147.01 849 l 257
 2210.34 1023 l 257
 572.342 1023 l 257
1725 0 m 257
 1925 0 l 257
 2488.43 1548 l 257
 2288.43 1548 l 257
 1725 0 l 257
EndSplineSet
EndChar

StartChar: AE
Encoding: 198 198 2
GlifName: A_E_
Width: 2048
VWidth: 0
GlyphClass: 2
Flags: W
LayerCount: 2
Fore
SplineSet
1225.33 185 m 257
 1158 0 l 257
 2020 0 l 257
 2087.33 185 l 257
 1225.33 185 l 257
125 0 m 257
 324 0 l 257
 887.426 1548 l 257
 688.426 1548 l 257
 125 0 l 257
670.809 1332 m 257
 2482.81 1332 l 257
 2561.43 1548 l 257
 749.426 1548 l 257
 670.809 1332 l 257
576.342 1023 m 257
 513.011 849 l 257
 2255.01 849 l 257
 2318.34 1023 l 257
 576.342 1023 l 257
1063 0 m 257
 1263 0 l 257
 1826.43 1548 l 257
 1626.43 1548 l 257
 1063 0 l 257
EndSplineSet
EndChar

StartChar: B
Encoding: 66 66 12
GlifName: B_
Width: 2048
VWidth: 0
GlyphClass: 2
Flags: W
AnchorPoint: "base" 250 -67 basechar 0
AnchorPoint: "top" 262 1657 basechar 0
LayerCount: 2
Fore
SplineSet
90 0 m 257
 298 0 l 257
 857.422 1537 l 257
 649.422 1537 l 257
 90 0 l 257
1922.44 1331 m 257
 2311.97 989 l 257
 2394.22 1215 l 257
 1997.42 1537 l 257
 1922.44 1331 l 257
1736.46 820 m 257
 2312.69 991 l 257
 2394.22 1215 l 257
 1810.34 1023 l 257
 1736.46 820 l 257
1453.16 201 m 257
 1380 0 l 257
 2066.49 364 l 257
 2148.01 588 l 257
 1453.16 201 l 257
1652.37 567 m 257
 2066.49 364 l 257
 2147.29 586 l 257
 1724.8 766 l 257
 1652.37 567 l 257
624.342 1023 m 257
 550.456 820 l 257
 1736.46 820 l 257
 1810.34 1023 l 257
 624.342 1023 l 257
528.801 766 m 257
 456.371 567 l 257
 1652.37 567 l 257
 1724.8 766 l 257
 528.801 766 l 257
260.794 200 m 257
 188 0 l 257
 1380 0 l 257
 1452.79 200 l 257
 260.794 200 l 257
809.422 1537 m 257
 734.444 1331 l 257
 1922.44 1331 l 257
 1997.42 1537 l 257
 809.422 1537 l 257
EndSplineSet
EndChar

StartChar: C
Encoding: 67 67 13
GlifName: C_
Width: 2048
VWidth: 0
GlyphClass: 2
Flags: W
AnchorPoint: "base" 518 -47 basechar 0
AnchorPoint: "top" 470 1637 basechar 0
LayerCount: 2
Fore
SplineSet
630.422 1537 m 257
 71 0 l 257
 271 0 l 257
 830.422 1537 l 257
 630.422 1537 l 257
729.422 1537 m 257
 656.992 1338 l 257
 2463.99 1338 l 257
 2536.42 1537 l 257
 729.422 1537 l 257
228.43 199 m 257
 156 0 l 257
 1975 0 l 257
 2047.43 199 l 257
 228.43 199 l 257
EndSplineSet
EndChar

StartChar: D
Encoding: 68 68 19
GlifName: D_
Width: 2048
VWidth: 0
GlyphClass: 2
Flags: W
AnchorPoint: "top" 294 1641 basechar 0
LayerCount: 2
Fore
SplineSet
681.426 1548 m 257
 118 0 l 257
 320 0 l 257
 883.426 1548 l 257
 681.426 1548 l 257
2007.43 1548 m 257
 1935.36 1350 l 257
 2207.17 767 l 257
 2300.34 1023 l 257
 2007.43 1548 l 257
1525.16 201 m 257
 1452 0 l 257
 2203.89 769 l 257
 2296.34 1023 l 257
 1525.16 201 l 257
845.426 1548 m 257
 772.996 1349 l 257
 1935 1349 l 257
 2007.43 1548 l 257
 845.426 1548 l 257
362.794 200 m 257
 290 0 l 257
 1452 0 l 257
 1524.79 200 l 257
 362.794 200 l 257
EndSplineSet
EndChar

StartChar: Dcroat
Encoding: 272 272 21
GlifName: D_croat
Width: 2048
VWidth: 0
GlyphClass: 2
Flags: W
LayerCount: 2
Fore
SplineSet
340.312 935 m 257
 265.698 730 l 257
 865.698 730 l 257
 940.312 935 l 257
 340.312 935 l 257
670.426 1548 m 257
 107 0 l 257
 309 0 l 257
 872.426 1548 l 257
 670.426 1548 l 257
2020.43 1548 m 257
 1948.36 1350 l 257
 2219.17 767 l 257
 2312.34 1023 l 257
 2020.43 1548 l 257
1538.16 201 m 257
 1465 0 l 257
 2216.89 769 l 257
 2309.34 1023 l 257
 1538.16 201 l 257
834.426 1548 m 257
 761.996 1349 l 257
 1948 1349 l 257
 2020.43 1548 l 257
 834.426 1548 l 257
351.794 200 m 257
 279 0 l 257
 1465 0 l 257
 1537.79 200 l 257
 351.794 200 l 257
EndSplineSet
EndChar

StartChar: E
Encoding: 69 69 22
GlifName: E_
Width: 2048
VWidth: 0
GlyphClass: 2
Flags: W
AnchorPoint: "base" 546 -96 basechar 0
AnchorPoint: "top" 470 1641 basechar 0
LayerCount: 2
Fore
SplineSet
675.422 1537 m 257
 116 0 l 257
 316 0 l 257
 875.422 1537 l 257
 675.422 1537 l 257
753.422 1537 m 257
 679.172 1333 l 257
 2397.17 1333 l 257
 2471.42 1537 l 257
 753.422 1537 l 257
255.886 203 m 257
 182 0 l 257
 1928 0 l 257
 2001.89 203 l 257
 255.886 203 l 257
505.206 888 m 257
 432.411 688 l 257
 1932.41 688 l 257
 2005.21 888 l 257
 505.206 888 l 257
EndSplineSet
EndChar

StartChar: Eng
Encoding: 330 330 31
GlifName: E_ng
Width: 2048
VWidth: 0
GlyphClass: 2
Flags: W
LayerCount: 2
Fore
SplineSet
1471.2 -211 m 257
 1399.5 -408 l 257
 1786.5 -408 l 257
 1858.2 -211 l 257
 1471.2 -211 l 257
675.062 1547 m 257
 112 0 l 257
 313 0 l 257
 876.062 1547 l 257
 675.062 1547 l 257
2272.22 1476 m 257
 1586.5 -408 l 257
 1787.5 -408 l 257
 2473.22 1476 l 257
 2272.22 1476 l 257
649.584 1477 m 257
 577.882 1280 l 257
 2400.88 1280 l 257
 2472.58 1477 l 257
 649.584 1477 l 257
EndSplineSet
EndChar

StartChar: Eth
Encoding: 208 208 33
AltUni2: 000189.ffffffff.0
GlifName: E_th
Width: 2048
VWidth: 0
GlyphClass: 2
Flags: W
LayerCount: 2
Fore
SplineSet
680.625 935 m 257
 531.396 730 l 257
 1007.4 730 l 257
 1156.62 935 l 257
 680.625 935 l 257
1233.85 1548 m 257
 107 0 l 257
 309 0 l 257
 1435.85 1548 l 257
 1233.85 1548 l 257
2583.85 1548 m 257
 2439.72 1350 l 257
 2498.33 767 l 257
 2684.68 1023 l 257
 2583.85 1548 l 257
1611.32 201 m 257
 1465 0 l 257
 2496.79 769 l 257
 2681.68 1023 l 257
 1611.32 201 l 257
1397.85 1548 m 257
 1252.99 1349 l 257
 2438.99 1349 l 257
 2583.85 1548 l 257
 1397.85 1548 l 257
424.588 200 m 257
 279 0 l 257
 1465 0 l 257
 1610.59 200 l 257
 424.588 200 l 257
EndSplineSet
EndChar

StartChar: Euro
Encoding: 8364 8364 34
GlifName: E_uro
Width: 2048
VWidth: 0
GlyphClass: 2
Flags: W
LayerCount: 2
Fore
SplineSet
815.265 520 m 257
 761.396 372 l 257
 1557.4 372 l 257
 1611.26 520 l 257
 815.265 520 l 257
978.312 935 m 257
 924.809 788 l 257
 1704.81 788 l 257
 1758.31 935 l 257
 978.312 935 l 257
1266.34 1023 m 257
 959.15 179 l 257
 1149.15 179 l 257
 1456.34 1023 l 257
 1266.34 1023 l 257
1806.36 1633 m 257
 1266.34 1023 l 257
 1456.34 1023 l 257
 1914.72 1601 l 257
 1806.36 1633 l 257
959.15 179 m 257
 1090.23 -406 l 257
 1242.23 -406 l 257
 1149.15 179 l 257
 959.15 179 l 257
EndSplineSet
EndChar

StartChar: F
Encoding: 70 70 35
GlifName: F_
Width: 2048
VWidth: 0
GlyphClass: 2
Flags: W
LayerCount: 2
Fore
SplineSet
716.426 1548 m 257
 153 0 l 257
 353 0 l 257
 916.426 1548 l 257
 716.426 1548 l 257
818.426 1548 m 257
 745.268 1347 l 257
 2379.27 1347 l 257
 2452.43 1548 l 257
 818.426 1548 l 257
561.474 875 m 257
 487.588 672 l 257
 2036.59 672 l 257
 2110.47 875 l 257
 561.474 875 l 257
EndSplineSet
EndChar

StartChar: G
Encoding: 71 71 36
GlifName: G_
Width: 2048
VWidth: 0
GlyphClass: 2
Flags: W
AnchorPoint: "base" 540 -42 basechar 0
AnchorPoint: "top" 502 1649 basechar 0
LayerCount: 2
Fore
SplineSet
690.426 1548 m 257
 127 0 l 257
 329 0 l 257
 892.426 1548 l 257
 690.426 1548 l 257
748.426 1548 m 257
 675.268 1347 l 257
 2375.27 1347 l 257
 2448.43 1548 l 257
 748.426 1548 l 257
231.522 202 m 257
 158 0 l 257
 1921 0 l 257
 1994.52 202 l 257
 231.522 202 l 257
1926.19 561 m 257
 1728.55 18 l 257
 1927.55 18 l 257
 2125.19 561 l 257
 1926.19 561 l 257
EndSplineSet
EndChar

StartChar: H
Encoding: 72 72 40
GlifName: H_
Width: 2048
VWidth: 0
GlyphClass: 2
Flags: W
AnchorPoint: "base" 496 -34 basechar 0
AnchorPoint: "top" 496 1638 basechar 0
LayerCount: 2
Fore
SplineSet
685.422 1537 m 257
 126 0 l 257
 326 0 l 257
 885.422 1537 l 257
 685.422 1537 l 257
2271.42 1537 m 257
 1712 0 l 257
 1922 0 l 257
 2481.42 1537 l 257
 2271.42 1537 l 257
618.342 1023 m 257
 543.728 818 l 257
 2089.73 818 l 257
 2164.34 1023 l 257
 618.342 1023 l 257
EndSplineSet
EndChar

StartChar: Hbar
Encoding: 294 294 41
GlifName: H_bar
Width: 2048
VWidth: 0
GlyphClass: 2
Flags: W
LayerCount: 2
Fore
SplineSet
648.422 1537 m 257
 89 0 l 257
 289 0 l 257
 848.422 1537 l 257
 648.422 1537 l 257
2258.42 1537 m 257
 1699 0 l 257
 1909 0 l 257
 2468.42 1537 l 257
 2258.42 1537 l 257
581.342 1023 m 257
 506.728 818 l 257
 2076.73 818 l 257
 2151.34 1023 l 257
 581.342 1023 l 257
549.934 1434 m 257
 474.228 1226 l 257
 2423.23 1226 l 257
 2498.93 1434 l 257
 549.934 1434 l 257
EndSplineSet
EndChar

StartChar: I
Encoding: 73 73 43
GlifName: I_
Width: 2048
VWidth: 0
GlyphClass: 2
Flags: W
AnchorPoint: "base" 736 -26 basechar 0
AnchorPoint: "top" 470 1641 basechar 0
LayerCount: 2
Fore
SplineSet
703.422 1537 m 257
 629.9 1335 l 257
 2374.9 1335 l 257
 2448.42 1537 l 257
 703.422 1537 l 257
1509.31 1468 m 257
 1005.57 84 l 257
 1205.57 84 l 257
 1709.31 1468 l 257
 1509.31 1468 l 257
198.25 204 m 257
 126.184 6 l 257
 1926.18 6 l 257
 1998.25 204 l 257
 198.25 204 l 257
EndSplineSet
EndChar

StartChar: J
Encoding: 74 74 54
GlifName: J_
Width: 2048
VWidth: 0
GlyphClass: 2
Flags: W
AnchorPoint: "top" 798 1649 basechar 0
LayerCount: 2
Fore
SplineSet
2267.78 1527 m 257
 1712 0 l 257
 1912 0 l 257
 2467.78 1527 l 257
 2267.78 1527 l 257
213.706 208 m 257
 138 0 l 257
 1752 0 l 257
 1827.71 208 l 257
 213.706 208 l 257
319.077 503 m 257
 154.927 52 l 257
 352.927 52 l 257
 517.077 503 l 257
 319.077 503 l 257
EndSplineSet
EndChar

StartChar: K
Encoding: 75 75 56
GlifName: K_
Width: 2048
VWidth: 0
GlyphClass: 2
Flags: W
AnchorPoint: "top" 524 1642 basechar 0
LayerCount: 2
Fore
SplineSet
671.422 1537 m 257
 113.82 5 l 257
 314.82 5 l 257
 872.422 1537 l 257
 671.422 1537 l 257
520.606 999 m 257
 579.915 835 l 257
 2439.51 1529 l 257
 2172.51 1529 l 257
 520.606 999 l 257
577.448 798 m 257
 384.033 643 l 257
 1655 0 l 257
 1936 0 l 257
 577.448 798 l 257
EndSplineSet
EndChar

StartChar: L
Encoding: 76 76 57
GlifName: L_
Width: 2048
VWidth: 0
GlyphClass: 2
Flags: W
AnchorPoint: "top" 140 1650 basechar 0
LayerCount: 2
Fore
SplineSet
690.242 1542 m 257
 129 0 l 257
 327 0 l 257
 888.242 1542 l 257
 690.242 1542 l 257
311.522 202 m 257
 238 0 l 257
 1914 0 l 257
 1987.52 202 l 257
 311.522 202 l 257
EndSplineSet
EndChar

StartChar: Lcaron
Encoding: 317 317 59
GlifName: L_caron
Width: 2048
VWidth: 0
GlyphClass: 2
Flags: W
LayerCount: 2
Fore
SplineSet
614.242 1542 m 257
 53 0 l 257
 251 0 l 257
 812.242 1542 l 257
 614.242 1542 l 257
235.522 202 m 257
 162 0 l 257
 1912 0 l 257
 1985.52 202 l 257
 235.522 202 l 257
991.499 1496 m 257
 907.059 1264 l 257
 1037.06 1264 l 257
 1121.5 1496 l 257
 991.499 1496 l 257
EndSplineSet
EndChar

StartChar: Lslash
Encoding: 321 321 61
GlifName: L_slash
Width: 2048
VWidth: 0
GlyphClass: 2
Flags: W
LayerCount: 2
Fore
SplineSet
732.242 1542 m 257
 171 0 l 257
 369 0 l 257
 930.242 1542 l 257
 732.242 1542 l 257
353.522 202 m 257
 280 0 l 257
 2030 0 l 257
 2103.52 202 l 257
 353.522 202 l 257
344.301 902 m 257
 361.698 730 l 257
 869.221 932 l 257
 851.823 1104 l 257
 344.301 902 l 257
EndSplineSet
EndChar

StartChar: M
Encoding: 77 77 62
GlifName: M_
Width: 2048
VWidth: 0
GlyphClass: 2
Flags: W
AnchorPoint: "top" 532 1642 basechar 0
LayerCount: 2
Fore
SplineSet
701.426 1548 m 257
 138 0 l 257
 340 0 l 257
 903.426 1548 l 257
 701.426 1548 l 257
2267.42 1537 m 257
 1708 0 l 257
 1910 0 l 257
 2469.42 1537 l 257
 2267.42 1537 l 257
694.113 1429 m 257
 1265.25 1031 l 257
 1453.25 1031 l 257
 879.426 1548 l 257
 694.113 1429 l 257
2295.42 1537 m 257
 1260.34 1023 l 257
 1448.34 1023 l 257
 2443.59 1488 l 257
 2295.42 1537 l 257
EndSplineSet
EndChar

StartChar: N
Encoding: 78 78 63
GlifName: N_
Width: 2048
VWidth: 0
GlyphClass: 2
Flags: W
AnchorPoint: "base" 522 -36 basechar 0
AnchorPoint: "top" 488 1642 basechar 0
LayerCount: 2
Fore
SplineSet
697.426 1548 m 257
 134 0 l 257
 338 0 l 257
 901.426 1548 l 257
 697.426 1548 l 257
2273.43 1548 m 257
 1710 0 l 257
 1912 0 l 257
 2475.43 1548 l 257
 2273.43 1548 l 257
697.426 1548 m 257
 1712 0 l 257
 1914 0 l 257
 903.426 1548 l 257
 697.426 1548 l 257
EndSplineSet
EndChar

StartChar: O
Encoding: 79 79 67
GlifName: O_
Width: 2048
VWidth: 0
GlyphClass: 2
Flags: W
AnchorPoint: "base" 832 -34 basechar 0
AnchorPoint: "top" 456 1646 basechar 0
LayerCount: 2
Fore
SplineSet
708.422 1537 m 257
 149 0 l 257
 350 0 l 257
 909.422 1537 l 257
 708.422 1537 l 257
2255.42 1537 m 257
 1696 0 l 257
 1899 0 l 257
 2458.42 1537 l 257
 2255.42 1537 l 257
772.422 1537 m 257
 699.628 1337 l 257
 2292.63 1337 l 257
 2365.42 1537 l 257
 772.422 1537 l 257
263.25 204 m 257
 189 0 l 257
 1812 0 l 257
 1886.25 204 l 257
 263.25 204 l 257
EndSplineSet
EndChar

StartChar: OE
Encoding: 338 338 68
GlifName: O_E_
Width: 2048
VWidth: 0
GlyphClass: 2
Flags: W
LayerCount: 2
Fore
SplineSet
674.426 1548 m 257
 111 0 l 257
 312 0 l 257
 875.426 1548 l 257
 674.426 1548 l 257
1578.43 1548 m 257
 1015 0 l 257
 1216 0 l 257
 1779.43 1548 l 257
 1578.43 1548 l 257
711.426 1548 m 257
 638.996 1349 l 257
 2395 1349 l 257
 2467.43 1548 l 257
 711.426 1548 l 257
222.794 200 m 257
 150 0 l 257
 1912 0 l 257
 1984.79 200 l 257
 222.794 200 l 257
1430.65 859 m 257
 1357.86 659 l 257
 2113.86 659 l 257
 2186.65 859 l 257
 1430.65 859 l 257
EndSplineSet
EndChar

StartChar: Oslash
Encoding: 216 216 76
GlifName: O_slash
Width: 2048
VWidth: 0
GlyphClass: 2
Flags: W
LayerCount: 2
Fore
SplineSet
2418.74 1667 m 257
 18.6211 -45 l 257
 180.052 -118 l 257
 2580.17 1594 l 257
 2418.74 1667 l 257
669.422 1537 m 257
 110 0 l 257
 311 0 l 257
 870.422 1537 l 257
 669.422 1537 l 257
2290.42 1537 m 257
 1731 0 l 257
 1934 0 l 257
 2493.42 1537 l 257
 2290.42 1537 l 257
733.422 1537 m 257
 660.628 1337 l 257
 2327.63 1337 l 257
 2400.42 1537 l 257
 733.422 1537 l 257
224.25 204 m 257
 150 0 l 257
 1847 0 l 257
 1921.25 204 l 257
 224.25 204 l 257
EndSplineSet
EndChar

StartChar: P
Encoding: 80 80 78
GlifName: P_
Width: 2048
VWidth: 0
GlyphClass: 2
Flags: W
AnchorPoint: "top" 448 1642 basechar 0
LayerCount: 2
Fore
SplineSet
735.426 1548 m 257
 175.275 9 l 257
 365.275 9 l 257
 925.426 1548 l 257
 735.426 1548 l 257
813.426 1548 m 257
 739.904 1346 l 257
 2345.9 1346 l 257
 2419.43 1548 l 257
 813.426 1548 l 257
2239.43 1548 m 257
 1996.66 881 l 257
 2196.66 881 l 257
 2439.43 1548 l 257
 2239.43 1548 l 257
622.72 1068 m 257
 549.926 868 l 257
 2187.93 868 l 257
 2260.72 1068 l 257
 622.72 1068 l 257
EndSplineSet
EndChar

StartChar: Q
Encoding: 81 81 79
GlifName: Q_
Width: 2048
VWidth: 0
GlyphClass: 2
Flags: W
LayerCount: 2
Fore
SplineSet
708.422 1537 m 257
 150.82 5 l 257
 349.82 5 l 257
 907.422 1537 l 257
 708.422 1537 l 257
2257.42 1537 m 257
 1698 0 l 257
 1899 0 l 257
 2458.42 1537 l 257
 2257.42 1537 l 257
772.422 1537 m 257
 699.628 1337 l 257
 2292.63 1337 l 257
 2365.42 1537 l 257
 772.422 1537 l 257
263.614 205 m 257
 189 0 l 257
 1812 0 l 257
 1886.61 205 l 257
 263.614 205 l 257
1254.64 21 m 257
 1329.27 -285 l 257
 1562.49 -169 l 257
 1487.86 137 l 257
 1254.64 21 l 257
EndSplineSet
EndChar

StartChar: R
Encoding: 82 82 80
GlifName: R_
Width: 2048
VWidth: 0
GlyphClass: 2
Flags: W
AnchorPoint: "top" 480 1642 basechar 0
LayerCount: 2
Fore
SplineSet
661.422 1537 m 257
 102 0 l 257
 303 0 l 257
 862.422 1537 l 257
 661.422 1537 l 257
740.422 1537 m 257
 666.9 1335 l 257
 2322.9 1335 l 257
 2396.42 1537 l 257
 740.422 1537 l 257
2223.42 1537 m 257
 1981.38 872 l 257
 2181.38 872 l 257
 2423.42 1537 l 257
 2223.42 1537 l 257
557.724 1079 m 257
 480.926 868 l 257
 2167.93 868 l 257
 2244.72 1079 l 257
 557.724 1079 l 257
629.661 892 m 257
 1706 0 l 257
 1946 0 l 257
 828.661 892 l 257
 629.661 892 l 257
EndSplineSet
EndChar

StartChar: S
Encoding: 83 83 83
GlifName: S_
Width: 2048
VWidth: 0
GlyphClass: 2
Flags: W
AnchorPoint: "base" 528 -58 basechar 0
AnchorPoint: "top" 508 1650 basechar 0
LayerCount: 2
Fore
SplineSet
697.422 1537 m 257
 624.265 1336 l 257
 2222.26 1336 l 257
 2295.42 1537 l 257
 697.422 1537 l 257
699.242 1542 m 257
 512.161 1028 l 257
 714.161 1028 l 257
 901.242 1542 l 257
 699.242 1542 l 257
238.43 199 m 257
 166 0 l 257
 1874 0 l 257
 1946.43 199 l 257
 238.43 199 l 257
1709 0 m 257
 1910 0 l 257
 2039.21 355 l 257
 1838.21 355 l 257
 1709 0 l 257
512.161 1028 m 257
 1838.21 355 l 257
 2039.21 355 l 257
 714.161 1028 l 257
 512.161 1028 l 257
EndSplineSet
EndChar

StartChar: T
Encoding: 84 84 88
GlifName: T_
Width: 2048
VWidth: 0
GlyphClass: 2
Flags: W
AnchorPoint: "base" 492 -54 basechar 0
AnchorPoint: "top" 516 1638 basechar 0
LayerCount: 2
Fore
SplineSet
688.426 1548 m 257
 615.632 1348 l 257
 2413.63 1348 l 257
 2486.43 1548 l 257
 688.426 1548 l 257
1446.66 1436 m 257
 926.184 6 l 257
 1126.18 6 l 257
 1646.66 1436 l 257
 1446.66 1436 l 257
EndSplineSet
EndChar

StartChar: Thorn
Encoding: 222 222 90
GlifName: T_horn
Width: 2048
VWidth: 0
GlyphClass: 2
Flags: W
LayerCount: 2
Fore
SplineSet
673.242 1542 m 257
 115.275 9 l 257
 305.275 9 l 257
 863.242 1542 l 257
 673.242 1542 l 257
640.14 1234 m 257
 567.709 1035 l 257
 2247.71 1035 l 257
 2320.14 1234 l 257
 640.14 1234 l 257
2139.78 1233 m 257
 1898.1 569 l 257
 2098.1 569 l 257
 2339.78 1233 l 257
 2139.78 1233 l 257
427.956 684 m 257
 355.161 484 l 257
 2066.16 484 l 257
 2138.96 684 l 257
 427.956 684 l 257
EndSplineSet
EndChar

StartChar: U
Encoding: 85 85 91
GlifName: U_
Width: 2048
VWidth: 0
GlyphClass: 2
Flags: W
AnchorPoint: "base" 536 -94 basechar 0
AnchorPoint: "top" 508 1642 basechar 0
LayerCount: 2
Fore
SplineSet
715.422 1537 m 257
 156 0 l 257
 356 0 l 257
 915.422 1537 l 257
 715.422 1537 l 257
2251.42 1537 m 257
 1692 0 l 257
 1890 0 l 257
 2449.42 1537 l 257
 2251.42 1537 l 257
276.794 200 m 257
 204 0 l 257
 1848 0 l 257
 1920.79 200 l 257
 276.794 200 l 257
EndSplineSet
EndChar

StartChar: V
Encoding: 86 86 102
GlifName: V_
Width: 2048
VWidth: 0
GlyphClass: 2
Flags: W
AnchorPoint: "base" 564 -54 basechar 0
AnchorPoint: "top" 496 1642 basechar 0
LayerCount: 2
Fore
SplineSet
681.426 1548 m 257
 890 0 l 257
 1112 0 l 257
 883.426 1548 l 257
 681.426 1548 l 257
2291.43 1548 m 257
 1016 0 l 257
 1238 0 l 257
 2493.43 1548 l 257
 2291.43 1548 l 257
EndSplineSet
EndChar

StartChar: W
Encoding: 87 87 103
GlifName: W_
Width: 2048
VWidth: 0
GlyphClass: 2
Flags: W
AnchorPoint: "top" 508 1646 basechar 0
LayerCount: 2
Fore
SplineSet
667.426 1548 m 257
 104 0 l 257
 304 0 l 257
 867.426 1548 l 257
 667.426 1548 l 257
2307.43 1548 m 257
 1748.37 12 l 257
 1950.37 12 l 257
 2509.43 1548 l 257
 2307.43 1548 l 257
1300.16 1028 m 257
 926 0 l 257
 1128 0 l 257
 1502.16 1028 l 257
 1300.16 1028 l 257
175.158 201 m 257
 102 0 l 257
 1946 0 l 257
 2019.16 201 l 257
 175.158 201 l 257
EndSplineSet
EndChar

StartChar: X
Encoding: 88 88 108
GlifName: X_
Width: 2048
VWidth: 0
GlyphClass: 2
Flags: W
LayerCount: 2
Fore
SplineSet
645.426 1548 m 257
 1766 0 l 257
 1966 0 l 257
 844.426 1548 l 257
 645.426 1548 l 257
87.1836 6 m 257
 288.184 6 l 257
 2521.43 1548 l 257
 2322.43 1548 l 257
 87.1836 6 l 257
EndSplineSet
EndChar

StartChar: Y
Encoding: 89 89 109
GlifName: Y_
Width: 2048
VWidth: 0
GlyphClass: 2
Flags: W
AnchorPoint: "base" 508 -70 basechar 0
AnchorPoint: "top" 524 1638 basechar 0
LayerCount: 2
Fore
SplineSet
1240.48 897 m 257
 914 0 l 257
 1116 0 l 257
 1442.48 897 l 257
 1240.48 897 l 257
673.426 1548 m 257
 422.65 859 l 257
 622.65 859 l 257
 873.426 1548 l 257
 673.426 1548 l 257
2301.43 1548 m 257
 2050.65 859 l 257
 2250.65 859 l 257
 2501.43 1548 l 257
 2301.43 1548 l 257
550.342 1023 m 257
 490.65 859 l 257
 2160.65 859 l 257
 2220.34 1023 l 257
 550.342 1023 l 257
EndSplineSet
EndChar

StartChar: Z
Encoding: 90 90 114
GlifName: Z_
Width: 2048
VWidth: 0
GlyphClass: 2
Flags: W
AnchorPoint: "base" 560 -46 basechar 0
AnchorPoint: "top" 496 1646 basechar 0
LayerCount: 2
Fore
SplineSet
670.426 1548 m 257
 593.265 1336 l 257
 2427.26 1336 l 257
 2504.43 1548 l 257
 670.426 1548 l 257
185.162 212 m 257
 108 0 l 257
 1936 0 l 257
 2013.16 212 l 257
 185.162 212 l 257
2165.9 1335 m 257
 184.798 211 l 257
 391.798 211 l 257
 2410.9 1335 l 257
 2165.9 1335 l 257
EndSplineSet
EndChar

StartChar: a
Encoding: 97 97 118
GlifName: a
Width: 2048
VWidth: 0
GlyphClass: 2
Flags: W
AnchorPoint: "base" 752 -62 basechar 0
AnchorPoint: "top" 500 1134 basechar 0
LayerCount: 2
Fore
SplineSet
550.342 1023 m 257
 477.911 824 l 257
 2083.91 824 l 257
 2156.34 1023 l 257
 550.342 1023 l 257
2043.34 1023 m 257
 1671 0 l 257
 1865 0 l 257
 2237.34 1023 l 257
 2043.34 1023 l 257
400.019 599 m 257
 327.588 400 l 257
 1951.59 400 l 257
 2024.02 599 l 257
 400.019 599 l 257
391.283 575 m 257
 182 0 l 257
 383 0 l 257
 592.283 575 l 257
 391.283 575 l 257
253.158 201 m 257
 180 0 l 257
 1870 0 l 257
 1943.16 201 l 257
 253.158 201 l 257
EndSplineSet
EndChar

StartChar: acute
Encoding: 180 180 122
GlifName: acute
Width: 2048
VWidth: 0
GlyphClass: 2
Flags: W
LayerCount: 2
Fore
SplineSet
1088.34 1556 m 257
 865.89 1302 l 257
 937.146 1256 l 257
 1160.96 1511 l 257
 1088.34 1556 l 257
EndSplineSet
EndChar

StartChar: acutecomb
Encoding: 769 769 123
GlifName: acutecomb
Width: 0
VWidth: 0
GlyphClass: 2
Flags: W
AnchorPoint: "top" 928 614 mark 0
LayerCount: 2
Fore
SplineSet
376.69 980 m 257
 154.242 726 l 257
 225.5 680 l 257
 450.312 935 l 257
 376.69 980 l 257
EndSplineSet
EndChar

StartChar: ae
Encoding: 230 230 125
GlifName: ae
Width: 2048
VWidth: 0
GlyphClass: 2
Flags: W
LayerCount: 2
Fore
SplineSet
420.342 1023 m 257
 347.911 824 l 257
 2190.91 824 l 257
 2263.34 1023 l 257
 420.342 1023 l 257
1333.34 1023 m 257
 961 0 l 257
 1155 0 l 257
 1527.34 1023 l 257
 1333.34 1023 l 257
289.019 599 m 257
 216.588 400 l 257
 2037.59 400 l 257
 2110.02 599 l 257
 289.019 599 l 257
280.283 575 m 257
 71 0 l 257
 272 0 l 257
 481.283 575 l 257
 280.283 575 l 257
142.158 201 m 257
 69 0 l 257
 2013 0 l 257
 2086.16 201 l 257
 142.158 201 l 257
2169.34 1023 m 257
 1942.59 400 l 257
 2137.59 400 l 257
 2364.34 1023 l 257
 2169.34 1023 l 257
EndSplineSet
EndChar

StartChar: ampersand
Encoding: 38 38 128
GlifName: ampersand
Width: 2048
VWidth: 0
GlyphClass: 2
Flags: W
LayerCount: 2
Fore
SplineSet
1331.42 1537 m 257
 1224.37 12 l 257
 1386.38 56 l 257
 1493.42 1537 l 257
 1331.42 1537 l 257
1825.92 1401 m 257
 1875.42 1537 l 257
 1409.42 1537 l 257
 1359.92 1401 l 257
 1825.92 1401 l 257
1682.3 1446 m 257
 1489.76 917 l 257
 1649.76 917 l 257
 1842.3 1446 l 257
 1682.3 1446 l 257
1000.35 1045 m 257
 926.827 843 l 257
 1622.83 843 l 257
 1696.35 1045 l 257
 1000.35 1045 l 257
1000.35 1045 m 257
 628.735 24 l 257
 838.735 24 l 257
 1210.35 1045 l 257
 1000.35 1045 l 257
689.154 190 m 257
 622.184 6 l 257
 1430.18 6 l 257
 1497.15 190 l 257
 689.154 190 l 257
EndSplineSet
EndChar

StartChar: asciicircum
Encoding: 94 94 131
GlifName: asciicircum
Width: 2048
VWidth: 0
GlyphClass: 2
Flags: W
LayerCount: 2
Fore
SplineSet
1472.34 1023 m 257
 1322.34 1023 l 257
 834.136 407 l 257
 961.569 345 l 257
 1472.34 1023 l 257
1285.03 904 m 257
 1336.84 343 l 257
 1507.59 400 l 257
 1472.34 1023 l 257
 1285.03 904 l 257
EndSplineSet
EndChar

StartChar: asciitilde
Encoding: 126 126 132
GlifName: asciitilde
Width: 2048
VWidth: 0
GlyphClass: 2
Flags: W
LayerCount: 2
Fore
SplineSet
1174.64 815 m 257
 1138.6 716 l 257
 1466.4 655 l 257
 1502.43 754 l 257
 1174.64 815 l 257
915.525 757 m 257
 893.856 659 l 257
 1138.6 716 l 257
 1174.64 815 l 257
 915.525 757 l 257
1502.43 754 m 257
 1466.4 655 l 257
 1697.72 796 l 257
 1708.66 892 l 257
 1502.43 754 l 257
EndSplineSet
EndChar

StartChar: asterisk
Encoding: 42 42 133
GlifName: asterisk
Width: 2048
VWidth: 0
GlyphClass: 2
Flags: W
LayerCount: 2
Fore
SplineSet
1406.07 1297 m 257
 1043.19 300 l 257
 1273.19 300 l 257
 1636.07 1297 l 257
 1406.07 1297 l 257
977.003 1099 m 257
 1436.03 360 l 257
 1647.44 504 l 257
 1183.69 1241 l 257
 977.003 1099 l 257
1777.41 1232 m 257
 797.084 525 l 257
 883.396 372 l 257
 1863.72 1079 l 257
 1777.41 1232 l 257
EndSplineSet
EndChar

StartChar: at
Encoding: 64 64 134
GlifName: at
Width: 2048
VWidth: 0
GlyphClass: 2
Flags: W
LayerCount: 2
Fore
SplineSet
985.342 1023 m 257
 932.93 879 l 257
 1751.93 879 l 257
 1804.34 1023 l 257
 985.342 1023 l 257
1364.47 592 m 257
 1149 0 l 257
 1302 0 l 257
 1517.47 592 l 257
 1364.47 592 l 257
1034.38 600 m 257
 977.603 444 l 257
 1402.6 444 l 257
 1459.38 600 l 257
 1034.38 600 l 257
1027.38 589 m 257
 817.367 12 l 257
 991.367 12 l 257
 1201.38 589 l 257
 1027.38 589 l 257
879.427 188 m 257
 811 0 l 257
 1305 0 l 257
 1373.43 188 l 257
 879.427 188 l 257
897.342 1023 m 257
 443.835 -223 l 257
 619.835 -223 l 257
 1073.34 1023 l 257
 897.342 1023 l 257
491.698 -86 m 257
 429.096 -258 l 257
 1377.1 -258 l 257
 1439.7 -86 l 257
 491.698 -86 l 257
1741.97 1011 m 257
 1374 0 l 257
 1525 0 l 257
 1892.97 1011 l 257
 1741.97 1011 l 257
1309.69 175 m 257
 1246 0 l 257
 1455 0 l 257
 1518.69 175 l 257
 1309.69 175 l 257
EndSplineSet
EndChar

StartChar: b
Encoding: 98 98 136
GlifName: b
Width: 2048
VWidth: 0
GlyphClass: 2
Flags: W
AnchorPoint: "top" 220 1646 basechar 0
LayerCount: 2
Fore
SplineSet
702.422 1537 m 257
 143 0 l 257
 342 0 l 257
 901.422 1537 l 257
 702.422 1537 l 257
615.981 1033 m 257
 543.551 834 l 257
 2069.55 834 l 257
 2141.98 1033 l 257
 615.981 1033 l 257
2081.98 1033 m 257
 1706 0 l 257
 1905 0 l 257
 2280.98 1033 l 257
 2081.98 1033 l 257
343.342 207 m 257
 268 0 l 257
 1826 0 l 257
 1901.34 207 l 257
 343.342 207 l 257
EndSplineSet
EndChar

StartChar: backslash
Encoding: 92 92 137
GlifName: backslash
Width: 2048
VWidth: 0
GlyphClass: 2
Flags: W
LayerCount: 2
Fore
SplineSet
1139.48 1441 m 257
 1237.27 -13 l 257
 1456.66 65 l 257
 1359.87 1519 l 257
 1139.48 1441 l 257
EndSplineSet
EndChar

StartChar: bar
Encoding: 124 124 138
GlifName: bar
Width: 2048
VWidth: 0
GlyphClass: 2
Flags: W
LayerCount: 2
Fore
SplineSet
1444.3 1435 m 257
 889.243 -90 l 257
 1093.24 -90 l 257
 1648.3 1435 l 257
 1444.3 1435 l 257
EndSplineSet
EndChar

StartChar: braceleft
Encoding: 123 123 139
GlifName: braceleft
Width: 2048
VWidth: 0
GlyphClass: 2
Flags: W
LayerCount: 2
Fore
SplineSet
1587.43 1548 m 257
 1329.01 838 l 257
 1475.01 838 l 257
 1733.43 1548 l 257
 1587.43 1548 l 257
1190.32 424 m 257
 931.904 -286 l 257
 1077.9 -286 l 257
 1336.32 424 l 257
 1190.32 424 l 257
986.14 690 m 257
 964.301 630 l 257
 1475.01 838 l 257
 1329.01 838 l 257
 986.14 690 l 257
986.14 690 m 257
 964.301 630 l 257
 1188.69 425 l 257
 1337.69 425 l 257
 986.14 690 l 257
1608.44 1603 m 257
 1553.48 1452 l 257
 1865.89 1574 l 257
 1880.44 1603 l 257
 1608.44 1603 l 257
986.044 -140 m 257
 932.541 -287 l 257
 1208.54 -287 l 257
 1213.27 -274 l 257
 986.044 -140 l 257
EndSplineSet
EndChar

StartChar: braceright
Encoding: 125 125 140
GlifName: braceright
Width: 2048
VWidth: 0
GlyphClass: 2
Flags: W
LayerCount: 2
Fore
SplineSet
1603.43 1548 m 257
 1441.43 1548 l 257
 1183.01 838 l 257
 1341.01 838 l 257
 1603.43 1548 l 257
1180.32 424 m 257
 1020.32 424 l 257
 761.904 -286 l 257
 921.904 -286 l 257
 1180.32 424 l 257
1564.14 690 m 257
 1340.01 838 l 257
 1179.01 838 l 257
 1542.3 630 l 257
 1564.14 690 l 257
1564.14 690 m 257
 1020.32 424 l 257
 1180.32 424 l 257
 1542.3 630 l 257
 1564.14 690 l 257
1624.44 1603 m 257
 1349.44 1603 l 257
 1342.89 1574 l 257
 1566.48 1452 l 257
 1624.44 1603 l 257
960.044 -140 m 257
 635.272 -274 l 257
 631.633 -284 l 257
 907.633 -284 l 257
 960.044 -140 l 257
EndSplineSet
EndChar

StartChar: bracketleft
Encoding: 91 91 141
GlifName: bracketleft
Width: 2048
VWidth: 0
GlyphClass: 2
Flags: W
LayerCount: 2
Fore
SplineSet
1451.24 1542 m 257
 801.919 -242 l 257
 923.919 -242 l 257
 1573.24 1542 l 257
 1451.24 1542 l 257
1505.61 1543 m 257
 1459.38 1416 l 257
 1668.38 1416 l 257
 1714.61 1543 l 257
 1505.61 1543 l 257
910.879 -91 m 257
 855.919 -242 l 257
 1069.92 -242 l 257
 1124.88 -91 l 257
 910.879 -91 l 257
EndSplineSet
EndChar

StartChar: bracketright
Encoding: 93 93 142
GlifName: bracketright
Width: 2048
VWidth: 0
GlyphClass: 2
Flags: W
LayerCount: 2
Fore
SplineSet
1597.24 1542 m 257
 947.919 -242 l 257
 1069.92 -242 l 257
 1719.24 1542 l 257
 1597.24 1542 l 257
1447.61 1543 m 257
 1401.38 1416 l 257
 1609.38 1416 l 257
 1655.61 1543 l 257
 1447.61 1543 l 257
852.879 -91 m 257
 797.919 -242 l 257
 1011.92 -242 l 257
 1066.88 -91 l 257
 852.879 -91 l 257
EndSplineSet
EndChar

StartChar: breve
Encoding: 728 728 143
GlifName: breve
Width: 2048
VWidth: 0
GlyphClass: 2
Flags: W
LayerCount: 2
Fore
SplineSet
1665.43 1548 m 257
 1640.68 1480 l 257
 1830.43 1548 l 257
 1865.73 1645 l 257
 1665.43 1548 l 257
1341.43 1548 m 257
 1316.68 1480 l 257
 1640.68 1480 l 257
 1665.43 1548 l 257
 1341.43 1548 l 257
1200.27 1630 m 257
 1170.43 1548 l 257
 1316.68 1480 l 257
 1341.43 1548 l 257
 1200.27 1630 l 257
EndSplineSet
EndChar

StartChar: brokenbar
Encoding: 166 166 144
GlifName: brokenbar
Width: 2048
VWidth: 0
GlyphClass: 2
Flags: W
LayerCount: 2
Fore
SplineSet
846.162 -332 m 257
 956.162 -332 l 257
 1325.23 682 l 257
 1215.23 682 l 257
 846.162 -332 l 257
1257.54 790 m 257
 1368.54 790 l 257
 1676.46 1636 l 257
 1565.46 1636 l 257
 1257.54 790 l 257
EndSplineSet
EndChar

StartChar: bullet
Encoding: 8226 8226 145
GlifName: bullet
Width: 2048
VWidth: 0
GlyphClass: 2
Flags: W
LayerCount: 2
Fore
SplineSet
1254.34 1023 m 257
 1160.44 765 l 257
 1444.44 765 l 257
 1538.34 1023 l 257
 1254.34 1023 l 257
EndSplineSet
EndChar

StartChar: c
Encoding: 99 99 146
GlifName: c
Width: 2048
VWidth: 0
GlyphClass: 2
Flags: W
AnchorPoint: "top" 492 1162 basechar 0
LayerCount: 2
Fore
SplineSet
543.342 1023 m 257
 471.64 826 l 257
 2177.64 826 l 257
 2249.34 1023 l 257
 543.342 1023 l 257
531.146 984 m 257
 173 0 l 257
 375 0 l 257
 733.146 984 l 257
 531.146 984 l 257
352.158 201 m 257
 279 0 l 257
 1871 0 l 257
 1944.16 201 l 257
 352.158 201 l 257
EndSplineSet
EndChar

StartChar: caron
Encoding: 711 711 148
GlifName: caron
Width: 2048
VWidth: 0
GlyphClass: 2
Flags: W
LayerCount: 2
Fore
SplineSet
1400.48 1158 m 257
 1393.48 1430 l 257
 1324.38 1405 l 257
 1340.48 1158 l 257
 1400.48 1158 l 257
1359.95 1206 m 257
 1400.48 1158 l 257
 1596.47 1408 l 257
 1544.48 1430 l 257
 1359.95 1206 l 257
EndSplineSet
EndChar

StartChar: cedilla
Encoding: 184 184 153
GlifName: cedilla
Width: 2048
VWidth: 0
GlyphClass: 2
Flags: W
LayerCount: 2
Fore
SplineSet
867.335 185 m 257
 749.408 -139 l 257
 905.408 -139 l 257
 1023.33 185 l 257
 867.335 185 l 257
698.996 -283 m 257
 654.229 -406 l 257
 1100.23 -406 l 257
 1145 -283 l 257
 698.996 -283 l 257
1097.82 5 m 257
 962.423 -367 l 257
 1114.42 -367 l 257
 1249.82 5 l 257
 1097.82 5 l 257
803.82 5 m 257
 747.04 -151 l 257
 1193.04 -151 l 257
 1249.82 5 l 257
 803.82 5 l 257
EndSplineSet
EndChar

StartChar: cent
Encoding: 162 162 154
GlifName: cent
Width: 2048
VWidth: 0
GlyphClass: 2
Flags: W
LayerCount: 2
Fore
SplineSet
1633.58 1183 m 257
 1486.58 1183 l 257
 1024.7 -86 l 257
 1171.7 -86 l 257
 1633.58 1183 l 257
1048.34 1023 m 257
 976.64 826 l 257
 1672.64 826 l 257
 1744.34 1023 l 257
 1048.34 1023 l 257
1036.15 984 m 257
 678 0 l 257
 880 0 l 257
 1238.15 984 l 257
 1036.15 984 l 257
857.158 201 m 257
 784 0 l 257
 1366 0 l 257
 1439.16 201 l 257
 857.158 201 l 257
EndSplineSet
EndChar

StartChar: circumflex
Encoding: 710 710 155
GlifName: circumflex
Width: 2048
VWidth: 0
GlyphClass: 2
Flags: W
LayerCount: 2
Fore
SplineSet
1557.43 1298 m 257
 1497.43 1298 l 257
 1301.53 1051 l 257
 1352.43 1026 l 257
 1557.43 1298 l 257
1481.96 1250 m 257
 1504.43 1026 l 257
 1572.44 1048 l 257
 1557.43 1298 l 257
 1481.96 1250 l 257
EndSplineSet
EndChar

StartChar: colon
Encoding: 58 58 156
GlifName: colon
Width: 2048
VWidth: 0
GlyphClass: 2
Flags: W
LayerCount: 2
Fore
SplineSet
1068.51 430 m 257
 985.158 201 l 257
 1233.16 201 l 257
 1316.51 430 l 257
 1068.51 430 l 257
1358.98 1294 m 257
 1269.08 1047 l 257
 1535.08 1047 l 257
 1624.98 1294 l 257
 1358.98 1294 l 257
EndSplineSet
EndChar

StartChar: comma
Encoding: 44 44 157
GlifName: comma
Width: 2048
VWidth: 0
GlyphClass: 2
Flags: W
LayerCount: 2
Fore
SplineSet
996.261 237 m 257
 912.912 8 l 257
 1160.91 8 l 257
 1244.26 237 l 257
 996.261 237 l 257
1057.14 135 m 257
 836.86 -146 l 257
 959.022 -206 l 257
 1156 0 l 257
 1057.14 135 l 257
EndSplineSet
EndChar

StartChar: copyright
Encoding: 169 169 158
GlifName: copyright
Width: 2048
VWidth: 0
GlyphClass: 2
Flags: W
LayerCount: 2
Fore
SplineSet
583.422 1537 m 257
 24 0 l 257
 224 0 l 257
 783.422 1537 l 257
 583.422 1537 l 257
2381.42 1537 m 257
 1822 0 l 257
 2024 0 l 257
 2583.42 1537 l 257
 2381.42 1537 l 257
693.422 1537 m 257
 620.628 1337 l 257
 2310.63 1337 l 257
 2383.42 1537 l 257
 693.422 1537 l 257
232.25 204 m 257
 158 0 l 257
 1830 0 l 257
 1904.25 204 l 257
 232.25 204 l 257
705.673 1197 m 257
 632.515 996 l 257
 2066.51 996 l 257
 2139.67 1197 l 257
 705.673 1197 l 257
690.021 1154 m 257
 393.75 340 l 257
 563.75 340 l 257
 860.021 1154 l 257
 690.021 1154 l 257
450.165 495 m 257
 377.007 294 l 257
 1817.01 294 l 257
 1890.17 495 l 257
 450.165 495 l 257
EndSplineSet
EndChar

StartChar: currency
Encoding: 164 164 159
GlifName: currency
Width: 2048
VWidth: 0
GlyphClass: 2
Flags: W
LayerCount: 2
Fore
SplineSet
553.492 1202 m 257
 181.515 180 l 257
 381.515 180 l 257
 753.492 1202 l 257
 553.492 1202 l 257
2169.22 1204 m 257
 1796.51 180 l 257
 1998.51 180 l 257
 2371.22 1204 l 257
 2169.22 1204 l 257
677.22 1204 m 257
 603.698 1002 l 257
 2189.7 1002 l 257
 2263.22 1204 l 257
 677.22 1204 l 257
381.309 380 m 257
 308.879 181 l 257
 1880.88 181 l 257
 1953.31 380 l 257
 381.309 380 l 257
551.367 1372 m 257
 461.467 1125 l 257
 727.467 1125 l 257
 817.367 1372 l 257
 551.367 1372 l 257
2229 1371 m 257
 2139.1 1124 l 257
 2405.1 1124 l 257
 2495 1371 l 257
 2229 1371 l 257
148.271 270 m 257
 58.3711 23 l 257
 324.371 23 l 257
 414.271 270 l 257
 148.271 270 l 257
1833.55 279 m 257
 1743.65 32 l 257
 2009.65 32 l 257
 2099.55 279 l 257
 1833.55 279 l 257
EndSplineSet
EndChar

StartChar: d
Encoding: 100 100 160
GlifName: d
Width: 2048
VWidth: 0
GlyphClass: 2
Flags: W
AnchorPoint: "top" 824 1642 basechar 0
LayerCount: 2
Fore
SplineSet
2259.78 1527 m 257
 1704 0 l 257
 1904 0 l 257
 2459.78 1527 l 257
 2259.78 1527 l 257
612.342 1023 m 257
 539.184 822 l 257
 2091.18 822 l 257
 2164.34 1023 l 257
 612.342 1023 l 257
516.342 1023 m 257
 144 0 l 257
 344 0 l 257
 716.342 1023 l 257
 516.342 1023 l 257
310.975 195 m 257
 240 0 l 257
 1856 0 l 257
 1926.97 195 l 257
 310.975 195 l 257
EndSplineSet
EndChar

StartChar: dagger
Encoding: 8224 8224 161
GlifName: dagger
Width: 2048
VWidth: 0
GlyphClass: 2
Flags: W
LayerCount: 2
Fore
SplineSet
1176.33 1251 m 257
 1116.27 1086 l 257
 1722.27 1086 l 257
 1782.33 1251 l 257
 1176.33 1251 l 257
1508.43 1548 m 257
 945 0 l 257
 1090 0 l 257
 1653.43 1548 l 257
 1508.43 1548 l 257
EndSplineSet
EndChar

StartChar: daggerdbl
Encoding: 8225 8225 162
GlifName: daggerdbl
Width: 2048
VWidth: 0
GlyphClass: 2
Flags: W
LayerCount: 2
Fore
SplineSet
1062.04 937 m 257
 1001.99 772 l 257
 1607.99 772 l 257
 1668.04 937 l 257
 1062.04 937 l 257
1176.33 1251 m 257
 1116.27 1086 l 257
 1722.27 1086 l 257
 1782.33 1251 l 257
 1176.33 1251 l 257
1508.43 1548 m 257
 945 0 l 257
 1090 0 l 257
 1653.43 1548 l 257
 1508.43 1548 l 257
EndSplineSet
EndChar

StartChar: dcaron
Encoding: 271 271 163
GlifName: dcaron
Width: 2048
VWidth: 0
GlyphClass: 2
Flags: W
LayerCount: 2
Fore
SplineSet
2192.78 1527 m 257
 1637 0 l 257
 1838 0 l 257
 2393.78 1527 l 257
 2192.78 1527 l 257
521.342 1023 m 257
 448.184 822 l 257
 2025.18 822 l 257
 2098.34 1023 l 257
 521.342 1023 l 257
425.342 1023 m 257
 53 0 l 257
 254 0 l 257
 626.342 1023 l 257
 425.342 1023 l 257
219.975 195 m 257
 149 0 l 257
 1790 0 l 257
 1860.97 195 l 257
 219.975 195 l 257
2428.5 1496 m 257
 2344.06 1264 l 257
 2474.06 1264 l 257
 2558.5 1496 l 257
 2428.5 1496 l 257
EndSplineSet
EndChar

StartChar: dcroat
Encoding: 273 273 164
GlifName: dcroat
Width: 2048
VWidth: 0
GlyphClass: 2
Flags: W
LayerCount: 2
Fore
SplineSet
2271.78 1527 m 257
 1716 0 l 257
 1917 0 l 257
 2472.78 1527 l 257
 2271.78 1527 l 257
600.342 1023 m 257
 527.184 822 l 257
 2104.18 822 l 257
 2177.34 1023 l 257
 600.342 1023 l 257
504.342 1023 m 257
 132 0 l 257
 333 0 l 257
 705.342 1023 l 257
 504.342 1023 l 257
298.975 195 m 257
 228 0 l 257
 1869 0 l 257
 1939.97 195 l 257
 298.975 195 l 257
2089.65 1403 m 257
 2016.49 1202 l 257
 2460.49 1202 l 257
 2533.65 1403 l 257
 2089.65 1403 l 257
EndSplineSet
EndChar

StartChar: degree
Encoding: 176 176 165
GlifName: degree
Width: 2048
VWidth: 0
GlyphClass: 2
Flags: W
LayerCount: 2
Fore
SplineSet
1478.94 1456 m 257
 1626.94 1456 l 257
 1579.62 1326 l 257
 1431.62 1326 l 257
 1478.94 1456 l 257
1407.43 1548 m 257
 1294.59 1238 l 257
 1654.59 1238 l 257
 1767.43 1548 l 257
 1407.43 1548 l 257
EndSplineSet
EndChar

StartChar: dieresis
Encoding: 168 168 166
GlifName: dieresis
Width: 2048
VWidth: 0
GlyphClass: 2
Flags: W
LayerCount: 2
Fore
SplineSet
1093.79 1016 m 257
 1038.83 865 l 257
 1206.83 865 l 257
 1261.79 1016 l 257
 1093.79 1016 l 257
1457.79 1016 m 257
 1402.83 865 l 257
 1570.83 865 l 257
 1625.79 1016 l 257
 1457.79 1016 l 257
EndSplineSet
EndChar

StartChar: divide
Encoding: 247 247 167
GlifName: divide
Width: 2048
VWidth: 0
GlyphClass: 2
Flags: W
LayerCount: 2
Fore
SplineSet
1068.51 430 m 257
 985.158 201 l 257
 1233.16 201 l 257
 1316.51 430 l 257
 1068.51 430 l 257
1358.98 1294 m 257
 1269.08 1047 l 257
 1535.08 1047 l 257
 1624.98 1294 l 257
 1358.98 1294 l 257
905.088 808 m 257
 829.382 600 l 257
 1655.38 600 l 257
 1731.09 808 l 257
 905.088 808 l 257
EndSplineSet
EndChar

StartChar: dollar
Encoding: 36 36 168
GlifName: dollar
Width: 2048
VWidth: 0
GlyphClass: 2
Flags: W
LayerCount: 2
Fore
SplineSet
1197.42 1537 m 257
 1132.27 1358 l 257
 1730.27 1358 l 257
 1795.42 1537 l 257
 1197.42 1537 l 257
1199.24 1542 m 257
 1012.16 1028 l 257
 1217.16 1028 l 257
 1404.24 1542 l 257
 1199.24 1542 l 257
725.327 163 m 257
 666 0 l 257
 1374 0 l 257
 1433.33 163 l 257
 725.327 163 l 257
1204 0 m 257
 1410 0 l 257
 1539.21 355 l 257
 1333.21 355 l 257
 1204 0 l 257
1012.16 1028 m 257
 1333.21 355 l 257
 1539.21 355 l 257
 1217.16 1028 l 257
 1012.16 1028 l 257
1492.46 1636 m 257
 818.746 -215 l 257
 1032.75 -215 l 257
 1706.46 1636 l 257
 1492.46 1636 l 257
EndSplineSet
EndChar

StartChar: dotaccent
Encoding: 729 729 169
GlifName: dotaccent
Width: 2048
VWidth: 0
GlyphClass: 2
Flags: W
AnchorPoint: "top" -28 1468 mark 0
LayerCount: 2
Fore
SplineSet
1280.34 1023 m 257
 1245.04 926 l 257
 1357.04 926 l 257
 1392.34 1023 l 257
 1280.34 1023 l 257
EndSplineSet
EndChar

StartChar: dotbelowcomb
Encoding: 803 803 170
GlifName: dotbelowcomb
Width: 0
VWidth: 0
GlyphClass: 2
Flags: W
AnchorPoint: "base" -14 -187 mark 0
LayerCount: 2
Fore
SplineSet
-206.25 -204 m 257
 -296.15 -451 l 257
 -32.1504 -451 l 257
 57.75 -204 l 257
 -206.25 -204 l 257
EndSplineSet
EndChar

StartChar: dotlessi
Encoding: 305 305 171
GlifName: dotlessi
Width: 2048
VWidth: 0
GlyphClass: 2
Flags: W
AnchorPoint: "base" 1182 -9 basechar 0
AnchorPoint: "top" 492 1191 basechar 0
LayerCount: 2
Fore
SplineSet
1293.52 1018 m 257
 973.592 139 l 257
 1175.59 139 l 257
 1495.52 1018 l 257
 1293.52 1018 l 257
227.25 204 m 257
 155.184 6 l 257
 1897.18 6 l 257
 1969.25 204 l 257
 227.25 204 l 257
573.521 1018 m 257
 500.728 818 l 257
 1376.73 818 l 257
 1449.52 1018 l 257
 573.521 1018 l 257
EndSplineSet
EndChar

StartChar: e
Encoding: 101 101 172
GlifName: e
Width: 2048
VWidth: 0
GlyphClass: 2
Flags: W
AnchorPoint: "base" 492 -96 basechar 0
AnchorPoint: "top" 983 1092 basechar 0
LayerCount: 2
Fore
SplineSet
602.342 1023 m 257
 525.544 812 l 257
 2159.54 812 l 257
 2236.34 1023 l 257
 602.342 1023 l 257
552.342 1023 m 257
 180 0 l 257
 382 0 l 257
 754.342 1023 l 257
 552.342 1023 l 257
355.158 201 m 257
 282 0 l 257
 1864 0 l 257
 1937.16 201 l 257
 355.158 201 l 257
477.481 625 m 257
 412.331 446 l 257
 2002.33 446 l 257
 2067.48 625 l 257
 477.481 625 l 257
2029.42 993 m 257
 1829.97 445 l 257
 2023.97 445 l 257
 2223.42 993 l 257
 2029.42 993 l 257
EndSplineSet
EndChar

StartChar: eight
Encoding: 56 56 180
GlifName: eight
Width: 2048
VWidth: 0
GlyphClass: 2
Flags: W
LayerCount: 2
Fore
SplineSet
619.426 1548 m 257
 56 0 l 257
 1993 0 l 257
 2556.43 1548 l 257
 619.426 1548 l 257
2067.25 759 m 257
 1862.7 197 l 257
 331.702 197 l 257
 536.253 759 l 257
 2067.25 759 l 257
2141.05 959 m 257
 609.048 959 l 257
 751.359 1350 l 257
 2283.36 1350 l 257
 2141.05 959 l 257
EndSplineSet
EndChar

StartChar: ellipsis
Encoding: 8230 8230 181
GlifName: ellipsis
Width: 2048
VWidth: 0
GlyphClass: 2
Flags: W
LayerCount: 2
Fore
SplineSet
733.492 114 m 257
 692 0 l 257
 834 0 l 257
 875.492 114 l 257
 733.492 114 l 257
989.492 114 m 257
 948 0 l 257
 1092 0 l 257
 1133.49 114 l 257
 989.492 114 l 257
1255.49 114 m 257
 1214 0 l 257
 1356 0 l 257
 1397.49 114 l 257
 1255.49 114 l 257
EndSplineSet
EndChar

StartChar: emdash
Encoding: 8212 8212 183
GlifName: emdash
Width: 2048
VWidth: 0
GlyphClass: 2
Flags: W
LayerCount: 2
Fore
SplineSet
305.382 600 m 257
 2168.38 600 l 257
 2244.09 808 l 257
 381.088 808 l 257
 305.382 600 l 257
EndSplineSet
EndChar

StartChar: endash
Encoding: 8211 8211 184
GlifName: endash
Width: 2048
VWidth: 0
GlyphClass: 2
Flags: W
LayerCount: 2
Fore
SplineSet
829.382 600 m 257
 1655.38 600 l 257
 1731.09 808 l 257
 905.088 808 l 257
 829.382 600 l 257
EndSplineSet
EndChar

StartChar: eng
Encoding: 331 331 185
GlifName: eng
Width: 2048
VWidth: 0
GlyphClass: 2
Flags: W
LayerCount: 2
Fore
SplineSet
1403.2 -211 m 257
 1331.5 -408 l 257
 1718.5 -408 l 257
 1790.2 -211 l 257
 1403.2 -211 l 257
604.33 990 m 257
 244 0 l 257
 445 0 l 257
 805.33 990 l 257
 604.33 990 l 257
2022.24 976 m 257
 1518.5 -408 l 257
 1719.5 -408 l 257
 2223.24 976 l 257
 2022.24 976 l 257
437.342 1023 m 257
 365.64 826 l 257
 2167.64 826 l 257
 2239.34 1023 l 257
 437.342 1023 l 257
EndSplineSet
EndChar

StartChar: equal
Encoding: 61 61 187
GlifName: equal
Width: 2048
VWidth: 0
GlyphClass: 2
Flags: W
LayerCount: 2
Fore
SplineSet
948.669 914 m 257
 879.515 724 l 257
 1695.51 724 l 257
 1764.67 914 l 257
 948.669 914 l 257
812.544 540 m 257
 743.39 350 l 257
 1559.39 350 l 257
 1628.54 540 l 257
 812.544 540 l 257
EndSplineSet
EndChar

StartChar: eth
Encoding: 240 240 188
GlifName: eth
Width: 2048
VWidth: 0
GlyphClass: 2
Flags: W
LayerCount: 2
Fore
SplineSet
1828.43 1548 m 257
 1716 0 l 257
 1917 0 l 257
 2029.43 1548 l 257
 1828.43 1548 l 257
600.342 1023 m 257
 527.184 822 l 257
 1892.18 822 l 257
 1965.34 1023 l 257
 600.342 1023 l 257
504.342 1023 m 257
 132 0 l 257
 333 0 l 257
 705.342 1023 l 257
 504.342 1023 l 257
298.975 195 m 257
 228 0 l 257
 1869 0 l 257
 1939.97 195 l 257
 298.975 195 l 257
1700.38 1416 m 257
 1632.32 1229 l 257
 2164.32 1229 l 257
 2232.38 1416 l 257
 1700.38 1416 l 257
EndSplineSet
EndChar

StartChar: exclam
Encoding: 33 33 189
GlifName: exclam
Width: 2048
VWidth: 0
GlyphClass: 2
Flags: W
LayerCount: 2
Fore
SplineSet
997.86 126 m 257
 1141.86 126 l 257
 1232.12 374 l 257
 1088.12 374 l 257
 997.86 126 l 257
1184.39 611 m 257
 1312.39 611 l 257
 1682.91 1629 l 257
 1554.91 1629 l 257
 1184.39 611 l 257
EndSplineSet
EndChar

StartChar: exclamdown
Encoding: 161 161 190
GlifName: exclamdown
Width: 2048
VWidth: 0
GlyphClass: 2
Flags: W
LayerCount: 2
Fore
SplineSet
1649.23 1520 m 257
 1505.23 1520 l 257
 1414.97 1272 l 257
 1558.97 1272 l 257
 1649.23 1520 l 257
1462.71 1035 m 257
 1334.71 1035 l 257
 964.188 17 l 257
 1092.19 17 l 257
 1462.71 1035 l 257
EndSplineSet
EndChar

StartChar: f
Encoding: 102 102 191
GlifName: f
Width: 2048
VWidth: 0
GlyphClass: 2
Flags: W
LayerCount: 2
Fore
SplineSet
1212.34 1023 m 257
 692.229 -406 l 257
 874.229 -406 l 257
 1394.34 1023 l 257
 1212.34 1023 l 257
1270.34 1023 m 257
 1200.46 831 l 257
 2278.46 831 l 257
 2348.34 1023 l 257
 1270.34 1023 l 257
275.459 559 m 257
 201.573 356 l 257
 2009.57 356 l 257
 2083.46 559 l 257
 275.459 559 l 257
EndSplineSet
EndChar

StartChar: five
Encoding: 53 53 192
GlifName: five
Width: 2048
VWidth: 0
GlyphClass: 2
Flags: W
LayerCount: 2
Fore
SplineSet
2072.25 759 m 257
 1868.07 198 l 257
 131.066 198 l 257
 59 0 l 257
 2001 0 l 257
 2350.05 959 l 257
 609.048 959 l 257
 752.088 1352 l 257
 2503.09 1352 l 257
 2574.43 1548 l 257
 623.426 1548 l 257
 336.253 759 l 257
 2072.25 759 l 257
EndSplineSet
EndChar

StartChar: four
Encoding: 52 52 193
GlifName: four
Width: 2048
VWidth: 0
GlyphClass: 2
Flags: W
LayerCount: 2
Fore
SplineSet
367.981 761 m 257
 2033.98 761 l 257
 1759.55 7 l 257
 1955.55 7 l 257
 2516.43 1548 l 257
 2317.43 1548 l 257
 2103.78 961 l 257
 640.775 961 l 257
 854.426 1548 l 257
 654.426 1548 l 257
 367.981 761 l 257
EndSplineSet
EndChar

StartChar: g
Encoding: 103 103 194
GlifName: g
Width: 2048
VWidth: 0
GlyphClass: 2
Flags: W
LayerCount: 2
Fore
SplineSet
610.342 1023 m 257
 238 0 l 257
 430 0 l 257
 802.342 1023 l 257
 610.342 1023 l 257
650.342 1023 m 257
 577.548 823 l 257
 2093.55 823 l 257
 2166.34 1023 l 257
 650.342 1023 l 257
1994.34 1023 m 257
 1472.41 -411 l 257
 1666.41 -411 l 257
 2188.34 1023 l 257
 1994.34 1023 l 257
373.066 198 m 257
 301 0 l 257
 1758 0 l 257
 1830.07 198 l 257
 373.066 198 l 257
154.11 -214 m 257
 81.6807 -413 l 257
 1616.68 -413 l 257
 1689.11 -214 l 257
 154.11 -214 l 257
EndSplineSet
EndChar

StartChar: germandbls
Encoding: 223 223 198
GlifName: germandbls
Width: 2048
VWidth: 0
GlyphClass: 2
Flags: W
LayerCount: 2
Fore
SplineSet
462.407 1221 m 257
 390.342 1023 l 257
 641.342 1023 l 257
 713.407 1221 l 257
 462.407 1221 l 257
767.426 1548 m 257
 204 0 l 257
 410 0 l 257
 973.426 1548 l 257
 767.426 1548 l 257
973.426 1548 m 257
 893.353 1328 l 257
 2312.35 1328 l 257
 2392.43 1548 l 257
 973.426 1548 l 257
2277.43 1548 m 257
 2086.34 1023 l 257
 2285.34 1023 l 257
 2476.43 1548 l 257
 2277.43 1548 l 257
2100.54 1062 m 257
 876.536 1062 l 257
 790.64 826 l 257
 2014.64 826 l 257
 2100.54 1062 l 257
2022.65 848 m 257
 1777.69 175 l 257
 1977.69 175 l 257
 2222.65 848 l 257
 2022.65 848 l 257
638.356 251 m 257
 561.559 40 l 257
 1928.56 40 l 257
 2005.36 251 l 257
 638.356 251 l 257
EndSplineSet
EndChar

StartChar: glyph094D
Encoding: 65536 -1 199
GlifName: glyph094D_
Width: 2048
VWidth: 0
GlyphClass: 2
Flags: W
LayerCount: 2
Fore
SplineSet
-561.008 -22 m 257
 -632.346 -218 l 257
 -275.346 -218 l 257
 -204.008 -22 l 257
 -561.008 -22 l 257
-403.606 -183 m 257
 -81.0146 -588 l 257
 122.312 -425 l 257
 -201.644 -21 l 257
 -403.606 -183 l 257
EndSplineSet
EndChar

StartChar: grave
Encoding: 96 96 200
GlifName: grave
Width: 2048
VWidth: 0
GlyphClass: 2
Flags: W
LayerCount: 2
Fore
SplineSet
1371.27 1358 m 257
 1406.72 1057 l 257
 1581.92 1129 l 257
 1545.48 1430 l 257
 1371.27 1358 l 257
EndSplineSet
EndChar

StartChar: gravecomb
Encoding: 768 768 201
GlifName: gravecomb
Width: 0
VWidth: 0
GlyphClass: 2
Flags: W
AnchorPoint: "top" 66 1418 mark 0
LayerCount: 2
Fore
SplineSet
224.121 907 m 257
 258.224 671 l 257
 366.967 717 l 257
 333.228 954 l 257
 224.121 907 l 257
EndSplineSet
EndChar

StartChar: greater
Encoding: 62 62 202
GlifName: greater
Width: 2048
VWidth: 0
GlyphClass: 2
Flags: W
LayerCount: 2
Fore
SplineSet
1718.8 777 m 257
 982.702 1013 l 257
 907.724 807 l 257
 1643.74 568 l 257
 1718.8 777 l 257
1718.8 777 m 257
 732.106 319 l 257
 660.404 122 l 257
 1643.74 568 l 257
 1718.8 777 l 257
EndSplineSet
EndChar

StartChar: guillemotleft
Encoding: 171 171 203
GlifName: guillemotleft
Width: 2048
VWidth: 0
GlyphClass: 2
Flags: W
LayerCount: 2
Fore
SplineSet
853.658 609 m 257
 797.242 454 l 257
 1230.67 631 l 257
 1286.35 784 l 257
 853.658 609 l 257
853.658 609 m 257
 797.242 454 l 257
 1044.4 122 l 257
 1097.54 268 l 257
 853.658 609 l 257
1268.66 609 m 257
 1212.24 454 l 257
 1645.67 631 l 257
 1701.35 784 l 257
 1268.66 609 l 257
1268.66 609 m 257
 1212.24 454 l 257
 1459.4 122 l 257
 1512.54 268 l 257
 1268.66 609 l 257
EndSplineSet
EndChar

StartChar: guillemotright
Encoding: 187 187 204
GlifName: guillemotright
Width: 2048
VWidth: 0
GlyphClass: 2
Flags: W
LayerCount: 2
Fore
SplineSet
1637.66 609 m 257
 1332.35 784 l 257
 1276.67 631 l 257
 1581.24 454 l 257
 1637.66 609 l 257
1637.66 609 m 257
 1145.54 268 l 257
 1092.4 122 l 257
 1581.24 454 l 257
 1637.66 609 l 257
1222.66 609 m 257
 917.353 784 l 257
 861.665 631 l 257
 1166.24 454 l 257
 1222.66 609 l 257
1222.66 609 m 257
 730.544 268 l 257
 677.404 122 l 257
 1166.24 454 l 257
 1222.66 609 l 257
EndSplineSet
EndChar

StartChar: guilsinglleft
Encoding: 8249 8249 205
GlifName: guilsinglleft
Width: 2048
VWidth: 0
GlyphClass: 2
Flags: W
LayerCount: 2
Fore
SplineSet
896.805 777 m 257
 821.099 569 l 257
 1725.72 807 l 257
 1800.7 1013 l 257
 896.805 777 l 257
896.805 777 m 257
 821.099 569 l 257
 1474.4 122 l 257
 1546.11 319 l 257
 896.805 777 l 257
EndSplineSet
EndChar

StartChar: guilsinglright
Encoding: 8250 8250 206
GlifName: guilsinglright
Width: 2048
VWidth: 0
GlyphClass: 2
Flags: W
LayerCount: 2
Fore
SplineSet
1718.8 777 m 257
 982.702 1013 l 257
 907.724 807 l 257
 1643.74 568 l 257
 1718.8 777 l 257
1718.8 777 m 257
 732.106 319 l 257
 660.404 122 l 257
 1643.74 568 l 257
 1718.8 777 l 257
EndSplineSet
EndChar

StartChar: h
Encoding: 104 104 207
GlifName: h
Width: 2048
VWidth: 0
GlyphClass: 2
Flags: W
AnchorPoint: "base" 512 -46 basechar 0
AnchorPoint: "top" 248 1646 basechar 0
LayerCount: 2
Fore
SplineSet
745.422 1537 m 257
 188.184 6 l 257
 388.184 6 l 257
 945.422 1537 l 257
 745.422 1537 l 257
695.342 1023 m 257
 623.64 826 l 257
 2154.64 826 l 257
 2226.34 1023 l 257
 695.342 1023 l 257
2035.34 1023 m 257
 1663 0 l 257
 1862 0 l 257
 2234.34 1023 l 257
 2035.34 1023 l 257
EndSplineSet
EndChar

StartChar: hbar
Encoding: 295 295 208
GlifName: hbar
Width: 2048
VWidth: 0
GlyphClass: 2
Flags: W
LayerCount: 2
Fore
SplineSet
733.422 1537 m 257
 176.184 6 l 257
 376.184 6 l 257
 933.422 1537 l 257
 733.422 1537 l 257
683.342 1023 m 257
 611.64 826 l 257
 2166.64 826 l 257
 2238.34 1023 l 257
 683.342 1023 l 257
2047.34 1023 m 257
 1675 0 l 257
 1874 0 l 257
 2246.34 1023 l 257
 2047.34 1023 l 257
558.113 1429 m 257
 482.407 1221 l 257
 938.407 1221 l 257
 1014.11 1429 l 257
 558.113 1429 l 257
EndSplineSet
EndChar

StartChar: hookabovecomb
Encoding: 777 777 210
GlifName: hookabovecomb
Width: 0
VWidth: 0
GlyphClass: 2
Flags: W
AnchorPoint: "top" -558 1555 mark 0
LayerCount: 2
Fore
SplineSet
-230 1774 m 257
 -230 1662 l 257
 225 1662 l 257
 225 1774 l 257
 -230 1774 l 257
139 1774 m 257
 139 1432 l 257
 230 1432 l 257
 230 1774 l 257
 139 1774 l 257
-142 1453 m 257
 -142 1365 l 257
 229 1365 l 257
 229 1453 l 257
 -142 1453 l 257
-142 1453 m 257
 -142 1190 l 257
 -35 1190 l 257
 -35 1453 l 257
 -142 1453 l 257
EndSplineSet
EndChar

StartChar: hungarumlaut
Encoding: 733 733 211
GlifName: hungarumlaut
Width: 2048
VWidth: 0
GlyphClass: 2
Flags: W
LayerCount: 2
Fore
SplineSet
1164.74 1134 m 257
 1308.74 1134 l 257
 1399.01 1382 l 257
 1255.01 1382 l 257
 1164.74 1134 l 257
1564.74 1134 m 257
 1708.74 1134 l 257
 1799.01 1382 l 257
 1655.01 1382 l 257
 1564.74 1134 l 257
EndSplineSet
EndChar

StartChar: hyphen
Encoding: 45 45 212
GlifName: hyphen
Width: 2048
VWidth: 0
GlyphClass: 2
Flags: W
LayerCount: 2
Fore
SplineSet
905.088 808 m 257
 829.382 600 l 257
 1655.38 600 l 257
 1731.09 808 l 257
 905.088 808 l 257
EndSplineSet
EndChar

StartChar: i
Encoding: 105 105 213
GlifName: i
Width: 2048
VWidth: 0
GlyphClass: 2
Flags: W
AnchorPoint: "base" 788 -38 basechar 0
LayerCount: 2
Fore
SplineSet
1293.52 1018 m 257
 973.592 139 l 257
 1175.59 139 l 257
 1495.52 1018 l 257
 1293.52 1018 l 257
227.25 204 m 257
 155.184 6 l 257
 1897.18 6 l 257
 1969.25 204 l 257
 227.25 204 l 257
1144.17 1333 m 257
 1071.38 1133 l 257
 1278.38 1133 l 257
 1351.17 1333 l 257
 1144.17 1333 l 257
867.521 1018 m 257
 794 816 l 257
 1414 816 l 257
 1487.52 1018 l 257
 867.521 1018 l 257
EndSplineSet
EndChar

StartChar: j
Encoding: 106 106 223
GlifName: j
Width: 2048
VWidth: 0
GlyphClass: 2
Flags: W
LayerCount: 2
Fore
SplineSet
2012.34 1023 m 257
 1490.41 -411 l 257
 1688.41 -411 l 257
 2210.34 1023 l 257
 2012.34 1023 l 257
133.931 -209 m 257
 62.2285 -406 l 257
 1592.23 -406 l 257
 1663.93 -209 l 257
 133.931 -209 l 257
207.816 -6 m 257
 82.2461 -351 l 257
 282.246 -351 l 257
 407.816 -6 l 257
 207.816 -6 l 257
2102.71 1307 m 257
 2031.74 1112 l 257
 2257.74 1112 l 257
 2328.71 1307 l 257
 2102.71 1307 l 257
EndSplineSet
EndChar

StartChar: k
Encoding: 107 107 225
GlifName: k
Width: 2048
VWidth: 0
GlyphClass: 2
Flags: W
AnchorPoint: "top" 220 1638 basechar 0
LayerCount: 2
Fore
SplineSet
662.422 1537 m 257
 104.82 5 l 257
 304.82 5 l 257
 862.422 1537 l 257
 662.422 1537 l 257
339.809 516 m 257
 309.463 298 l 257
 2260.34 1023 l 257
 2043.34 1023 l 257
 339.809 516 l 257
683.926 596 m 257
 432.798 483 l 257
 1707 0 l 257
 1945 0 l 257
 683.926 596 l 257
EndSplineSet
EndChar

StartChar: l
Encoding: 108 108 226
GlifName: l
Width: 2048
VWidth: 0
GlyphClass: 2
Flags: W
AnchorPoint: "top" 520 1654 basechar 0
LayerCount: 2
Fore
SplineSet
283.069 209 m 257
 210.275 9 l 257
 1844.28 9 l 257
 1917.07 209 l 257
 283.069 209 l 257
1487.43 1548 m 257
 955.302 86 l 257
 1155.3 86 l 257
 1687.43 1548 l 257
 1487.43 1548 l 257
831.426 1548 m 257
 758.996 1349 l 257
 1494 1349 l 257
 1566.43 1548 l 257
 831.426 1548 l 257
EndSplineSet
EndChar

StartChar: lcaron
Encoding: 318 318 228
GlifName: lcaron
Width: 2048
VWidth: 0
GlyphClass: 2
Flags: W
LayerCount: 2
Fore
SplineSet
209.069 209 m 257
 136.275 9 l 257
 1794.28 9 l 257
 1867.07 209 l 257
 209.069 209 l 257
1425.43 1548 m 257
 893.302 86 l 257
 1093.3 86 l 257
 1625.43 1548 l 257
 1425.43 1548 l 257
757.426 1548 m 257
 684.996 1349 l 257
 1432 1349 l 257
 1504.43 1548 l 257
 757.426 1548 l 257
1853.5 1496 m 257
 1769.06 1264 l 257
 1899.06 1264 l 257
 1983.5 1496 l 257
 1853.5 1496 l 257
EndSplineSet
EndChar

StartChar: less
Encoding: 60 60 230
GlifName: less
Width: 2048
VWidth: 0
GlyphClass: 2
Flags: W
LayerCount: 2
Fore
SplineSet
896.805 777 m 257
 821.099 569 l 257
 1725.72 807 l 257
 1800.7 1013 l 257
 896.805 777 l 257
896.805 777 m 257
 821.099 569 l 257
 1474.4 122 l 257
 1546.11 319 l 257
 896.805 777 l 257
EndSplineSet
EndChar

StartChar: logicalnot
Encoding: 172 172 231
GlifName: logicalnot
Width: 2048
VWidth: 0
GlyphClass: 2
Flags: W
LayerCount: 2
Fore
SplineSet
1519.31 935 m 257
 1411.94 640 l 257
 1521.94 640 l 257
 1629.31 935 l 257
 1519.31 935 l 257
1089.31 935 m 257
 1052.92 835 l 257
 1602.92 835 l 257
 1639.31 935 l 257
 1089.31 935 l 257
EndSplineSet
EndChar

StartChar: lslash
Encoding: 322 322 232
GlifName: lslash
Width: 2048
VWidth: 0
GlyphClass: 2
Flags: W
LayerCount: 2
Fore
SplineSet
271.069 209 m 257
 198.275 9 l 257
 1856.28 9 l 257
 1929.07 209 l 257
 271.069 209 l 257
1487.43 1548 m 257
 955.302 86 l 257
 1155.3 86 l 257
 1687.43 1548 l 257
 1487.43 1548 l 257
819.426 1548 m 257
 746.996 1349 l 257
 1494 1349 l 257
 1566.43 1548 l 257
 819.426 1548 l 257
1881.5 1213 m 257
 646.096 830 l 257
 684.765 656 l 257
 1920.17 1039 l 257
 1881.5 1213 l 257
EndSplineSet
EndChar

StartChar: m
Encoding: 109 109 233
GlifName: m
Width: 2048
VWidth: 0
GlyphClass: 2
Flags: W
AnchorPoint: "top" 508 1110 basechar 0
LayerCount: 2
Fore
SplineSet
509.423 993 m 257
 148 0 l 257
 348 0 l 257
 709.423 993 l 257
 509.423 993 l 257
1315.78 972 m 257
 962 0 l 257
 1162 0 l 257
 1515.78 972 l 257
 1315.78 972 l 257
2133.24 976 m 257
 1778 0 l 257
 1978 0 l 257
 2333.24 976 l 257
 2133.24 976 l 257
442.342 1023 m 257
 370.64 826 l 257
 2276.64 826 l 257
 2348.34 1023 l 257
 442.342 1023 l 257
EndSplineSet
EndChar

StartChar: macron
Encoding: 175 175 234
GlifName: macron
Width: 2048
VWidth: 0
GlyphClass: 2
Flags: W
LayerCount: 2
Fore
SplineSet
1130.34 1023 m 257
 1100.5 941 l 257
 1660.5 941 l 257
 1690.34 1023 l 257
 1130.34 1023 l 257
EndSplineSet
EndChar

StartChar: mu
Encoding: 181 181 236
GlifName: mu
Width: 2048
VWidth: 0
GlyphClass: 2
Flags: W
LayerCount: 2
Fore
SplineSet
2076.31 935 m 257
 1736 0 l 257
 1846 0 l 257
 2186.31 935 l 257
 2076.31 935 l 257
345.677 120 m 257
 302 0 l 257
 1816 0 l 257
 1859.68 120 l 257
 345.677 120 l 257
542.312 935 m 257
 45.4932 -430 l 257
 139.493 -430 l 257
 636.312 935 l 257
 542.312 935 l 257
EndSplineSet
EndChar

StartChar: multiply
Encoding: 215 215 237
GlifName: multiply
Width: 2048
VWidth: 0
GlyphClass: 2
Flags: W
LayerCount: 2
Fore
SplineSet
200.919 302 m 257
 523.919 302 l 257
 2432.53 1323 l 257
 2121.53 1323 l 257
 200.919 302 l 257
575.261 1325 m 257
 1755.46 298 l 257
 2066.46 298 l 257
 899.261 1325 l 257
 575.261 1325 l 257
EndSplineSet
EndChar

StartChar: n
Encoding: 110 110 238
GlifName: n
Width: 2048
VWidth: 0
GlyphClass: 2
Flags: W
AnchorPoint: "top" 492 1158 basechar 0
LayerCount: 2
Fore
SplineSet
674.33 990 m 257
 314 0 l 257
 514 0 l 257
 874.33 990 l 257
 674.33 990 l 257
2067.24 976 m 257
 1712 0 l 257
 1914 0 l 257
 2269.24 976 l 257
 2067.24 976 l 257
506.342 1023 m 257
 434.64 826 l 257
 2212.64 826 l 257
 2284.34 1023 l 257
 506.342 1023 l 257
EndSplineSet
EndChar

StartChar: nine
Encoding: 57 57 241
GlifName: nine
Width: 2048
VWidth: 0
GlyphClass: 2
Flags: W
LayerCount: 2
Fore
SplineSet
2081.25 759 m 257
 1877.79 200 l 257
 151.794 200 l 257
 79 0 l 257
 2001 0 l 257
 2566.61 1554 l 257
 622.609 1554 l 257
 616.422 1537 l 257
 333.253 759 l 257
 2081.25 759 l 257
2151.05 959 m 257
 606.048 959 l 257
 749.815 1354 l 257
 2294.82 1354 l 257
 2151.05 959 l 257
EndSplineSet
EndChar

StartChar: numbersign
Encoding: 35 35 243
GlifName: numbersign
Width: 2048
VWidth: 0
GlyphClass: 2
Flags: W
LayerCount: 2
Fore
SplineSet
1230.27 1347 m 257
 853.923 313 l 257
 993.923 313 l 257
 1370.27 1347 l 257
 1230.27 1347 l 257
1643.36 1350 m 257
 1253.55 279 l 257
 1419.55 279 l 257
 1809.36 1350 l 257
 1643.36 1350 l 257
1033.11 1157 m 257
 979.61 1010 l 257
 1797.61 1010 l 257
 1851.11 1157 l 257
 1033.11 1157 l 257
891.165 767 m 257
 827.471 592 l 257
 1653.47 592 l 257
 1717.17 767 l 257
 891.165 767 l 257
EndSplineSet
EndChar

StartChar: o
Encoding: 111 111 244
GlifName: o
Width: 2048
VWidth: 0
GlyphClass: 2
Flags: W
AnchorPoint: "base" 536 -38 basechar 0
AnchorPoint: "top" 504 1158 basechar 0
LayerCount: 2
Fore
SplineSet
488.342 1023 m 257
 116 0 l 257
 316 0 l 257
 688.342 1023 l 257
 488.342 1023 l 257
2104.34 1023 m 257
 1732 0 l 257
 1934 0 l 257
 2306.34 1023 l 257
 2104.34 1023 l 257
612.342 1023 m 257
 539.184 822 l 257
 2125.18 822 l 257
 2198.34 1023 l 257
 612.342 1023 l 257
316.794 200 m 257
 244 0 l 257
 1816 0 l 257
 1888.79 200 l 257
 316.794 200 l 257
EndSplineSet
EndChar

StartChar: oe
Encoding: 339 339 249
GlifName: oe
Width: 2048
VWidth: 0
GlyphClass: 2
Flags: W
LayerCount: 2
Fore
SplineSet
1343.76 645 m 257
 1271.33 446 l 257
 2010.33 446 l 257
 2082.76 645 l 257
 1343.76 645 l 257
2195.34 1023 m 257
 1984.97 445 l 257
 2184.97 445 l 257
 2395.34 1023 l 257
 2195.34 1023 l 257
475.342 1023 m 257
 103 0 l 257
 303 0 l 257
 675.342 1023 l 257
 475.342 1023 l 257
1335.34 1023 m 257
 963 0 l 257
 1163 0 l 257
 1535.34 1023 l 257
 1335.34 1023 l 257
530.342 1023 m 257
 457.548 823 l 257
 2182.55 823 l 257
 2255.34 1023 l 257
 530.342 1023 l 257
221.794 200 m 257
 149 0 l 257
 2023 0 l 257
 2095.79 200 l 257
 221.794 200 l 257
EndSplineSet
EndChar

StartChar: ogonek
Encoding: 731 731 250
GlifName: ogonek
Width: 2048
VWidth: 0
GlyphClass: 2
Flags: W
LayerCount: 2
Fore
SplineSet
653.272 -274 m 257
 608.868 -396 l 257
 1150.87 -396 l 257
 1195.27 -274 l 257
 653.272 -274 l 257
758.096 14 m 257
 608.868 -396 l 257
 726.868 -396 l 257
 876.096 14 l 257
 758.096 14 l 257
758.096 14 m 257
 714.056 -107 l 257
 1256.06 -107 l 257
 1300.1 14 l 257
 758.096 14 l 257
EndSplineSet
EndChar

StartChar: one
Encoding: 49 49 254
GlifName: one
Width: 2048
VWidth: 0
GlyphClass: 2
Flags: W
LayerCount: 2
Fore
SplineSet
1022 0 m 257
 1220 0 l 257
 1783.43 1548 l 257
 1585.43 1548 l 257
 1022 0 l 257
1589.43 1548 m 257
 1283.69 1252 l 257
 1397.29 1152 l 257
 1703.39 1449 l 257
 1589.43 1548 l 257
EndSplineSet
EndChar

StartChar: onehalf
Encoding: 189 189 255
GlifName: onehalf
Width: 2048
VWidth: 0
GlyphClass: 2
Flags: W
LayerCount: 2
Fore
SplineSet
1831.77 1483 m 257
 269.184 6 l 257
 433.081 -30 l 257
 1995.67 1447 l 257
 1831.77 1483 l 257
612.106 863 m 257
 695.106 863 l 257
 944.426 1548 l 257
 861.426 1548 l 257
 612.106 863 l 257
863.426 1548 m 257
 734.474 1419 l 257
 780.095 1374 l 257
 910.14 1506 l 257
 863.426 1548 l 257
1871.39 633 m 257
 2142.39 633 l 257
 2071.05 437 l 257
 1802.05 437 l 257
 1653.92 30 l 257
 2004.92 30 l 257
 2037.68 120 l 257
 1776.68 120 l 257
 1859.3 347 l 257
 2127.3 347 l 257
 2264.15 723 l 257
 1904.15 723 l 257
 1871.39 633 l 257
EndSplineSet
EndChar

StartChar: onequarter
Encoding: 188 188 256
GlifName: onequarter
Width: 2048
VWidth: 0
GlyphClass: 2
Flags: W
LayerCount: 2
Fore
SplineSet
1815.4 1482 m 257
 84.6396 10 l 257
 295.64 10 l 257
 2026.4 1482 l 257
 1815.4 1482 l 257
920.713 1046 m 257
 1031.71 1046 l 257
 1214.43 1548 l 257
 1103.43 1548 l 257
 920.713 1046 l 257
1111.24 1542 m 257
 844.749 1428 l 257
 872.282 1391 l 257
 1171.24 1542 l 257
 1111.24 1542 l 257
1217.67 381 m 257
 1844.67 381 l 257
 1709.28 9 l 257
 1828.28 9 l 257
 2105.26 770 l 257
 1982.26 770 l 257
 1864.69 447 l 257
 1362.69 447 l 257
 1480.99 772 l 257
 1359.99 772 l 257
 1217.67 381 l 257
EndSplineSet
EndChar

StartChar: ordfeminine
Encoding: 170 170 257
GlifName: ordfeminine
Width: 2048
VWidth: 0
GlyphClass: 2
Flags: W
LayerCount: 2
Fore
SplineSet
697.077 1319 m 257
 624.282 1119 l 257
 2230.28 1119 l 257
 2303.08 1319 l 257
 697.077 1319 l 257
2190.44 1320 m 257
 1817.74 296 l 257
 2011.74 296 l 257
 2384.44 1320 l 257
 2190.44 1320 l 257
546.39 894 m 257
 473.959 695 l 257
 2097.96 695 l 257
 2170.39 894 l 257
 546.39 894 l 257
537.654 870 m 257
 327.644 293 l 257
 528.644 293 l 257
 738.654 870 l 257
 537.654 870 l 257
399.529 496 m 257
 326.735 296 l 257
 2016.74 296 l 257
 2089.53 496 l 257
 399.529 496 l 257
184.963 162 m 257
 126 0 l 257
 1922 0 l 257
 1980.96 162 l 257
 184.963 162 l 257
EndSplineSet
EndChar

StartChar: ordmasculine
Encoding: 186 186 258
GlifName: ordmasculine
Width: 2048
VWidth: 0
GlyphClass: 2
Flags: W
LayerCount: 2
Fore
SplineSet
544.342 1023 m 257
 172 0 l 257
 372 0 l 257
 744.342 1023 l 257
 544.342 1023 l 257
2159.34 1023 m 257
 1787 0 l 257
 1989 0 l 257
 2361.34 1023 l 257
 2159.34 1023 l 257
667.342 1023 m 257
 594.184 822 l 257
 2180.18 822 l 257
 2253.34 1023 l 257
 667.342 1023 l 257
371.794 200 m 257
 299 0 l 257
 1871 0 l 257
 1943.79 200 l 257
 371.794 200 l 257
-30.5732 -84 m 257
 -78.6172 -216 l 257
 1969.38 -216 l 257
 2017.43 -84 l 257
 -30.5732 -84 l 257
EndSplineSet
EndChar

StartChar: oslash
Encoding: 248 248 259
GlifName: oslash
Width: 2048
VWidth: 0
GlyphClass: 2
Flags: W
LayerCount: 2
Fore
SplineSet
2284.66 1164 m 257
 7.17969 -5 l 257
 133.511 -103 l 257
 2411.99 1066 l 257
 2284.66 1164 l 257
476.342 1023 m 257
 104 0 l 257
 304 0 l 257
 676.342 1023 l 257
 476.342 1023 l 257
2115.34 1023 m 257
 1743 0 l 257
 1945 0 l 257
 2317.34 1023 l 257
 2115.34 1023 l 257
599.342 1023 m 257
 526.184 822 l 257
 2136.18 822 l 257
 2209.34 1023 l 257
 599.342 1023 l 257
303.794 200 m 257
 231 0 l 257
 1827 0 l 257
 1899.79 200 l 257
 303.794 200 l 257
EndSplineSet
EndChar

StartChar: p
Encoding: 112 112 261
GlifName: p
Width: 2048
VWidth: 0
GlyphClass: 2
Flags: W
AnchorPoint: "top" 268 1322 basechar 0
LayerCount: 2
Fore
SplineSet
639.856 1203 m 257
 54.2285 -406 l 257
 254.229 -406 l 257
 839.856 1203 l 257
 639.856 1203 l 257
672.342 1023 m 257
 598.819 821 l 257
 2136.82 821 l 257
 2210.34 1023 l 257
 672.342 1023 l 257
377.522 202 m 257
 304 0 l 257
 1844 0 l 257
 1917.52 202 l 257
 377.522 202 l 257
1960.84 876 m 257
 1705.69 175 l 257
 1903.69 175 l 257
 2158.84 876 l 257
 1960.84 876 l 257
EndSplineSet
EndChar

StartChar: paragraph
Encoding: 182 182 262
GlifName: paragraph
Width: 2048
VWidth: 0
GlyphClass: 2
Flags: W
LayerCount: 2
Fore
SplineSet
1013.29 1130 m 257
 960.511 985 l 257
 1524.51 985 l 257
 1577.29 1130 l 257
 1013.29 1130 l 257
1165.43 1548 m 257
 965.971 1000 l 257
 1125.97 1000 l 257
 1325.43 1548 l 257
 1165.43 1548 l 257
1165.43 1548 m 257
 1124.3 1435 l 257
 1944.3 1435 l 257
 1985.43 1548 l 257
 1165.43 1548 l 257
1635.43 1548 m 257
 1072 0 l 257
 1216 0 l 257
 1779.43 1548 l 257
 1635.43 1548 l 257
1905.43 1548 m 257
 1342 0 l 257
 1446 0 l 257
 2009.43 1548 l 257
 1905.43 1548 l 257
EndSplineSet
EndChar

StartChar: parenleft
Encoding: 40 40 263
GlifName: parenleft
Width: 2048
VWidth: 0
GlyphClass: 2
Flags: W
LayerCount: 2
Fore
SplineSet
1208.34 1023 m 257
 901.15 179 l 257
 1091.15 179 l 257
 1398.34 1023 l 257
 1208.34 1023 l 257
1748.36 1633 m 257
 1210.16 1028 l 257
 1398.16 1028 l 257
 1780.91 1640 l 257
 1748.36 1633 l 257
901.15 179 m 257
 1032.23 -406 l 257
 1064.23 -406 l 257
 1091.15 179 l 257
 901.15 179 l 257
EndSplineSet
EndChar

StartChar: parenright
Encoding: 41 41 264
GlifName: parenright
Width: 2048
VWidth: 0
GlyphClass: 2
Flags: W
LayerCount: 2
Fore
SplineSet
1372.34 1023 m 257
 1065.15 179 l 257
 1255.15 179 l 257
 1562.34 1023 l 257
 1372.34 1023 l 257
1450.91 1629 m 257
 1372.34 1023 l 257
 1562.34 1023 l 257
 1488.91 1629 l 257
 1450.91 1629 l 257
1065.15 179 m 257
 710.229 -406 l 257
 738.229 -406 l 257
 1255.15 179 l 257
 1065.15 179 l 257
EndSplineSet
EndChar

StartChar: percent
Encoding: 37 37 265
GlifName: percent
Width: 2048
VWidth: 0
GlyphClass: 2
Flags: W
LayerCount: 2
Fore
SplineSet
779.992 522 m 257
 771.217 377 l 257
 1718.6 716 l 257
 1727.01 860 l 257
 779.992 522 l 257
1147.84 1148 m 257
 1029.18 822 l 257
 1107.18 822 l 257
 1225.84 1148 l 257
 1147.84 1148 l 257
1149.29 1152 m 257
 1114.72 1057 l 257
 1462.72 1057 l 257
 1497.29 1152 l 257
 1149.29 1152 l 257
1047.02 871 m 257
 1017.17 789 l 257
 1361.17 789 l 257
 1391.02 871 l 257
 1047.02 871 l 257
1405.29 1152 m 257
 1273.9 791 l 257
 1365.9 791 l 257
 1497.29 1152 l 257
 1405.29 1152 l 257
1216.69 436 m 257
 1098.04 110 l 257
 1176.04 110 l 257
 1294.69 436 l 257
 1216.69 436 l 257
1218.15 440 m 257
 1183.57 345 l 257
 1529.57 345 l 257
 1564.15 440 l 257
 1218.15 440 l 257
1115.87 159 m 257
 1086.03 77 l 257
 1430.03 77 l 257
 1459.87 159 l 257
 1115.87 159 l 257
1472.15 440 m 257
 1340.75 79 l 257
 1432.75 79 l 257
 1564.15 440 l 257
 1472.15 440 l 257
EndSplineSet
EndChar

StartChar: period
Encoding: 46 46 266
GlifName: period
Width: 2048
VWidth: 0
GlyphClass: 2
Flags: W
LayerCount: 2
Fore
SplineSet
981.537 246 m 257
 892 0 l 257
 1156 0 l 257
 1245.54 246 l 257
 981.537 246 l 257
EndSplineSet
EndChar

StartChar: periodcentered
Encoding: 183 183 267
GlifName: periodcentered
Width: 2048
VWidth: 0
GlyphClass: 2
Flags: W
LayerCount: 2
Fore
SplineSet
1309.11 1146 m 257
 1219.21 899 l 257
 1483.21 899 l 257
 1573.11 1146 l 257
 1309.11 1146 l 257
EndSplineSet
EndChar

StartChar: perthousand
Encoding: 8240 8240 268
GlifName: perthousand
Width: 2048
VWidth: 0
GlyphClass: 2
Flags: W
LayerCount: 2
Fore
SplineSet
1332.69 436 m 257
 1214.04 110 l 257
 1292.04 110 l 257
 1410.69 436 l 257
 1332.69 436 l 257
1334.15 440 m 257
 1299.57 345 l 257
 1645.57 345 l 257
 1680.15 440 l 257
 1334.15 440 l 257
1231.87 159 m 257
 1202.03 77 l 257
 1546.03 77 l 257
 1575.87 159 l 257
 1231.87 159 l 257
1588.15 440 m 257
 1456.75 79 l 257
 1548.75 79 l 257
 1680.15 440 l 257
 1588.15 440 l 257
717.992 522 m 257
 707.217 377 l 257
 1654.6 716 l 257
 1663.01 860 l 257
 717.992 522 l 257
1085.84 1148 m 257
 967.184 822 l 257
 1045.18 822 l 257
 1163.84 1148 l 257
 1085.84 1148 l 257
1087.29 1152 m 257
 1052.72 1057 l 257
 1398.72 1057 l 257
 1433.29 1152 l 257
 1087.29 1152 l 257
985.019 871 m 257
 955.173 789 l 257
 1299.17 789 l 257
 1329.02 871 l 257
 985.019 871 l 257
1341.29 1152 m 257
 1209.9 791 l 257
 1301.9 791 l 257
 1433.29 1152 l 257
 1341.29 1152 l 257
930.691 436 m 257
 812.037 110 l 257
 890.037 110 l 257
 1008.69 436 l 257
 930.691 436 l 257
932.146 440 m 257
 897.569 345 l 257
 1245.57 345 l 257
 1280.15 440 l 257
 932.146 440 l 257
829.871 159 m 257
 800.025 77 l 257
 1144.03 77 l 257
 1173.87 159 l 257
 829.871 159 l 257
1188.15 440 m 257
 1056.75 79 l 257
 1148.75 79 l 257
 1280.15 440 l 257
 1188.15 440 l 257
EndSplineSet
EndChar

StartChar: plus
Encoding: 43 43 269
GlifName: plus
Width: 2048
VWidth: 0
GlyphClass: 2
Flags: W
LayerCount: 2
Fore
SplineSet
1340.41 1221 m 257
 956.055 165 l 257
 1181.05 165 l 257
 1565.41 1221 l 257
 1340.41 1221 l 257
871.819 821 m 257
 796.113 613 l 257
 1698.11 613 l 257
 1773.82 821 l 257
 871.819 821 l 257
EndSplineSet
EndChar

StartChar: plusminus
Encoding: 177 177 270
GlifName: plusminus
Width: 2048
VWidth: 0
GlyphClass: 2
Flags: W
LayerCount: 2
Fore
SplineSet
650.309 108 m 257
 574.603 -100 l 257
 1400.6 -100 l 257
 1476.31 108 l 257
 650.309 108 l 257
1340.41 1221 m 257
 956.055 165 l 257
 1181.05 165 l 257
 1565.41 1221 l 257
 1340.41 1221 l 257
871.819 821 m 257
 796.113 613 l 257
 1698.11 613 l 257
 1773.82 821 l 257
 871.819 821 l 257
EndSplineSet
EndChar

StartChar: q
Encoding: 113 113 271
GlifName: q
Width: 2048
VWidth: 0
GlyphClass: 2
Flags: W
LayerCount: 2
Fore
SplineSet
1861.13 1201 m 257
 1276.23 -406 l 257
 1474.23 -406 l 257
 2059.13 1201 l 257
 1861.13 1201 l 257
522.342 1023 m 257
 449.548 823 l 257
 1899.55 823 l 257
 1972.34 1023 l 257
 522.342 1023 l 257
225.886 203 m 257
 152 0 l 257
 1568 0 l 257
 1641.89 203 l 257
 225.886 203 l 257
461.194 855 m 257
 188.944 107 l 257
 388.944 107 l 257
 661.194 855 l 257
 461.194 855 l 257
1364.46 -268 m 257
 1314.23 -406 l 257
 1750.23 -406 l 257
 1800.46 -268 l 257
 1364.46 -268 l 257
EndSplineSet
EndChar

StartChar: question
Encoding: 63 63 272
GlifName: question
Width: 2048
VWidth: 0
GlyphClass: 2
Flags: W
LayerCount: 2
Fore
SplineSet
969.9 247 m 257
 880 0 l 257
 1126 0 l 257
 1215.9 247 l 257
 969.9 247 l 257
1256.87 1519 m 257
 1189.17 1333 l 257
 1825.17 1333 l 257
 1892.87 1519 l 257
 1256.87 1519 l 257
1701.05 1514 m 257
 1501.6 966 l 257
 1695.6 966 l 257
 1895.05 1514 l 257
 1701.05 1514 l 257
1249.43 1015 m 257
 1177 816 l 257
 1641 816 l 257
 1713.43 1015 l 257
 1249.43 1015 l 257
1247.97 1011 m 257
 1022.68 392 l 257
 1270.68 392 l 257
 1495.97 1011 l 257
 1247.97 1011 l 257
EndSplineSet
EndChar

StartChar: questiondown
Encoding: 191 191 273
GlifName: questiondown
Width: 2048
VWidth: 0
GlyphClass: 2
Flags: W
LayerCount: 2
Fore
SplineSet
1631.33 1273 m 257
 1720.87 1519 l 257
 1470.87 1519 l 257
 1380.97 1272 l 257
 1631.33 1273 l 257
1344 0 m 257
 1411.7 186 l 257
 775.698 186 l 257
 708 0 l 257
 1344 0 l 257
899.82 5 m 257
 1099.28 553 l 257
 905.275 553 l 257
 705.82 5 l 257
 899.82 5 l 257
1351.44 504 m 257
 1423.87 703 l 257
 959.871 703 l 257
 887.441 504 l 257
 1351.44 504 l 257
1352.9 508 m 257
 1578.19 1127 l 257
 1330.19 1127 l 257
 1104.9 508 l 257
 1352.9 508 l 257
EndSplineSet
EndChar

StartChar: quotedbl
Encoding: 34 34 274
GlifName: quotedbl
Width: 2048
VWidth: 0
GlyphClass: 2
Flags: W
LayerCount: 2
Fore
SplineSet
1234.62 1326 m 257
 1378.62 1326 l 257
 1468.89 1574 l 257
 1324.89 1574 l 257
 1234.62 1326 l 257
1634.62 1326 m 257
 1778.62 1326 l 257
 1868.89 1574 l 257
 1724.89 1574 l 257
 1634.62 1326 l 257
EndSplineSet
EndChar

StartChar: quotedblbase
Encoding: 8222 8222 275
GlifName: quotedblbase
Width: 2048
VWidth: 0
GlyphClass: 2
Flags: W
LayerCount: 2
Fore
SplineSet
284.261 237 m 257
 200.912 8 l 257
 448.912 8 l 257
 532.261 237 l 257
 284.261 237 l 257
346.136 135 m 257
 125.86 -146 l 257
 247.022 -206 l 257
 444 0 l 257
 346.136 135 l 257
683.261 237 m 257
 599.912 8 l 257
 847.912 8 l 257
 931.261 237 l 257
 683.261 237 l 257
745.136 135 m 257
 524.86 -146 l 257
 646.022 -206 l 257
 843 0 l 257
 745.136 135 l 257
EndSplineSet
EndChar

StartChar: quotedblleft
Encoding: 8220 8220 276
GlifName: quotedblleft
Width: 2048
VWidth: 0
GlyphClass: 2
Flags: W
LayerCount: 2
Fore
SplineSet
1640.43 1842 m 257
 1723.78 2071 l 257
 1475.78 2071 l 257
 1392.43 1842 l 257
 1640.43 1842 l 257
1579.56 1944 m 257
 1799.83 2225 l 257
 1677.67 2285 l 257
 1479.24 2075 l 257
 1579.56 1944 l 257
1976.43 1842 m 257
 2059.78 2071 l 257
 1811.78 2071 l 257
 1728.43 1842 l 257
 1976.43 1842 l 257
1915.56 1944 m 257
 2135.83 2225 l 257
 2013.67 2285 l 257
 1815.24 2075 l 257
 1915.56 1944 l 257
EndSplineSet
EndChar

StartChar: quotedblright
Encoding: 8221 8221 277
GlifName: quotedblright
Width: 2048
VWidth: 0
GlyphClass: 2
Flags: W
LayerCount: 2
Fore
SplineSet
1899.67 2285 m 257
 1816.32 2056 l 257
 2064.32 2056 l 257
 2147.67 2285 l 257
 1899.67 2285 l 257
1962.55 2183 m 257
 1742.27 1902 l 257
 1862.43 1842 l 257
 2060.87 2052 l 257
 1962.55 2183 l 257
1581.67 2285 m 257
 1498.32 2056 l 257
 1746.32 2056 l 257
 1829.67 2285 l 257
 1581.67 2285 l 257
1644.55 2183 m 257
 1424.27 1902 l 257
 1544.43 1842 l 257
 1742.87 2052 l 257
 1644.55 2183 l 257
EndSplineSet
EndChar

StartChar: quoteleft
Encoding: 8216 8216 278
GlifName: quoteleft
Width: 2048
VWidth: 0
GlyphClass: 2
Flags: W
LayerCount: 2
Fore
SplineSet
1808.43 1842 m 257
 1891.78 2071 l 257
 1643.78 2071 l 257
 1560.43 1842 l 257
 1808.43 1842 l 257
1747.56 1944 m 257
 1967.83 2225 l 257
 1845.67 2285 l 257
 1647.24 2075 l 257
 1747.56 1944 l 257
EndSplineSet
EndChar

StartChar: quoteright
Encoding: 8217 8217 279
GlifName: quoteright
Width: 2048
VWidth: 0
GlyphClass: 2
Flags: W
LayerCount: 2
Fore
SplineSet
1741.67 2285 m 257
 1658.32 2056 l 257
 1906.32 2056 l 257
 1989.67 2285 l 257
 1741.67 2285 l 257
1802.55 2183 m 257
 1582.27 1902 l 257
 1704.43 1842 l 257
 1902.87 2052 l 257
 1802.55 2183 l 257
EndSplineSet
EndChar

StartChar: quotesinglbase
Encoding: 8218 8218 280
GlifName: quotesinglbase
Width: 2048
VWidth: 0
GlyphClass: 2
Flags: W
LayerCount: 2
Fore
SplineSet
996.261 237 m 257
 912.912 8 l 257
 1160.91 8 l 257
 1244.26 237 l 257
 996.261 237 l 257
1057.14 135 m 257
 836.86 -146 l 257
 959.022 -206 l 257
 1156 0 l 257
 1057.14 135 l 257
EndSplineSet
EndChar

StartChar: quotesingle
Encoding: 39 39 281
GlifName: quotesingle
Width: 2048
VWidth: 0
GlyphClass: 2
Flags: W
LayerCount: 2
Fore
SplineSet
1503.5 1496 m 257
 1419.06 1264 l 257
 1549.06 1264 l 257
 1633.5 1496 l 257
 1503.5 1496 l 257
EndSplineSet
EndChar

StartChar: r
Encoding: 114 114 282
GlifName: r
Width: 2048
VWidth: 0
GlyphClass: 2
Flags: W
AnchorPoint: "base" 500 -70 basechar 0
AnchorPoint: "top" 504 1174 basechar 0
LayerCount: 2
Fore
SplineSet
530.342 1023 m 257
 456.819 821 l 257
 2188.82 821 l 257
 2262.34 1023 l 257
 530.342 1023 l 257
1219.23 954 m 257
 872 0 l 257
 1072 0 l 257
 1419.23 954 l 257
 1219.23 954 l 257
2045.24 976 m 257
 1926.58 650 l 257
 2126.58 650 l 257
 2245.24 976 l 257
 2045.24 976 l 257
EndSplineSet
EndChar

StartChar: registered
Encoding: 174 174 285
GlifName: registered
Width: 2048
VWidth: 0
GlyphClass: 2
Flags: W
LayerCount: 2
Fore
SplineSet
984.617 1032 m 257
 791.349 501 l 257
 859.349 501 l 257
 1052.62 1032 l 257
 984.617 1032 l 257
1009.62 1032 m 257
 984.503 963 l 257
 1813.5 963 l 257
 1838.62 1032 l 257
 1009.62 1032 l 257
1778.62 1032 m 257
 1694.9 802 l 257
 1763.9 802 l 257
 1847.62 1032 l 257
 1778.62 1032 l 257
948.474 875 m 257
 921.54 801 l 257
 1759.54 801 l 257
 1786.47 875 l 257
 948.474 875 l 257
971.452 809 m 257
 1592.53 485 l 257
 1727.53 485 l 257
 1093.45 809 l 257
 971.452 809 l 257
712.422 1537 m 257
 153 0 l 257
 354 0 l 257
 913.422 1537 l 257
 712.422 1537 l 257
2251.42 1537 m 257
 1692 0 l 257
 1895 0 l 257
 2454.42 1537 l 257
 2251.42 1537 l 257
853.422 1537 m 257
 780.628 1337 l 257
 2223.63 1337 l 257
 2296.42 1537 l 257
 853.422 1537 l 257
344.25 204 m 257
 270 0 l 257
 1743 0 l 257
 1817.25 204 l 257
 344.25 204 l 257
EndSplineSet
EndChar

StartChar: ring
Encoding: 730 730 286
GlifName: ring
Width: 2048
VWidth: 0
GlyphClass: 2
Flags: W
LayerCount: 2
Fore
SplineSet
1404.69 1252 m 257
 1552.69 1252 l 257
 1505.38 1122 l 257
 1357.38 1122 l 257
 1404.69 1252 l 257
1332.81 1343 m 257
 1220.35 1034 l 257
 1580.35 1034 l 257
 1692.81 1343 l 257
 1332.81 1343 l 257
EndSplineSet
EndChar

StartChar: s
Encoding: 115 115 287
GlifName: s
Width: 2048
VWidth: 0
GlyphClass: 2
Flags: W
AnchorPoint: "base" 512 -66 basechar 0
AnchorPoint: "top" 472 1134 basechar 0
LayerCount: 2
Fore
SplineSet
591.342 1023 m 257
 519.64 826 l 257
 2128.64 826 l 257
 2200.34 1023 l 257
 591.342 1023 l 257
591.342 1023 m 257
 486.882 736 l 257
 686.882 736 l 257
 791.342 1023 l 257
 591.342 1023 l 257
293.158 201 m 257
 220 0 l 257
 1825 0 l 257
 1898.16 201 l 257
 293.158 201 l 257
1730.64 293 m 257
 1628.37 12 l 257
 1828.37 12 l 257
 1930.64 293 l 257
 1730.64 293 l 257
487.882 736 m 257
 1730.64 293 l 257
 1930.64 293 l 257
 687.882 736 l 257
 487.882 736 l 257
EndSplineSet
EndChar

StartChar: section
Encoding: 167 167 292
GlifName: section
Width: 2048
VWidth: 0
GlyphClass: 2
Flags: W
LayerCount: 2
Fore
SplineSet
1084.59 1238 m 257
 1010.71 1035 l 257
 1608.71 1035 l 257
 1682.59 1238 l 257
 1084.59 1238 l 257
1085.69 1241 m 257
 854.202 605 l 257
 1056.2 605 l 257
 1287.69 1241 l 257
 1085.69 1241 l 257
647.798 -61 m 257
 575.368 -260 l 257
 1283.37 -260 l 257
 1355.8 -61 l 257
 647.798 -61 l 257
1119.73 -259 m 257
 1319.73 -259 l 257
 1448.58 95 l 257
 1248.58 95 l 257
 1119.73 -259 l 257
854.202 605 m 257
 1248.58 95 l 257
 1448.58 95 l 257
 1056.2 605 l 257
 854.202 605 l 257
1225.82 1626 m 257
 1151.93 1423 l 257
 1749.93 1423 l 257
 1823.82 1626 l 257
 1225.82 1626 l 257
1226.91 1629 m 257
 1084.23 1237 l 257
 1286.23 1237 l 257
 1428.91 1629 l 257
 1226.91 1629 l 257
766.096 286 m 257
 693.665 87 l 257
 1401.67 87 l 257
 1474.1 286 l 257
 766.096 286 l 257
1236.03 88 m 257
 1438.03 88 l 257
 1566.88 442 l 257
 1364.88 442 l 257
 1236.03 88 l 257
1084.23 1237 m 257
 1364.88 442 l 257
 1566.88 442 l 257
 1286.23 1237 l 257
 1084.23 1237 l 257
EndSplineSet
EndChar

StartChar: semicolon
Encoding: 59 59 293
GlifName: semicolon
Width: 2048
VWidth: 0
GlyphClass: 2
Flags: W
LayerCount: 2
Fore
SplineSet
1068.51 430 m 257
 985.158 201 l 257
 1233.16 201 l 257
 1316.51 430 l 257
 1068.51 430 l 257
1129.38 328 m 257
 909.106 47 l 257
 1031.27 -13 l 257
 1229.7 197 l 257
 1129.38 328 l 257
1205.02 871 m 257
 1115.12 624 l 257
 1381.12 624 l 257
 1471.02 871 l 257
 1205.02 871 l 257
EndSplineSet
EndChar

StartChar: seven
Encoding: 55 55 294
GlifName: seven
Width: 2048
VWidth: 0
GlyphClass: 2
Flags: W
LayerCount: 2
Fore
SplineSet
547.18 1355 m 257
 2281.18 1355 l 257
 1788 0 l 257
 1991 0 l 257
 2557.7 1557 l 257
 620.701 1557 l 257
 547.18 1355 l 257
EndSplineSet
EndChar

StartChar: six
Encoding: 54 54 295
GlifName: six
Width: 2048
VWidth: 0
GlyphClass: 2
Flags: W
LayerCount: 2
Fore
SplineSet
604.426 1548 m 257
 114.158 201 l 257
 41 0 l 257
 2004 0 l 257
 2353.05 959 l 257
 593.048 959 l 257
 734.632 1348 l 257
 2499.63 1348 l 257
 2572.43 1548 l 257
 604.426 1548 l 257
2072.25 759 m 257
 1869.89 203 l 257
 323.886 203 l 257
 526.253 759 l 257
 2072.25 759 l 257
EndSplineSet
EndChar

StartChar: slash
Encoding: 47 47 296
GlifName: slash
Width: 2048
VWidth: 0
GlyphClass: 2
Flags: W
LayerCount: 2
Fore
SplineSet
1754.77 1483 m 257
 647.184 6 l 257
 808.614 -67 l 257
 1916.2 1410 l 257
 1754.77 1483 l 257
EndSplineSet
EndChar

StartChar: sterling
Encoding: 163 163 298
GlifName: sterling
Width: 2048
VWidth: 0
GlyphClass: 2
Flags: W
LayerCount: 2
Fore
SplineSet
1495.61 1543 m 257
 1423.18 1344 l 257
 1714.18 1344 l 257
 1786.61 1543 l 257
 1495.61 1543 l 257
887.257 770 m 257
 814.827 571 l 257
 1540.83 571 l 257
 1613.26 770 l 257
 887.257 770 l 257
1451.24 1542 m 257
 890 0 l 257
 1088 0 l 257
 1649.24 1542 l 257
 1451.24 1542 l 257
788.522 202 m 257
 715 0 l 257
 1441 0 l 257
 1514.52 202 l 257
 788.522 202 l 257
EndSplineSet
EndChar

StartChar: t
Encoding: 116 116 299
GlifName: t
Width: 2048
VWidth: 0
GlyphClass: 2
Flags: W
AnchorPoint: "base" 500 -82 basechar 0
AnchorPoint: "top" 500 1642 basechar 0
LayerCount: 2
Fore
SplineSet
1485.43 1548 m 257
 922 0 l 257
 1122 0 l 257
 1685.43 1548 l 257
 1485.43 1548 l 257
1002.43 199 m 257
 930 0 l 257
 1822 0 l 257
 1894.43 199 l 257
 1002.43 199 l 257
558.342 1023 m 257
 485.911 824 l 257
 2159.91 824 l 257
 2232.34 1023 l 257
 558.342 1023 l 257
EndSplineSet
EndChar

StartChar: tcaron
Encoding: 357 357 300
GlifName: tcaron
Width: 2048
VWidth: 0
GlyphClass: 2
Flags: W
LayerCount: 2
Fore
SplineSet
1410.51 1529 m 257
 854 0 l 257
 1055 0 l 257
 1611.51 1529 l 257
 1410.51 1529 l 257
1079.43 199 m 257
 1007 0 l 257
 1910 0 l 257
 1982.43 199 l 257
 1079.43 199 l 257
442.342 1023 m 257
 369.911 824 l 257
 2172.91 824 l 257
 2245.34 1023 l 257
 442.342 1023 l 257
1940.5 1496 m 257
 1865.89 1291 l 257
 1995.89 1291 l 257
 2070.5 1496 l 257
 1940.5 1496 l 257
EndSplineSet
EndChar

StartChar: thorn
Encoding: 254 254 301
GlifName: thorn
Width: 2048
VWidth: 0
GlyphClass: 2
Flags: W
LayerCount: 2
Fore
SplineSet
549.346 1034 m 257
 25.2285 -406 l 257
 225.229 -406 l 257
 749.346 1034 l 257
 549.346 1034 l 257
602.769 667 m 257
 530.338 468 l 257
 2110.34 468 l 257
 2182.77 667 l 257
 602.769 667 l 257
370.184 6 m 257
 297.025 -195 l 257
 1867.03 -195 l 257
 1940.18 6 l 257
 370.184 6 l 257
1957.29 597 m 257
 1702.15 -104 l 257
 1900.15 -104 l 257
 2155.29 597 l 257
 1957.29 597 l 257
EndSplineSet
EndChar

StartChar: three
Encoding: 51 51 302
GlifName: three
Width: 2048
VWidth: 0
GlyphClass: 2
Flags: W
LayerCount: 2
Fore
SplineSet
368.882 736 m 257
 2050.88 736 l 257
 1852.88 192 l 257
 128.882 192 l 257
 56.0879 -8 l 257
 1984.09 -8 l 257
 2552.25 1553 l 257
 654.246 1553 l 257
 581.452 1353 l 257
 2273.45 1353 l 257
 2121.68 936 l 257
 441.676 936 l 257
 368.882 736 l 257
EndSplineSet
EndChar

StartChar: threequarters
Encoding: 190 190 303
GlifName: threequarters
Width: 2048
VWidth: 0
GlyphClass: 2
Flags: W
LayerCount: 2
Fore
SplineSet
1927.77 1483 m 257
 214.184 6 l 257
 307.614 -67 l 257
 2021.2 1410 l 257
 1927.77 1483 l 257
558.97 1272 m 257
 1132.97 1272 l 257
 1064.54 1084 l 257
 453.544 1084 l 257
 436.43 1015 l 257
 1216.43 1015 l 257
 1412.25 1553 l 257
 651.246 1553 l 257
 626.132 1484 l 257
 1208.13 1484 l 257
 1155.72 1340 l 257
 583.72 1340 l 257
 558.97 1272 l 257
1387.75 340 m 257
 1934.75 340 l 257
 1813.55 7 l 257
 1980.55 7 l 257
 2228.05 687 l 257
 2059.05 687 l 257
 1964.78 428 l 257
 1588.78 428 l 257
 1683.78 689 l 257
 1514.78 689 l 257
 1387.75 340 l 257
EndSplineSet
EndChar

StartChar: tilde
Encoding: 732 732 304
GlifName: tilde
Width: 2048
VWidth: 0
GlyphClass: 2
Flags: W
LayerCount: 2
Fore
SplineSet
1142.26 781 m 257
 1106.23 682 l 257
 1434.03 621 l 257
 1470.06 720 l 257
 1142.26 781 l 257
883.15 723 m 257
 863.481 625 l 257
 1106.23 682 l 257
 1142.26 781 l 257
 883.15 723 l 257
1470.06 720 m 257
 1434.03 621 l 257
 1667.35 762 l 257
 1678.29 858 l 257
 1470.06 720 l 257
EndSplineSet
EndChar

StartChar: tildecomb
Encoding: 771 771 305
GlifName: tildecomb
Width: 0
VWidth: 0
GlyphClass: 2
Flags: W
AnchorPoint: "top" 16 1855 mark 0
LayerCount: 2
Fore
SplineSet
587.4 2015 m 257
 551.367 1916 l 257
 879.165 1855 l 257
 915.198 1954 l 257
 587.4 2015 l 257
328.29 1957 m 257
 306.621 1859 l 257
 551.367 1916 l 257
 587.4 2015 l 257
 328.29 1957 l 257
915.198 1954 m 257
 879.165 1855 l 257
 1110.48 1996 l 257
 1121.43 2092 l 257
 915.198 1954 l 257
EndSplineSet
EndChar

StartChar: two
Encoding: 50 50 307
GlifName: two
Width: 2048
VWidth: 0
GlyphClass: 2
Flags: W
LayerCount: 2
Fore
SplineSet
598.176 1344 m 257
 2231.18 1344 l 257
 2072.49 908 l 257
 446.485 908 l 257
 116 0 l 257
 1928 0 l 257
 2000.79 200 l 257
 391.794 200 l 257
 576.327 707 l 257
 2199.33 707 l 257
 2505.43 1548 l 257
 672.426 1548 l 257
 598.176 1344 l 257
EndSplineSet
EndChar

StartChar: u
Encoding: 117 117 308
GlifName: u
Width: 2048
VWidth: 0
GlyphClass: 2
Flags: W
AnchorPoint: "base" 724 -50 basechar 0
AnchorPoint: "top" 440 1146 basechar 0
LayerCount: 2
Fore
SplineSet
522.342 1023 m 257
 150 0 l 257
 350 0 l 257
 722.342 1023 l 257
 522.342 1023 l 257
1754.34 1023 m 257
 1382 0 l 257
 1582 0 l 257
 1954.34 1023 l 257
 1754.34 1023 l 257
268.794 200 m 257
 196 0 l 257
 1898 0 l 257
 1970.79 200 l 257
 268.794 200 l 257
EndSplineSet
EndChar

StartChar: underscore
Encoding: 95 95 316
GlifName: underscore
Width: 2048
VWidth: 0
GlyphClass: 2
Flags: W
LayerCount: 2
Fore
SplineSet
-1.82031 -5 m 257
 -25.8418 -71 l 257
 2026.16 -71 l 257
 2050.18 -5 l 257
 -1.82031 -5 l 257
EndSplineSet
EndChar

StartChar: uni00B2
Encoding: 178 178 318
GlifName: uni00B_2
Width: 2048
VWidth: 0
GlyphClass: 2
Flags: W
LayerCount: 2
Fore
SplineSet
914.577 1455 m 257
 1804.58 1455 l 257
 1733.24 1259 l 257
 852.238 1259 l 257
 703.738 851 l 257
 1670.74 851 l 257
 1703.13 940 l 257
 856.132 940 l 257
 939.117 1168 l 257
 1806.12 1168 l 257
 1944.43 1548 l 257
 948.426 1548 l 257
 914.577 1455 l 257
EndSplineSet
EndChar

StartChar: uni00B3
Encoding: 179 179 319
GlifName: uni00B_3
Width: 2048
VWidth: 0
GlyphClass: 2
Flags: W
LayerCount: 2
Fore
SplineSet
886.94 1184 m 257
 1838.94 1184 l 257
 1749.4 938 l 257
 773.404 938 l 257
 741.011 849 l 257
 1833.01 849 l 257
 2089.25 1553 l 257
 1014.25 1553 l 257
 981.488 1463 l 257
 1939.49 1463 l 257
 1871.06 1275 l 257
 920.062 1275 l 257
 886.94 1184 l 257
EndSplineSet
EndChar

StartChar: uni00B9
Encoding: 185 185 320
GlifName: uni00B_9
Width: 2048
VWidth: 0
GlyphClass: 2
Flags: W
LayerCount: 2
Fore
SplineSet
1345.59 887 m 257
 1445.09 887 l 257
 1726.8 1661 l 257
 1627.3 1661 l 257
 1345.59 887 l 257
1629.3 1661 m 257
 1476.44 1513 l 257
 1533.24 1463 l 257
 1686.29 1611.5 l 257
 1629.3 1661 l 257
EndSplineSet
EndChar

StartChar: uni0192
Encoding: 402 402 333
GlifName: uni0192
Width: 2048
VWidth: 0
GlyphClass: 2
Flags: W
LayerCount: 2
Fore
SplineSet
1135.34 1023 m 257
 615.229 -406 l 257
 815.229 -406 l 257
 1335.34 1023 l 257
 1135.34 1023 l 257
1197.34 1023 m 257
 1127.46 831 l 257
 1905.46 831 l 257
 1975.34 1023 l 257
 1197.34 1023 l 257
432.459 559 m 257
 358.573 356 l 257
 1635.57 356 l 257
 1709.46 559 l 257
 432.459 559 l 257
93.8418 -201 m 257
 19.2285 -406 l 257
 817.229 -406 l 257
 891.842 -201 l 257
 93.8418 -201 l 257
EndSplineSet
EndChar

StartChar: uni0237
Encoding: 567 567 341
GlifName: uni0237
Width: 2048
VWidth: 0
GlyphClass: 2
Flags: W
AnchorPoint: "top" 720 1182 basechar 0
LayerCount: 2
Fore
SplineSet
2012.34 1023 m 257
 1490.41 -411 l 257
 1688.41 -411 l 257
 2210.34 1023 l 257
 2012.34 1023 l 257
133.931 -209 m 257
 62.2285 -406 l 257
 1592.23 -406 l 257
 1663.93 -209 l 257
 133.931 -209 l 257
207.816 -6 m 257
 82.2461 -351 l 257
 282.246 -351 l 257
 407.816 -6 l 257
 207.816 -6 l 257
EndSplineSet
EndChar

StartChar: uni02C9
Encoding: 713 713 345
GlifName: uni02C_9
Width: 2048
VWidth: 0
GlyphClass: 2
Flags: W
LayerCount: 2
Fore
SplineSet
1337.27 1630 m 257
 1307.43 1548 l 257
 1867.43 1548 l 257
 1897.27 1630 l 257
 1337.27 1630 l 257
EndSplineSet
EndChar

StartChar: uni02CA
Encoding: 714 714 346
GlifName: uni02C_A_
Width: 2048
VWidth: 0
GlyphClass: 2
Flags: W
LayerCount: 2
Fore
SplineSet
1554.08 1330 m 257
 1331.63 1076 l 257
 1402.89 1030 l 257
 1627.7 1285 l 257
 1554.08 1330 l 257
EndSplineSet
EndChar

StartChar: uni02CB
Encoding: 715 715 347
GlifName: uni02C_B_
Width: 2048
VWidth: 0
GlyphClass: 2
Flags: W
LayerCount: 2
Fore
SplineSet
1684.89 2107 m 257
 1718.99 1871 l 257
 1827.73 1917 l 257
 1793.99 2154 l 257
 1684.89 2107 l 257
EndSplineSet
EndChar

StartChar: uni0302
Encoding: 770 770 348
GlifName: uni0302
Width: 0
VWidth: 0
GlyphClass: 2
Flags: W
AnchorPoint: "top" -2 1427 mark 0
LayerCount: 2
Fore
SplineSet
875.132 2300 m 257
 800.132 2300 l 257
 556.028 1992 l 257
 619.382 1960 l 257
 875.132 2300 l 257
781.293 2240 m 257
 807.382 1960 l 257
 892.573 1988 l 257
 875.132 2300 l 257
 781.293 2240 l 257
EndSplineSet
EndChar

StartChar: uni0304
Encoding: 772 772 349
GlifName: uni0304
Width: 0
VWidth: 0
GlyphClass: 2
Flags: W
AnchorPoint: "top" -18 1532 mark 0
LayerCount: 2
Fore
SplineSet
313.271 1630 m 257
 283.426 1548 l 257
 843.426 1548 l 257
 873.271 1630 l 257
 313.271 1630 l 257
EndSplineSet
EndChar

StartChar: uni0305
Encoding: 773 773 350
GlifName: uni0305
Width: 0
VWidth: 0
GlyphClass: 2
Flags: W
AnchorPoint: "top" 18 1480 mark 0
LayerCount: 2
Fore
SplineSet
195.161 1602 m 257
 195.161 1542 l 257
 949.161 1542 l 257
 949.161 1602 l 257
 195.161 1602 l 257
EndSplineSet
EndChar

StartChar: uni0306
Encoding: 774 774 351
GlifName: uni0306
Width: 0
VWidth: 0
GlyphClass: 2
Flags: W
AnchorPoint: "top" 5 1440 mark 0
LayerCount: 2
Fore
SplineSet
728.426 1548 m 257
 703.676 1480 l 257
 893.426 1548 l 257
 928.731 1645 l 257
 728.426 1548 l 257
404.426 1548 m 257
 379.676 1480 l 257
 703.676 1480 l 257
 728.426 1548 l 257
 404.426 1548 l 257
263.271 1630 m 257
 233.426 1548 l 257
 379.676 1480 l 257
 404.426 1548 l 257
 263.271 1630 l 257
EndSplineSet
EndChar

StartChar: uni0307
Encoding: 775 775 352
GlifName: uni0307
Width: 0
VWidth: 0
GlyphClass: 2
Flags: W
AnchorPoint: "top" -4 1542 mark 0
LayerCount: 2
Fore
SplineSet
558.797 1843 m 257
 485.275 1641 l 257
 709.275 1641 l 257
 782.797 1843 l 257
 558.797 1843 l 257
EndSplineSet
EndChar

StartChar: uni0308
Encoding: 776 776 353
GlifName: uni0308
Width: 0
VWidth: 0
GlyphClass: 2
Flags: W
AnchorPoint: "top" 4 1592 mark 0
LayerCount: 2
Fore
SplineSet
325.451 1625 m 257
 270.492 1474 l 257
 438.492 1474 l 257
 493.451 1625 l 257
 325.451 1625 l 257
689.451 1625 m 257
 634.492 1474 l 257
 802.492 1474 l 257
 857.451 1625 l 257
 689.451 1625 l 257
EndSplineSet
EndChar

StartChar: uni030A
Encoding: 778 778 354
GlifName: uni030A_
Width: 0
VWidth: 0
GlyphClass: 2
Flags: W
AnchorPoint: "top" -1 1536 mark 0
LayerCount: 2
Fore
SplineSet
564.132 1756 m 257
 712.132 1756 l 257
 664.815 1626 l 257
 516.815 1626 l 257
 564.132 1756 l 257
492.253 1847 m 257
 379.422 1537 l 257
 739.422 1537 l 257
 852.253 1847 l 257
 492.253 1847 l 257
EndSplineSet
EndChar

StartChar: uni030C
Encoding: 780 780 356
GlifName: uni030C_
Width: 0
VWidth: 0
GlyphClass: 2
Flags: W
AnchorPoint: "top" -18 1315 mark 0
LayerCount: 2
Fore
SplineSet
521.455 1364 m 257
 535.731 1645 l 257
 476.632 1620 l 257
 471.092 1363 l 257
 521.455 1364 l 257
491.29 1413 m 257
 521.455 1364 l 257
 703.359 1622 l 257
 661.095 1646 l 257
 491.29 1413 l 257
EndSplineSet
EndChar

StartChar: uni0326
Encoding: 806 806 357
GlifName: uni0326
Width: 0
VWidth: 0
GlyphClass: 2
Flags: W
AnchorPoint: "base" 22 -5 mark 0
LayerCount: 2
Fore
SplineSet
-114 0 m 257
 -197.713 -230 l 257
 50.2871 -230 l 257
 134 0 l 257
 -114 0 l 257
-53.4893 -103 m 257
 -273.765 -384 l 257
 -151.603 -444 l 257
 46.8311 -234 l 257
 -53.4893 -103 l 257
EndSplineSet
EndChar

StartChar: uni0327
Encoding: 807 807 358
GlifName: uni0327
Width: 0
VWidth: 0
GlyphClass: 2
Flags: W
AnchorPoint: "base" -446 90 mark 0
LayerCount: 2
Fore
SplineSet
-158.485 180 m 257
 -276.412 -144 l 257
 -120.412 -144 l 257
 -2.48535 180 l 257
 -158.485 180 l 257
-326.823 -288 m 257
 -369.771 -406 l 257
 76.2285 -406 l 257
 119.177 -288 l 257
 -326.823 -288 l 257
72 0 m 257
 -63.3965 -372 l 257
 88.6035 -372 l 257
 224 0 l 257
 72 0 l 257
-222 0 m 257
 -278.779 -156 l 257
 167.221 -156 l 257
 224 0 l 257
 -222 0 l 257
EndSplineSet
EndChar

StartChar: uni0328
Encoding: 808 808 359
GlifName: uni0328
Width: 0
VWidth: 0
GlyphClass: 2
Flags: W
AnchorPoint: "base" -167 0 mark 0
LayerCount: 2
Fore
SplineSet
-375.823 -288 m 257
 -418.771 -406 l 257
 123.229 -406 l 257
 166.177 -288 l 257
 -375.823 -288 l 257
-271 0 m 257
 -418.771 -406 l 257
 -300.771 -406 l 257
 -153 0 l 257
 -271 0 l 257
-271 0 m 257
 -315.04 -121 l 257
 226.96 -121 l 257
 271 0 l 257
 -271 0 l 257
EndSplineSet
EndChar

StartChar: uni0331
Encoding: 817 817 360
GlifName: uni0331
Width: 0
VWidth: 0
GlyphClass: 2
Flags: W
AnchorPoint: "base" 4 -163 mark 0
LayerCount: 2
Fore
SplineSet
-341.875 -170 m 257
 -370.265 -248 l 257
 189.735 -248 l 257
 218.125 -170 l 257
 -341.875 -170 l 257
EndSplineSet
EndChar

StartChar: uni0900
Encoding: 2304 2304 361
GlifName: uni0900
Width: 0
VWidth: 0
GlyphClass: 2
Flags: W
LayerCount: 2
Fore
SplineSet
887.073 2124 m 257
 710.547 1639 l 257
 908.547 1639 l 257
 1085.07 2124 l 257
 887.073 2124 l 257
933.801 2126 m 257
 860.643 1925 l 257
 2494.64 1925 l 257
 2567.8 2126 l 257
 933.801 2126 l 257
1092.8 1865 m 257
 1020.01 1665 l 257
 2220.01 1665 l 257
 2292.8 1865 l 257
 1092.8 1865 l 257
2492.17 2127 m 257
 2313.46 1636 l 257
 2513.46 1636 l 257
 2692.17 2127 l 257
 2492.17 2127 l 257
EndSplineSet
EndChar

StartChar: uni0901
Encoding: 2305 2305 362
GlifName: uni0901
Width: 0
VWidth: 0
GlyphClass: 2
Flags: W
LayerCount: 2
Fore
SplineSet
927.073 2124 m 257
 750.547 1639 l 257
 950.547 1639 l 257
 1127.07 2124 l 257
 927.073 2124 l 257
870.434 1842 m 257
 797.275 1641 l 257
 2431.28 1641 l 257
 2504.43 1842 l 257
 870.434 1842 l 257
1218.52 2095 m 257
 1145.72 1895 l 257
 2345.72 1895 l 257
 2418.52 2095 l 257
 1218.52 2095 l 257
2533.98 2132 m 257
 2355.28 1641 l 257
 2555.28 1641 l 257
 2733.98 2132 l 257
 2533.98 2132 l 257
EndSplineSet
EndChar

StartChar: uni0902
Encoding: 2306 2306 363
GlifName: uni0902
Width: 0
VWidth: 0
GlyphClass: 2
Flags: W
LayerCount: 2
Fore
SplineSet
762.341 1839 m 257
 689.547 1639 l 257
 889.547 1639 l 257
 962.341 1839 l 257
 762.341 1839 l 257
EndSplineSet
EndChar

StartChar: uni0903
Encoding: 2307 2307 364
GlifName: uni0903
Width: 2048
VWidth: 0
GlyphClass: 2
Flags: W
LayerCount: 2
Fore
SplineSet
1160.22 649 m 257
 1087.42 449 l 257
 1287.42 449 l 257
 1360.22 649 l 257
 1160.22 649 l 257
1403.35 1317 m 257
 1330.55 1117 l 257
 1530.55 1117 l 257
 1603.35 1317 l 257
 1403.35 1317 l 257
EndSplineSet
EndChar

StartChar: uni0904
Encoding: 2308 2308 365
GlifName: uni0904
Width: 2048
VWidth: 0
GlyphClass: 2
Flags: W
LayerCount: 2
Fore
SplineSet
1550.36 2155 m 257
 1434.25 1836 l 257
 1632.25 1836 l 257
 1748.36 2155 l 257
 1550.36 2155 l 257
1479.93 1967 m 257
 1407.5 1768 l 257
 2579.5 1768 l 257
 2651.93 1967 l 257
 1479.93 1967 l 257
2447.93 1956 m 257
 2287.78 1516 l 257
 2489.78 1516 l 257
 2649.93 1956 l 257
 2447.93 1956 l 257
2267.43 1548 m 257
 2194.63 1348 l 257
 2541.63 1348 l 257
 2614.43 1548 l 257
 2267.43 1548 l 257
2280.47 1419 m 257
 1764 0 l 257
 1964 0 l 257
 2480.47 1419 l 257
 2280.47 1419 l 257
601.426 1548 m 257
 528.632 1348 l 257
 1562.63 1348 l 257
 1635.43 1548 l 257
 601.426 1548 l 257
1461.43 1548 m 257
 948.956 140 l 257
 1148.96 140 l 257
 1661.43 1548 l 257
 1461.43 1548 l 257
447.39 894 m 257
 374.231 693 l 257
 2070.23 693 l 257
 2143.39 894 l 257
 447.39 894 l 257
85.1582 201 m 257
 12 0 l 257
 1098 0 l 257
 1171.16 201 l 257
 85.1582 201 l 257
EndSplineSet
EndChar

StartChar: uni0905
Encoding: 2309 2309 366
GlifName: uni0905
Width: 2048
VWidth: 0
GlyphClass: 2
Flags: W
LayerCount: 2
Fore
SplineSet
2234.43 1548 m 257
 2161.27 1347 l 257
 2540.27 1347 l 257
 2613.43 1548 l 257
 2234.43 1548 l 257
2316.47 1419 m 257
 1800 0 l 257
 1998 0 l 257
 2514.47 1419 l 257
 2316.47 1419 l 257
601.426 1548 m 257
 528.632 1348 l 257
 1562.63 1348 l 257
 1635.43 1548 l 257
 601.426 1548 l 257
1461.43 1548 m 257
 948.956 140 l 257
 1148.96 140 l 257
 1661.43 1548 l 257
 1461.43 1548 l 257
447.39 894 m 257
 374.231 693 l 257
 2106.23 693 l 257
 2179.39 894 l 257
 447.39 894 l 257
85.1582 201 m 257
 12 0 l 257
 1098 0 l 257
 1171.16 201 l 257
 85.1582 201 l 257
EndSplineSet
EndChar

StartChar: uni0906
Encoding: 2310 2310 367
GlifName: uni0906
Width: 2048
VWidth: 0
GlyphClass: 2
Flags: W
LayerCount: 2
Fore
SplineSet
1891.43 1548 m 257
 1818.63 1348 l 257
 2540.63 1348 l 257
 2613.43 1548 l 257
 1891.43 1548 l 257
1860.47 1419 m 257
 1344 0 l 257
 1543 0 l 257
 2059.47 1419 l 257
 1860.47 1419 l 257
588.426 1548 m 257
 515.632 1348 l 257
 1387.63 1348 l 257
 1460.43 1548 l 257
 588.426 1548 l 257
1286.43 1548 m 257
 773.956 140 l 257
 973.956 140 l 257
 1486.43 1548 l 257
 1286.43 1548 l 257
434.39 894 m 257
 361.231 693 l 257
 1695.23 693 l 257
 1768.39 894 l 257
 434.39 894 l 257
73.1582 201 m 257
 0 0 l 257
 923 0 l 257
 996.158 201 l 257
 73.1582 201 l 257
2278.84 1420 m 257
 1762 0 l 257
 1961 0 l 257
 2477.84 1420 l 257
 2278.84 1420 l 257
EndSplineSet
EndChar

StartChar: uni0907
Encoding: 2311 2311 368
GlifName: uni0907
Width: 2048
VWidth: 0
GlyphClass: 2
Flags: W
LayerCount: 2
Fore
SplineSet
557.426 1548 m 257
 484.996 1349 l 257
 2545 1349 l 257
 2617.43 1548 l 257
 557.426 1548 l 257
1623.42 1537 m 257
 1468.01 1110 l 257
 1668.01 1110 l 257
 1823.42 1537 l 257
 1623.42 1537 l 257
609.584 1205 m 257
 536.426 1004 l 257
 1629.43 1004 l 257
 1702.58 1205 l 257
 609.584 1205 l 257
600.849 1181 m 257
 439.61 738 l 257
 609.61 738 l 257
 770.849 1181 l 257
 600.849 1181 l 257
491.658 881 m 257
 418.863 681 l 257
 1525.86 681 l 257
 1598.66 881 l 257
 491.658 881 l 257
1477.66 881 m 257
 1252.36 262 l 257
 1451.36 262 l 257
 1676.66 881 l 257
 1477.66 881 l 257
257.463 298 m 257
 184.305 97 l 257
 1391.3 97 l 257
 1464.46 298 l 257
 257.463 298 l 257
373.463 298 m 257
 176.191 -244 l 257
 376.191 -244 l 257
 573.463 298 l 257
 373.463 298 l 257
EndSplineSet
EndChar

StartChar: uni0908
Encoding: 2312 2312 369
GlifName: uni0908
Width: 2048
VWidth: 0
GlyphClass: 2
Flags: W
LayerCount: 2
Fore
SplineSet
560.338 1556 m 257
 487.18 1355 l 257
 2547.18 1355 l 257
 2620.34 1556 l 257
 560.338 1556 l 257
1629.25 1553 m 257
 1468.01 1110 l 257
 1668.01 1110 l 257
 1829.25 1553 l 257
 1629.25 1553 l 257
609.584 1205 m 257
 536.426 1004 l 257
 1629.43 1004 l 257
 1702.58 1205 l 257
 609.584 1205 l 257
600.849 1181 m 257
 439.61 738 l 257
 639.61 738 l 257
 800.849 1181 l 257
 600.849 1181 l 257
491.658 881 m 257
 418.863 681 l 257
 1525.86 681 l 257
 1598.66 881 l 257
 491.658 881 l 257
1495.66 881 m 257
 1278.73 285 l 257
 1459.73 285 l 257
 1676.66 881 l 257
 1495.66 881 l 257
257.463 298 m 257
 184.305 97 l 257
 1394.3 97 l 257
 1467.46 298 l 257
 257.463 298 l 257
373.463 298 m 257
 176.191 -244 l 257
 399.191 -244 l 257
 596.463 298 l 257
 373.463 298 l 257
918.228 1770 m 257
 1550.93 1423 l 257
 1755.42 1537 l 257
 1122.45 1886 l 257
 918.228 1770 l 257
EndSplineSet
EndChar

StartChar: uni0909
Encoding: 2313 2313 370
GlifName: uni0909
Width: 2048
VWidth: 0
GlyphClass: 2
Flags: W
LayerCount: 2
Fore
SplineSet
563.426 1548 m 257
 490.632 1348 l 257
 2540.63 1348 l 257
 2613.43 1548 l 257
 563.426 1548 l 257
1450.87 1530 m 257
 1258.33 1001 l 257
 1457.33 1001 l 257
 1649.87 1530 l 257
 1450.87 1530 l 257
616.985 1044 m 257
 544.555 845 l 257
 1898.55 845 l 257
 1970.99 1044 l 257
 616.985 1044 l 257
1753.79 994 m 257
 1394.91 8 l 257
 1594.91 8 l 257
 1953.79 994 l 257
 1753.79 994 l 257
205.158 201 m 257
 132 0 l 257
 1581 0 l 257
 1654.16 201 l 257
 205.158 201 l 257
264.121 363 m 257
 145.103 36 l 257
 345.103 36 l 257
 464.121 363 l 257
 264.121 363 l 257
EndSplineSet
EndChar

StartChar: uni090A
Encoding: 2314 2314 371
GlifName: uni090A_
Width: 2048
VWidth: 0
GlyphClass: 2
Flags: W
LayerCount: 2
Fore
SplineSet
557.426 1548 m 257
 484.268 1347 l 257
 2545.27 1347 l 257
 2618.43 1548 l 257
 557.426 1548 l 257
1374.87 1530 m 257
 1182.33 1001 l 257
 1380.33 1001 l 257
 1572.87 1530 l 257
 1374.87 1530 l 257
527.985 1044 m 257
 455.555 845 l 257
 2179.55 845 l 257
 2251.99 1044 l 257
 527.985 1044 l 257
1545.79 994 m 257
 1188 11 l 257
 1388 11 l 257
 1745.79 994 l 257
 1545.79 994 l 257
118.25 204 m 257
 45.8203 5 l 257
 1383.82 5 l 257
 1456.25 204 l 257
 118.25 204 l 257
177.213 366 m 257
 58.1953 39 l 257
 258.195 39 l 257
 377.213 366 l 257
 177.213 366 l 257
2016.32 946 m 257
 1750.98 217 l 257
 1950.98 217 l 257
 2216.32 946 l 257
 2016.32 946 l 257
EndSplineSet
EndChar

StartChar: uni090B
Encoding: 2315 2315 372
GlifName: uni090B_
Width: 2048
VWidth: 0
GlyphClass: 2
Flags: W
LayerCount: 2
Fore
SplineSet
563.426 1548 m 257
 490.268 1347 l 257
 2543.27 1347 l 257
 2616.43 1548 l 257
 563.426 1548 l 257
1577.42 1537 m 257
 1018 0 l 257
 1217 0 l 257
 1776.42 1537 l 257
 1577.42 1537 l 257
407.985 1044 m 257
 335.555 845 l 257
 639.555 845 l 257
 711.985 1044 l 257
 407.985 1044 l 257
1197.53 496 m 257
 243.746 329 l 257
 255.5 136 l 257
 1209.28 303 l 257
 1197.53 496 l 257
711.985 1044 m 257
 639.919 846 l 257
 1384.07 742 l 257
 1457.59 944 l 257
 711.985 1044 l 257
1527.48 897 m 257
 1455.42 699 l 257
 2270.42 699 l 257
 2342.48 897 l 257
 1527.48 897 l 257
2020.48 897 m 257
 1789.36 262 l 257
 1988.36 262 l 257
 2219.48 897 l 257
 2020.48 897 l 257
1938.88 464 m 257
 1866.09 264 l 257
 2130.09 264 l 257
 2202.88 464 l 257
 1938.88 464 l 257
EndSplineSet
EndChar

StartChar: uni090C
Encoding: 2316 2316 373
GlifName: uni090C_
Width: 2048
VWidth: 0
GlyphClass: 2
Flags: W
LayerCount: 2
Fore
SplineSet
555.426 1548 m 257
 482.632 1348 l 257
 2546.63 1348 l 257
 2619.43 1548 l 257
 555.426 1548 l 257
1628.43 1548 m 257
 1315.78 689 l 257
 1515.78 689 l 257
 1828.43 1548 l 257
 1628.43 1548 l 257
2051.9 791 m 257
 337.9 791 l 257
 264.742 590 l 257
 1978.74 590 l 257
 2051.9 791 l 257
332.805 777 m 257
 141.721 252 l 257
 342.721 252 l 257
 533.805 777 l 257
 332.805 777 l 257
988.9 791 m 257
 858.599 433 l 257
 1059.6 433 l 257
 1189.9 791 l 257
 988.9 791 l 257
1841.26 792 m 257
 1579.57 73 l 257
 1779.57 73 l 257
 2041.26 792 l 257
 1841.26 792 l 257
1722.27 259 m 257
 1653.84 71 l 257
 2079.84 71 l 257
 2148.27 259 l 257
 1722.27 259 l 257
EndSplineSet
EndChar

StartChar: uni090D
Encoding: 2317 2317 374
GlifName: uni090D_
Width: 2048
VWidth: 0
GlyphClass: 2
Flags: W
LayerCount: 2
Fore
SplineSet
558.426 1548 m 257
 485.632 1348 l 257
 2539.63 1348 l 257
 2612.43 1548 l 257
 558.426 1548 l 257
2311.43 1548 m 257
 2031.53 779 l 257
 2230.53 779 l 257
 2510.43 1548 l 257
 2311.43 1548 l 257
1494.37 839 m 257
 1421.58 639 l 257
 2179.58 639 l 257
 2252.37 839 l 257
 1494.37 839 l 257
703.242 1542 m 257
 265.021 338 l 257
 464.021 338 l 257
 902.242 1542 l 257
 703.242 1542 l 257
322.529 496 m 257
 250.1 297 l 257
 1232.1 297 l 257
 1304.53 496 l 257
 322.529 496 l 257
1055.3 358 m 257
 889.331 -98 l 257
 1088.33 -98 l 257
 1254.3 358 l 257
 1055.3 358 l 257
423.761 101 m 257
 351.331 -98 l 257
 1086.33 -98 l 257
 1158.76 101 l 257
 423.761 101 l 257
930.073 2124 m 257
 753.547 1639 l 257
 952.547 1639 l 257
 1129.07 2124 l 257
 930.073 2124 l 257
872.705 1840 m 257
 800.275 1641 l 257
 2413.28 1641 l 257
 2485.71 1840 l 257
 872.705 1840 l 257
2416.98 2132 m 257
 2238.28 1641 l 257
 2437.28 1641 l 257
 2615.98 2132 l 257
 2416.98 2132 l 257
EndSplineSet
EndChar

StartChar: uni090E
Encoding: 2318 2318 375
GlifName: uni090E_
Width: 2048
VWidth: 0
GlyphClass: 2
Flags: W
LayerCount: 2
Fore
SplineSet
558.426 1548 m 257
 485.632 1348 l 257
 2539.63 1348 l 257
 2612.43 1548 l 257
 558.426 1548 l 257
2311.43 1548 m 257
 1982.76 645 l 257
 2181.76 645 l 257
 2510.43 1548 l 257
 2311.43 1548 l 257
1528.55 845 m 257
 1455.76 645 l 257
 2181.76 645 l 257
 2254.55 845 l 257
 1528.55 845 l 257
703.242 1542 m 257
 265.021 338 l 257
 464.021 338 l 257
 902.242 1542 l 257
 703.242 1542 l 257
272.302 358 m 257
 199.871 159 l 257
 1174.87 159 l 257
 1247.3 358 l 257
 272.302 358 l 257
1053.3 358 m 257
 887.331 -98 l 257
 1088.33 -98 l 257
 1254.3 358 l 257
 1053.3 358 l 257
373.169 -38 m 257
 300.375 -238 l 257
 1035.38 -238 l 257
 1108.17 -38 l 257
 373.169 -38 l 257
1020.51 2062 m 257
 933.518 1823 l 257
 1133.52 1823 l 257
 1220.51 2062 l 257
 1020.51 2062 l 257
948.896 1868 m 257
 875.738 1667 l 257
 2577.74 1667 l 257
 2650.9 1868 l 257
 948.896 1868 l 257
2445.26 1858 m 257
 2328.42 1537 l 257
 2530.42 1537 l 257
 2647.26 1858 l 257
 2445.26 1858 l 257
EndSplineSet
EndChar

StartChar: uni090F
Encoding: 2319 2319 376
GlifName: uni090F_
Width: 2048
VWidth: 0
GlyphClass: 2
Flags: W
LayerCount: 2
Fore
SplineSet
573.426 1548 m 257
 500.632 1348 l 257
 2528.63 1348 l 257
 2601.43 1548 l 257
 573.426 1548 l 257
2299.43 1548 m 257
 2020.62 782 l 257
 2220.62 782 l 257
 2499.43 1548 l 257
 2299.43 1548 l 257
1998.33 979 m 257
 1925.53 779 l 257
 2219.53 779 l 257
 2292.33 979 l 257
 1998.33 979 l 257
711.242 1542 m 257
 273.021 338 l 257
 473.021 338 l 257
 911.242 1542 l 257
 711.242 1542 l 257
330.894 497 m 257
 258.1 297 l 257
 1358.1 297 l 257
 1430.89 497 l 257
 330.894 497 l 257
1228.16 473 m 257
 1020.33 -98 l 257
 1220.33 -98 l 257
 1428.16 473 l 257
 1228.16 473 l 257
431.125 102 m 257
 358.331 -98 l 257
 1218.33 -98 l 257
 1291.12 102 l 257
 431.125 102 l 257
EndSplineSet
EndChar

StartChar: uni0910
Encoding: 2320 2320 377
GlifName: uni0910
Width: 2048
VWidth: 0
GlyphClass: 2
Flags: W
LayerCount: 2
Fore
SplineSet
563.426 1548 m 257
 490.632 1348 l 257
 2536.63 1348 l 257
 2609.43 1548 l 257
 563.426 1548 l 257
2307.43 1548 m 257
 2027.53 779 l 257
 2227.53 779 l 257
 2507.43 1548 l 257
 2307.43 1548 l 257
2008.33 979 m 257
 1935.53 779 l 257
 2227.53 779 l 257
 2300.33 979 l 257
 2008.33 979 l 257
697.242 1542 m 257
 259.021 338 l 257
 459.021 338 l 257
 897.242 1542 l 257
 697.242 1542 l 257
316.894 497 m 257
 244.1 297 l 257
 1344.1 297 l 257
 1416.89 497 l 257
 316.894 497 l 257
1216.16 473 m 257
 1008.33 -98 l 257
 1208.33 -98 l 257
 1416.16 473 l 257
 1216.16 473 l 257
419.125 102 m 257
 346.331 -98 l 257
 1206.33 -98 l 257
 1279.12 102 l 257
 419.125 102 l 257
1125.36 1883 m 257
 2299.57 1433 l 257
 2505.43 1548 l 257
 1331.21 1998 l 257
 1125.36 1883 l 257
EndSplineSet
EndChar

StartChar: uni0911
Encoding: 2321 2321 378
GlifName: uni0911
Width: 2048
VWidth: 0
GlyphClass: 2
Flags: W
LayerCount: 2
Fore
SplineSet
1894.43 1548 m 257
 1821.63 1348 l 257
 2538.63 1348 l 257
 2611.43 1548 l 257
 1894.43 1548 l 257
1860.47 1419 m 257
 1344 0 l 257
 1544 0 l 257
 2060.47 1419 l 257
 1860.47 1419 l 257
589.426 1548 m 257
 516.632 1348 l 257
 1388.63 1348 l 257
 1461.43 1548 l 257
 589.426 1548 l 257
1287.43 1548 m 257
 774.956 140 l 257
 974.956 140 l 257
 1487.43 1548 l 257
 1287.43 1548 l 257
435.39 894 m 257
 362.231 693 l 257
 1696.23 693 l 257
 1769.39 894 l 257
 435.39 894 l 257
73.1582 201 m 257
 0 0 l 257
 924 0 l 257
 997.158 201 l 257
 73.1582 201 l 257
2352.84 1420 m 257
 1836 0 l 257
 2034 0 l 257
 2550.84 1420 l 257
 2352.84 1420 l 257
2084.88 2085 m 257
 1922.55 1639 l 257
 2122.55 1639 l 257
 2284.88 2085 l 257
 2084.88 2085 l 257
2002.43 1842 m 257
 1929.28 1641 l 257
 2645.28 1641 l 257
 2718.43 1842 l 257
 2002.43 1842 l 257
2606.15 2083 m 257
 2445.28 1641 l 257
 2645.28 1641 l 257
 2806.15 2083 l 257
 2606.15 2083 l 257
EndSplineSet
EndChar

StartChar: uni0912
Encoding: 2322 2322 379
GlifName: uni0912
Width: 2048
VWidth: 0
GlyphClass: 2
Flags: W
LayerCount: 2
Fore
SplineSet
1891.43 1548 m 257
 1818.63 1348 l 257
 2538.63 1348 l 257
 2611.43 1548 l 257
 1891.43 1548 l 257
1865.47 1419 m 257
 1349 0 l 257
 1548 0 l 257
 2064.47 1419 l 257
 1865.47 1419 l 257
588.426 1548 m 257
 515.632 1348 l 257
 1387.63 1348 l 257
 1460.43 1548 l 257
 588.426 1548 l 257
1286.43 1548 m 257
 773.956 140 l 257
 973.956 140 l 257
 1486.43 1548 l 257
 1286.43 1548 l 257
434.39 894 m 257
 361.231 693 l 257
 1695.23 693 l 257
 1768.39 894 l 257
 434.39 894 l 257
73.1582 201 m 257
 0 0 l 257
 923 0 l 257
 996.158 201 l 257
 73.1582 201 l 257
2359.84 1420 m 257
 1843 0 l 257
 2042 0 l 257
 2558.84 1420 l 257
 2359.84 1420 l 257
1850.36 2155 m 257
 1734.25 1836 l 257
 1932.25 1836 l 257
 2048.36 2155 l 257
 1850.36 2155 l 257
1780.93 1967 m 257
 1708.5 1768 l 257
 2623.5 1768 l 257
 2695.93 1967 l 257
 1780.93 1967 l 257
2492.93 1956 m 257
 2332.78 1516 l 257
 2533.78 1516 l 257
 2693.93 1956 l 257
 2492.93 1956 l 257
EndSplineSet
EndChar

StartChar: uni0913
Encoding: 2323 2323 380
GlifName: uni0913
Width: 2048
VWidth: 0
GlyphClass: 2
Flags: W
LayerCount: 2
Fore
SplineSet
1907.43 1548 m 257
 1834.63 1348 l 257
 2522.63 1348 l 257
 2595.43 1548 l 257
 1907.43 1548 l 257
1876.47 1419 m 257
 1360 0 l 257
 1559 0 l 257
 2075.47 1419 l 257
 1876.47 1419 l 257
604.426 1548 m 257
 531.632 1348 l 257
 1391.63 1348 l 257
 1464.43 1548 l 257
 604.426 1548 l 257
1290.43 1548 m 257
 777.956 140 l 257
 977.956 140 l 257
 1490.43 1548 l 257
 1290.43 1548 l 257
450.39 894 m 257
 377.231 693 l 257
 1711.23 693 l 257
 1784.39 894 l 257
 450.39 894 l 257
89.1582 201 m 257
 16 0 l 257
 927 0 l 257
 1000.16 201 l 257
 89.1582 201 l 257
2344.93 1423 m 257
 1828.82 5 l 257
 2027.82 5 l 257
 2543.93 1423 l 257
 2344.93 1423 l 257
2098.5 1768 m 257
 2346.67 1458 l 257
 2557.43 1548 l 257
 2309.35 1861 l 257
 2098.5 1768 l 257
EndSplineSet
EndChar

StartChar: uni0914
Encoding: 2324 2324 381
GlifName: uni0914
Width: 2048
VWidth: 0
GlyphClass: 2
Flags: W
LayerCount: 2
Fore
SplineSet
1907.43 1548 m 257
 1832.81 1343 l 257
 2520.81 1343 l 257
 2595.43 1548 l 257
 1907.43 1548 l 257
1876.47 1419 m 257
 1360 0 l 257
 1559 0 l 257
 2075.47 1419 l 257
 1876.47 1419 l 257
604.426 1548 m 257
 531.632 1348 l 257
 1391.63 1348 l 257
 1464.43 1548 l 257
 604.426 1548 l 257
1290.43 1548 m 257
 777.956 140 l 257
 977.956 140 l 257
 1490.43 1548 l 257
 1290.43 1548 l 257
450.39 894 m 257
 377.231 693 l 257
 1711.23 693 l 257
 1784.39 894 l 257
 450.39 894 l 257
89.1582 201 m 257
 16 0 l 257
 927 0 l 257
 1000.16 201 l 257
 89.1582 201 l 257
2343.84 1420 m 257
 1827 0 l 257
 2026 0 l 257
 2542.84 1420 l 257
 2343.84 1420 l 257
1791.95 1750 m 257
 1989.33 1523 l 257
 2320.33 1523 l 257
 1983.64 1903 l 257
 1791.95 1750 l 257
2453.38 1949 m 257
 2360.96 1522 l 257
 2582.43 1548 l 257
 2664.57 1988 l 257
 2453.38 1949 l 257
EndSplineSet
EndChar

StartChar: uni0915
Encoding: 2325 2325 382
GlifName: uni0915
Width: 2048
VWidth: 0
GlyphClass: 2
Flags: W
LayerCount: 2
Fore
SplineSet
568.426 1548 m 257
 493.812 1343 l 257
 2531.81 1343 l 257
 2606.43 1548 l 257
 568.426 1548 l 257
1659.78 1516 m 257
 1111.64 10 l 257
 1313.64 10 l 257
 1861.78 1516 l 257
 1659.78 1516 l 257
511.525 1029 m 257
 438.731 829 l 257
 1325.73 829 l 257
 1398.53 1029 l 257
 511.525 1029 l 257
511.525 1029 m 257
 285.5 408 l 257
 451.5 408 l 257
 677.525 1029 l 257
 511.525 1029 l 257
374.838 604 m 257
 300.952 401 l 257
 1307.95 401 l 257
 1381.84 604 l 257
 374.838 604 l 257
1558.68 947 m 257
 1485.52 746 l 257
 2221.52 746 l 257
 2294.68 947 l 257
 1558.68 947 l 257
2070.93 879 m 257
 1964.65 587 l 257
 2163.65 587 l 257
 2269.93 879 l 257
 2070.93 879 l 257
EndSplineSet
EndChar

StartChar: uni0915_uni0930_uni094D.vatu
Encoding: 65537 -1 383
GlifName: uni0915_uni0930_uni094D_.vatu
Width: 2048
VWidth: 0
GlyphClass: 2
Flags: W
LayerCount: 2
Fore
SplineSet
568.426 1548 m 257
 493.812 1343 l 257
 2531.81 1343 l 257
 2606.43 1548 l 257
 568.426 1548 l 257
1659.78 1516 m 257
 1111.64 10 l 257
 1313.64 10 l 257
 1861.78 1516 l 257
 1659.78 1516 l 257
511.525 1029 m 257
 438.731 829 l 257
 1316.73 829 l 257
 1389.53 1029 l 257
 511.525 1029 l 257
496.967 989 m 257
 298.239 443 l 257
 464.239 443 l 257
 662.967 989 l 257
 496.967 989 l 257
351.838 604 m 257
 277.952 401 l 257
 1307.95 401 l 257
 1381.84 604 l 257
 351.838 604 l 257
1558.68 947 m 257
 1485.52 746 l 257
 2221.52 746 l 257
 2294.68 947 l 257
 1558.68 947 l 257
2070.93 879 m 257
 1964.65 587 l 257
 2163.65 587 l 257
 2269.93 879 l 257
 2070.93 879 l 257
52 0 m 257
 476 0 l 257
 1322.77 134 l 257
 1395.93 335 l 257
 52 0 l 257
EndSplineSet
Ligature2: "rkrfRakarVariantsinDevanagari2lookup0 subtable" uni0915 uni0930_uni094D.blwf
EndChar

StartChar: uni0915_uni094D.half
Encoding: 65538 -1 384
GlifName: uni0915_uni094D_.half
Width: 2048
VWidth: 0
GlyphClass: 2
Flags: W
LayerCount: 2
Fore
SplineSet
568.426 1548 m 257
 493.812 1343 l 257
 2531.81 1343 l 257
 2606.43 1548 l 257
 568.426 1548 l 257
1659.78 1516 m 257
 1111.64 10 l 257
 1313.64 10 l 257
 1861.78 1516 l 257
 1659.78 1516 l 257
511.525 1029 m 257
 438.731 829 l 257
 1315.73 829 l 257
 1388.53 1029 l 257
 511.525 1029 l 257
496.967 989 m 257
 298.239 443 l 257
 464.239 443 l 257
 662.967 989 l 257
 496.967 989 l 257
374.838 604 m 257
 300.952 401 l 257
 1307.95 401 l 257
 1381.84 604 l 257
 374.838 604 l 257
1546.68 947 m 257
 1473.52 746 l 257
 2361.52 746 l 257
 2434.68 947 l 257
 1546.68 947 l 257
EndSplineSet
Ligature2: "halfHalfFormsinDevanagari2lookup0 subtable" uni0915 uni094D
EndChar

StartChar: uni0915_uni094D.haln
Encoding: 65539 -1 385
GlifName: uni0915_uni094D_.haln
Width: 2048
VWidth: 0
GlyphClass: 2
Flags: W
LayerCount: 2
Fore
SplineSet
1131.85 1548 m 257
 982.624 1343 l 257
 3020.62 1343 l 257
 3169.85 1548 l 257
 1131.85 1548 l 257
2211.56 1516 m 257
 1115.28 10 l 257
 1317.28 10 l 257
 2413.56 1516 l 257
 2211.56 1516 l 257
886.051 1029 m 257
 740.463 829 l 257
 1627.46 829 l 257
 1773.05 1029 l 257
 886.051 1029 l 257
886.051 1029 m 257
 434 408 l 257
 600 408 l 257
 1052.05 1029 l 257
 886.051 1029 l 257
594.676 604 m 257
 446.904 401 l 257
 1453.9 401 l 257
 1601.68 604 l 257
 594.676 604 l 257
1903.36 947 m 257
 1757.04 746 l 257
 2493.04 746 l 257
 2639.36 947 l 257
 1903.36 947 l 257
2390.86 879 m 257
 2178.3 587 l 257
 2377.3 587 l 257
 2589.86 879 l 257
 2390.86 879 l 257
954.984 -22 m 257
 812.309 -218 l 257
 1169.31 -218 l 257
 1311.98 -22 l 257
 954.984 -22 l 257
1053.79 -183 m 257
 1228.97 -588 l 257
 1491.62 -425 l 257
 1314.71 -21 l 257
 1053.79 -183 l 257
EndSplineSet
Ligature2: "halnHalantFormsinDevanagari2lookup0 subtable" uni0915 uni094D
EndChar

StartChar: uni0915_uni094D_uni0937.akhn
Encoding: 65540 -1 386
GlifName: uni0915_uni094D__uni0937.akhn
Width: 2048
VWidth: 0
GlyphClass: 2
Flags: W
LayerCount: 2
Fore
SplineSet
2252.43 1548 m 257
 2180.72 1351 l 257
 2539.72 1351 l 257
 2611.43 1548 l 257
 2252.43 1548 l 257
2295.96 1511 m 257
 1746 0 l 257
 1945 0 l 257
 2494.96 1511 l 257
 2295.96 1511 l 257
440.36 1078 m 257
 367.565 878 l 257
 2264.57 878 l 257
 2337.36 1078 l 257
 440.36 1078 l 257
419.342 1023 m 257
 620.342 1023 l 257
 765.565 1422 l 257
 564.565 1422 l 257
 419.342 1023 l 257
570.297 1435 m 257
 497.503 1235 l 257
 1528.5 1235 l 257
 1601.3 1435 l 257
 570.297 1435 l 257
1397.57 1422 m 257
 1201.02 882 l 257
 1399.02 882 l 257
 1595.57 1422 l 257
 1397.57 1422 l 257
389.121 635 m 257
 586.121 635 l 257
 1397.29 880 l 257
 1199.29 880 l 257
 389.121 635 l 257
389.121 635 m 257
 230.794 200 l 257
 429.794 200 l 257
 588.121 635 l 257
 389.121 635 l 257
291.577 367 m 257
 218.419 166 l 257
 1966.42 166 l 257
 2039.58 367 l 257
 291.577 367 l 257
EndSplineSet
Ligature2: "akhnAkhandinDevanagari2lookup0 subtable" uni0915 uni094D uni0937
EndChar

StartChar: uni0915_uni094D_uni0937.half
Encoding: 65541 -1 387
GlifName: uni0915_uni094D__uni0937.half
Width: 2048
VWidth: 0
GlyphClass: 2
Flags: W
LayerCount: 2
Fore
SplineSet
2252.43 1548 m 257
 2180.72 1351 l 257
 2539.72 1351 l 257
 2611.43 1548 l 257
 2252.43 1548 l 257
440.36 1078 m 257
 367.565 878 l 257
 2384.57 878 l 257
 2457.36 1078 l 257
 440.36 1078 l 257
419.342 1023 m 257
 620.342 1023 l 257
 765.565 1422 l 257
 564.565 1422 l 257
 419.342 1023 l 257
570.297 1435 m 257
 497.503 1235 l 257
 1528.5 1235 l 257
 1601.3 1435 l 257
 570.297 1435 l 257
1397.57 1422 m 257
 1201.02 882 l 257
 1399.02 882 l 257
 1595.57 1422 l 257
 1397.57 1422 l 257
389.121 635 m 257
 586.121 635 l 257
 1397.29 880 l 257
 1199.29 880 l 257
 389.121 635 l 257
389.121 635 m 257
 230.794 200 l 257
 429.794 200 l 257
 588.121 635 l 257
 389.121 635 l 257
291.577 367 m 257
 218.419 166 l 257
 2086.42 166 l 257
 2159.58 367 l 257
 291.577 367 l 257
EndSplineSet
Ligature2: "halfHalfFormsinDevanagari2lookup0 subtable" uni0915_uni094D_uni0937.akhn uni094D
EndChar

StartChar: uni0915_uni094D_uni0937_uni094D
Encoding: 65542 -1 388
GlifName: uni0915_uni094D__uni0937_uni094D_
Width: 2048
VWidth: 0
GlyphClass: 2
Flags: W
LayerCount: 2
Fore
SplineSet
2815.85 1548 m 257
 2672.45 1351 l 257
 3031.45 1351 l 257
 3174.85 1548 l 257
 2815.85 1548 l 257
2845.92 1511 m 257
 1746 0 l 257
 1945 0 l 257
 3044.92 1511 l 257
 2845.92 1511 l 257
832.72 1078 m 257
 687.131 878 l 257
 2584.13 878 l 257
 2729.72 1078 l 257
 832.72 1078 l 257
791.684 1023 m 257
 992.684 1023 l 257
 1283.13 1422 l 257
 1082.13 1422 l 257
 791.684 1023 l 257
1092.59 1435 m 257
 947.006 1235 l 257
 1978.01 1235 l 257
 2123.59 1435 l 257
 1092.59 1435 l 257
1915.13 1422 m 257
 1522.04 882 l 257
 1720.04 882 l 257
 2113.13 1422 l 257
 1915.13 1422 l 257
620.242 635 m 257
 817.242 635 l 257
 1717.59 880 l 257
 1519.59 880 l 257
 620.242 635 l 257
620.242 635 m 257
 303.588 200 l 257
 502.588 200 l 257
 819.242 635 l 257
 620.242 635 l 257
425.154 367 m 257
 278.838 166 l 257
 2026.84 166 l 257
 2173.15 367 l 257
 425.154 367 l 257
1454.98 -22 m 257
 1312.31 -218 l 257
 1669.31 -218 l 257
 1811.98 -22 l 257
 1454.98 -22 l 257
1553.79 -183 m 257
 1728.97 -588 l 257
 1991.62 -425 l 257
 1814.71 -21 l 257
 1553.79 -183 l 257
EndSplineSet
Ligature2: "halnHalantFormsinDevanagari2lookup0 subtable" uni0915_uni094D_uni0937.akhn uni094D
EndChar

StartChar: uni0916
Encoding: 2326 2326 389
GlifName: uni0916
Width: 2048
VWidth: 0
GlyphClass: 2
Flags: W
LayerCount: 2
Fore
SplineSet
563.426 1548 m 257
 490.996 1349 l 257
 2543 1349 l 257
 2615.43 1548 l 257
 563.426 1548 l 257
2271.05 1514 m 257
 1720 0 l 257
 1920 0 l 257
 2471.05 1514 l 257
 2271.05 1514 l 257
1389.33 979 m 257
 1316.53 779 l 257
 1744.53 779 l 257
 1817.33 979 l 257
 1389.33 979 l 257
1359.33 979 m 257
 1169.33 457 l 257
 1369.33 457 l 257
 1559.33 979 l 257
 1359.33 979 l 257
1209.74 568 m 257
 1136.94 368 l 257
 1905.94 368 l 257
 1978.74 568 l 257
 1209.74 568 l 257
842.481 1441 m 257
 361.677 120 l 257
 561.677 120 l 257
 1042.48 1441 l 257
 842.481 1441 l 257
280.154 734 m 257
 207.36 534 l 257
 711.36 534 l 257
 784.154 734 l 257
 280.154 734 l 257
415.271 270 m 257
 342.478 70 l 257
 1882.48 70 l 257
 1955.27 270 l 257
 415.271 270 l 257
EndSplineSet
EndChar

StartChar: uni0916_uni0930_uni094D.vatu
Encoding: 65543 -1 390
GlifName: uni0916_uni0930_uni094D_.vatu
Width: 2048
VWidth: 0
GlyphClass: 2
Flags: W
LayerCount: 2
Fore
SplineSet
52 0 m 257
 476 0 l 257
 1856.25 215 l 257
 1929.41 416 l 257
 52 0 l 257
563.426 1548 m 257
 490.996 1349 l 257
 2543 1349 l 257
 2615.43 1548 l 257
 563.426 1548 l 257
2271.05 1514 m 257
 1720 0 l 257
 1920 0 l 257
 2471.05 1514 l 257
 2271.05 1514 l 257
1498.52 1279 m 257
 1425.72 1079 l 257
 1853.72 1079 l 257
 1926.52 1279 l 257
 1498.52 1279 l 257
1468.52 1279 m 257
 1278.53 757 l 257
 1478.53 757 l 257
 1668.52 1279 l 257
 1468.52 1279 l 257
1318.93 868 m 257
 1246.13 668 l 257
 2015.13 668 l 257
 2087.93 868 l 257
 1318.93 868 l 257
842.481 1441 m 257
 470.867 420 l 257
 670.867 420 l 257
 1042.48 1441 l 257
 842.481 1441 l 257
389.346 1034 m 257
 316.551 834 l 257
 820.551 834 l 257
 893.346 1034 l 257
 389.346 1034 l 257
524.463 570 m 257
 451.669 370 l 257
 1991.67 370 l 257
 2064.46 570 l 257
 524.463 570 l 257
EndSplineSet
Ligature2: "rkrfRakarVariantsinDevanagari2lookup0 subtable" uni0916 uni0930_uni094D.blwf
EndChar

StartChar: uni0916_uni094D.half
Encoding: 65544 -1 391
GlifName: uni0916_uni094D_.half
Width: 2048
VWidth: 0
GlyphClass: 2
Flags: W
LayerCount: 2
Fore
SplineSet
563.426 1548 m 257
 490.996 1349 l 257
 2543 1349 l 257
 2615.43 1548 l 257
 563.426 1548 l 257
1389.33 979 m 257
 1316.53 779 l 257
 1744.53 779 l 257
 1817.33 979 l 257
 1389.33 979 l 257
1359.33 979 m 257
 1169.33 457 l 257
 1369.33 457 l 257
 1559.33 979 l 257
 1359.33 979 l 257
1209.74 568 m 257
 1136.94 368 l 257
 2105.94 368 l 257
 2178.74 568 l 257
 1209.74 568 l 257
842.481 1441 m 257
 361.677 120 l 257
 561.677 120 l 257
 1042.48 1441 l 257
 842.481 1441 l 257
280.154 734 m 257
 207.36 534 l 257
 711.36 534 l 257
 784.154 734 l 257
 280.154 734 l 257
415.271 270 m 257
 342.478 70 l 257
 2082.48 70 l 257
 2155.27 270 l 257
 415.271 270 l 257
EndSplineSet
Ligature2: "halfHalfFormsinDevanagari2lookup0 subtable" uni0916 uni094D
EndChar

StartChar: uni0916_uni094D.haln
Encoding: 65545 -1 392
GlifName: uni0916_uni094D_.haln
Width: 2048
VWidth: 0
GlyphClass: 2
Flags: W
LayerCount: 2
Fore
SplineSet
1126.85 1548 m 257
 981.991 1349 l 257
 3033.99 1349 l 257
 3178.85 1548 l 257
 1126.85 1548 l 257
2822.1 1514 m 257
 1720 0 l 257
 1920 0 l 257
 3022.1 1514 l 257
 2822.1 1514 l 257
1745.65 979 m 257
 1600.07 779 l 257
 2028.07 779 l 257
 2173.65 979 l 257
 1745.65 979 l 257
1715.65 979 m 257
 1335.67 457 l 257
 1535.67 457 l 257
 1915.65 979 l 257
 1715.65 979 l 257
1416.47 568 m 257
 1270.88 368 l 257
 2039.88 368 l 257
 2185.47 568 l 257
 1416.47 568 l 257
1366.96 1441 m 257
 405.354 120 l 257
 605.354 120 l 257
 1566.96 1441 l 257
 1366.96 1441 l 257
547.309 734 m 257
 401.721 534 l 257
 905.721 534 l 257
 1051.31 734 l 257
 547.309 734 l 257
513.543 270 m 257
 367.955 70 l 257
 1907.96 70 l 257
 2053.54 270 l 257
 513.543 270 l 257
1478.98 -22 m 257
 1336.31 -218 l 257
 1693.31 -218 l 257
 1835.98 -22 l 257
 1478.98 -22 l 257
1577.79 -183 m 257
 1752.97 -588 l 257
 2015.62 -425 l 257
 1838.71 -21 l 257
 1577.79 -183 l 257
EndSplineSet
Ligature2: "halnHalantFormsinDevanagari2lookup0 subtable" uni0916 uni094D
EndChar

StartChar: uni0917
Encoding: 2327 2327 393
GlifName: uni0917
Width: 2048
VWidth: 0
GlyphClass: 2
Flags: W
LayerCount: 2
Fore
SplineSet
361.467 853 m 257
 560.467 853 l 257
 629.985 1044 l 257
 430.985 1044 l 257
 361.467 853 l 257
372.021 882 m 257
 299.592 683 l 257
 1287.59 683 l 257
 1360.02 882 l 257
 372.021 882 l 257
1403.43 1548 m 257
 1135.54 812 l 257
 1334.54 812 l 257
 1602.43 1548 l 257
 1403.43 1548 l 257
2560.43 1548 m 257
 773.426 1548 l 257
 700.632 1348 l 257
 2487.63 1348 l 257
 2560.43 1548 l 257
2271.33 1523 m 257
 1717 0 l 257
 1916 0 l 257
 2470.33 1523 l 257
 2271.33 1523 l 257
EndSplineSet
EndChar

StartChar: uni0917_uni0930_uni094D.vatu
Encoding: 65546 -1 394
GlifName: uni0917_uni0930_uni094D_.vatu
Width: 2048
VWidth: 0
GlyphClass: 2
Flags: W
LayerCount: 2
Fore
SplineSet
52 0 m 257
 476 0 l 257
 1856.25 215 l 257
 1929.41 416 l 257
 52 0 l 257
361.467 853 m 257
 560.467 853 l 257
 629.985 1044 l 257
 430.985 1044 l 257
 361.467 853 l 257
372.021 882 m 257
 299.592 683 l 257
 1287.59 683 l 257
 1360.02 882 l 257
 372.021 882 l 257
1403.43 1548 m 257
 1135.54 812 l 257
 1334.54 812 l 257
 1602.43 1548 l 257
 1403.43 1548 l 257
2560.43 1548 m 257
 773.426 1548 l 257
 700.632 1348 l 257
 2487.63 1348 l 257
 2560.43 1548 l 257
2271.33 1523 m 257
 1717 0 l 257
 1916 0 l 257
 2470.33 1523 l 257
 2271.33 1523 l 257
EndSplineSet
Ligature2: "rkrfRakarVariantsinDevanagari2lookup0 subtable" uni0917 uni0930_uni094D.blwf
EndChar

StartChar: uni0917_uni094D.half
Encoding: 65547 -1 395
GlifName: uni0917_uni094D_.half
Width: 2048
VWidth: 0
GlyphClass: 2
Flags: W
LayerCount: 2
Fore
SplineSet
361.467 853 m 257
 560.467 853 l 257
 629.985 1044 l 257
 430.985 1044 l 257
 361.467 853 l 257
372.021 882 m 257
 299.592 683 l 257
 1287.59 683 l 257
 1360.02 882 l 257
 372.021 882 l 257
1403.43 1548 m 257
 1135.54 812 l 257
 1334.54 812 l 257
 1602.43 1548 l 257
 1403.43 1548 l 257
2660.43 1548 m 257
 773.426 1548 l 257
 700.632 1348 l 257
 2587.63 1348 l 257
 2660.43 1548 l 257
EndSplineSet
Ligature2: "halfHalfFormsinDevanagari2lookup0 subtable" uni0917 uni094D
EndChar

StartChar: uni0917_uni094D.haln
Encoding: 65548 -1 396
GlifName: uni0917_uni094D_.haln
Width: 2048
VWidth: 0
GlyphClass: 2
Flags: W
LayerCount: 2
Fore
SplineSet
671.934 853 m 257
 870.934 853 l 257
 1009.97 1044 l 257
 810.97 1044 l 257
 671.934 853 l 257
693.043 882 m 257
 548.184 683 l 257
 1536.18 683 l 257
 1681.04 882 l 257
 693.043 882 l 257
1966.85 1548 m 257
 1431.09 812 l 257
 1630.09 812 l 257
 2165.85 1548 l 257
 1966.85 1548 l 257
3123.85 1548 m 257
 1336.85 1548 l 257
 1191.26 1348 l 257
 2978.26 1348 l 257
 3123.85 1548 l 257
2825.65 1523 m 257
 1717 0 l 257
 1916 0 l 257
 3024.65 1523 l 257
 2825.65 1523 l 257
1478.98 -22 m 257
 1336.31 -218 l 257
 1693.31 -218 l 257
 1835.98 -22 l 257
 1478.98 -22 l 257
1577.79 -183 m 257
 1752.97 -588 l 257
 2015.62 -425 l 257
 1838.71 -21 l 257
 1577.79 -183 l 257
EndSplineSet
Ligature2: "halnHalantFormsinDevanagari2lookup0 subtable" uni0917 uni094D
EndChar

StartChar: uni0918
Encoding: 2328 2328 397
GlifName: uni0918
Width: 2048
VWidth: 0
GlyphClass: 2
Flags: W
LayerCount: 2
Fore
SplineSet
565.609 1554 m 257
 492.815 1354 l 257
 2540.82 1354 l 257
 2613.61 1554 l 257
 565.609 1554 l 257
2279.96 1522 m 257
 1730.73 13 l 257
 1930.73 13 l 257
 2479.96 1522 l 257
 2279.96 1522 l 257
723.415 1515 m 257
 493.386 883 l 257
 693.386 883 l 257
 923.415 1515 l 257
 723.415 1515 l 257
599.761 917 m 257
 526.967 717 l 257
 1282.97 717 l 257
 1355.76 917 l 257
 599.761 917 l 257
348.702 469 m 257
 275.908 269 l 257
 1999.91 269 l 257
 2072.7 469 l 257
 348.702 469 l 257
269.908 269 m 257
 469.908 269 l 257
 650.073 764 l 257
 450.073 764 l 257
 269.908 269 l 257
EndSplineSet
EndChar

StartChar: uni0918_uni0930_uni094D.vatu
Encoding: 65549 -1 398
GlifName: uni0918_uni0930_uni094D_.vatu
Width: 2048
VWidth: 0
GlyphClass: 2
Flags: W
LayerCount: 2
Fore
SplineSet
52 0 m 257
 476 0 l 257
 1856.25 215 l 257
 1929.41 416 l 257
 52 0 l 257
565.609 1554 m 257
 492.815 1354 l 257
 2540.82 1354 l 257
 2613.61 1554 l 257
 565.609 1554 l 257
2279.96 1522 m 257
 1730.73 13 l 257
 1930.73 13 l 257
 2479.96 1522 l 257
 2279.96 1522 l 257
723.415 1515 m 257
 566.18 1083 l 257
 766.18 1083 l 257
 923.415 1515 l 257
 723.415 1515 l 257
672.555 1117 m 257
 599.761 917 l 257
 1355.76 917 l 257
 1428.55 1117 l 257
 672.555 1117 l 257
421.496 669 m 257
 348.702 469 l 257
 2072.7 469 l 257
 2145.5 669 l 257
 421.496 669 l 257
342.702 469 m 257
 542.702 469 l 257
 722.867 964 l 257
 522.867 964 l 257
 342.702 469 l 257
EndSplineSet
Ligature2: "rkrfRakarVariantsinDevanagari2lookup0 subtable" uni0918 uni0930_uni094D.blwf
EndChar

StartChar: uni0918_uni094D.half
Encoding: 65550 -1 399
GlifName: uni0918_uni094D_.half
Width: 2048
VWidth: 0
GlyphClass: 2
Flags: W
LayerCount: 2
Fore
SplineSet
565.609 1554 m 257
 492.815 1354 l 257
 2540.82 1354 l 257
 2613.61 1554 l 257
 565.609 1554 l 257
723.415 1515 m 257
 493.386 883 l 257
 693.386 883 l 257
 923.415 1515 l 257
 723.415 1515 l 257
599.761 917 m 257
 526.967 717 l 257
 1282.97 717 l 257
 1355.76 917 l 257
 599.761 917 l 257
348.702 469 m 257
 275.908 269 l 257
 2199.91 269 l 257
 2272.7 469 l 257
 348.702 469 l 257
269.908 269 m 257
 469.908 269 l 257
 650.073 764 l 257
 450.073 764 l 257
 269.908 269 l 257
EndSplineSet
Ligature2: "halfHalfFormsinDevanagari2lookup0 subtable" uni0918 uni094D
EndChar

StartChar: uni0918_uni094D.haln
Encoding: 65551 -1 400
GlifName: uni0918_uni094D_.haln
Width: 2048
VWidth: 0
GlyphClass: 2
Flags: W
LayerCount: 2
Fore
SplineSet
1131.22 1554 m 257
 985.631 1354 l 257
 3033.63 1354 l 257
 3179.22 1554 l 257
 1131.22 1554 l 257
2833.92 1522 m 257
 1735.46 13 l 257
 1935.46 13 l 257
 3033.92 1522 l 257
 2833.92 1522 l 257
1274.83 1515 m 257
 814.771 883 l 257
 1014.77 883 l 257
 1474.83 1515 l 257
 1274.83 1515 l 257
933.521 917 m 257
 787.934 717 l 257
 1543.93 717 l 257
 1689.52 917 l 257
 933.521 917 l 257
519.404 469 m 257
 373.816 269 l 257
 2097.82 269 l 257
 2243.4 469 l 257
 519.404 469 l 257
367.816 269 m 257
 567.816 269 l 257
 928.146 764 l 257
 728.146 764 l 257
 367.816 269 l 257
1478.98 -22 m 257
 1336.31 -218 l 257
 1693.31 -218 l 257
 1835.98 -22 l 257
 1478.98 -22 l 257
1577.79 -183 m 257
 1752.97 -588 l 257
 2015.62 -425 l 257
 1838.71 -21 l 257
 1577.79 -183 l 257
EndSplineSet
Ligature2: "halnHalantFormsinDevanagari2lookup0 subtable" uni0918 uni094D
EndChar

StartChar: uni0919
Encoding: 2329 2329 401
GlifName: uni0919
Width: 2048
VWidth: 0
GlyphClass: 2
Flags: W
LayerCount: 2
Fore
SplineSet
565.609 1554 m 257
 492.815 1354 l 257
 2542.82 1354 l 257
 2615.61 1554 l 257
 565.609 1554 l 257
1584.61 1543 m 257
 1395.34 1023 l 257
 1595.34 1023 l 257
 1784.61 1543 l 257
 1584.61 1543 l 257
1660.23 1226 m 257
 674.228 1226 l 257
 600.342 1023 l 257
 1586.34 1023 l 257
 1660.23 1226 l 257
621.18 1083 m 257
 455.938 629 l 257
 660.938 629 l 257
 826.18 1083 l 257
 621.18 1083 l 257
525.456 820 m 257
 452.661 620 l 257
 1525.66 620 l 257
 1598.46 820 l 257
 525.456 820 l 257
1347.5 680 m 257
 1110.55 29 l 257
 1310.55 29 l 257
 1547.5 680 l 257
 1347.5 680 l 257
187.158 201 m 257
 114 0 l 257
 1301 0 l 257
 1374.16 201 l 257
 187.158 201 l 257
267.959 423 m 257
 116.912 8 l 257
 317.912 8 l 257
 468.959 423 l 257
 267.959 423 l 257
1704.44 1037 m 257
 1650.93 890 l 257
 1807.93 890 l 257
 1861.44 1037 l 257
 1704.44 1037 l 257
EndSplineSet
EndChar

StartChar: uni0919_uni0930_uni094D.vatu
Encoding: 65552 -1 402
GlifName: uni0919_uni0930_uni094D_.vatu
Width: 2048
VWidth: 0
GlyphClass: 2
Flags: W
LayerCount: 2
Fore
SplineSet
961.757 90 m 257
 1047.45 -290 l 257
 1329.45 -290 l 257
 1145.27 259 l 257
 961.757 90 l 257
1145.27 259 m 257
 535.173 -299 l 257
 756.173 -299 l 257
 1200.21 94 l 257
 1145.27 259 l 257
565.609 1554 m 257
 492.815 1354 l 257
 2542.82 1354 l 257
 2615.61 1554 l 257
 565.609 1554 l 257
1584.61 1543 m 257
 1432.83 1126 l 257
 1632.83 1126 l 257
 1784.61 1543 l 257
 1584.61 1543 l 257
1696.62 1326 m 257
 710.625 1326 l 257
 637.83 1126 l 257
 1623.83 1126 l 257
 1696.62 1326 l 257
657.577 1183 m 257
 528.731 829 l 257
 733.731 829 l 257
 862.577 1183 l 257
 657.577 1183 l 257
599.342 1023 m 257
 525.456 820 l 257
 1598.46 820 l 257
 1672.34 1023 l 257
 599.342 1023 l 257
1420.29 880 m 257
 1219.75 329 l 257
 1419.75 329 l 257
 1620.29 880 l 257
 1420.29 880 l 257
296.349 501 m 257
 223.191 300 l 257
 1410.19 300 l 257
 1483.35 501 l 257
 296.349 501 l 257
377.15 723 m 257
 226.103 308 l 257
 427.103 308 l 257
 578.15 723 l 257
 377.15 723 l 257
1779.21 1171 m 257
 1725.34 1023 l 257
 1882.34 1023 l 257
 1936.21 1171 l 257
 1779.21 1171 l 257
EndSplineSet
Ligature2: "rkrfRakarVariantsinDevanagari2lookup0 subtable" uni0919 uni0930_uni094D.blwf
EndChar

StartChar: uni0919_uni094D.half
Encoding: 65553 -1 403
GlifName: uni0919_uni094D_.half
Width: 2048
VWidth: 0
GlyphClass: 2
Flags: W
LayerCount: 2
Fore
SplineSet
565.609 1554 m 257
 492.815 1354 l 257
 2542.82 1354 l 257
 2615.61 1554 l 257
 565.609 1554 l 257
1584.61 1543 m 257
 1395.34 1023 l 257
 1595.34 1023 l 257
 1784.61 1543 l 257
 1584.61 1543 l 257
1660.23 1226 m 257
 674.228 1226 l 257
 600.342 1023 l 257
 1586.34 1023 l 257
 1660.23 1226 l 257
621.18 1083 m 257
 492.334 729 l 257
 697.334 729 l 257
 826.18 1083 l 257
 621.18 1083 l 257
561.853 920 m 257
 489.059 720 l 257
 1562.06 720 l 257
 1634.85 920 l 257
 561.853 920 l 257
1383.9 780 m 257
 1146.95 129 l 257
 1346.95 129 l 257
 1583.9 780 l 257
 1383.9 780 l 257
223.555 301 m 257
 150.397 100 l 257
 1337.4 100 l 257
 1410.55 301 l 257
 223.555 301 l 257
304.356 523 m 257
 153.309 108 l 257
 354.309 108 l 257
 505.356 523 l 257
 304.356 523 l 257
1704.44 1037 m 257
 1650.93 890 l 257
 1807.93 890 l 257
 1861.44 1037 l 257
 1704.44 1037 l 257
1123.39 78 m 257
 1052.05 -118 l 257
 1409.05 -118 l 257
 1480.39 78 l 257
 1123.39 78 l 257
1280.79 -83 m 257
 1603.38 -488 l 257
 1806.71 -325 l 257
 1482.75 79 l 257
 1280.79 -83 l 257
EndSplineSet
Ligature2: "halfHalfFormsinDevanagari2lookup0 subtable" uni0919 uni094D
EndChar

StartChar: uni0919_uni094D.haln
Encoding: 65554 -1 404
GlifName: uni0919_uni094D_.haln
Width: 2048
VWidth: 0
GlyphClass: 2
Flags: W
LayerCount: 2
Fore
SplineSet
1131.22 1554 m 257
 985.631 1354 l 257
 3035.63 1354 l 257
 3181.22 1554 l 257
 1131.22 1554 l 257
2146.21 1543 m 257
 1767.68 1023 l 257
 1967.68 1023 l 257
 2346.21 1543 l 257
 2146.21 1543 l 257
2106.46 1226 m 257
 1120.46 1226 l 257
 972.684 1023 l 257
 1958.68 1023 l 257
 2106.46 1226 l 257
1015.36 1083 m 257
 684.875 629 l 257
 889.875 629 l 257
 1220.36 1083 l 257
 1015.36 1083 l 257
823.911 820 m 257
 678.322 620 l 257
 1751.32 620 l 257
 1896.91 820 l 257
 823.911 820 l 257
1595 680 m 257
 1121.11 29 l 257
 1321.11 29 l 257
 1795 680 l 257
 1595 680 l 257
260.316 201 m 257
 114 0 l 257
 1301 0 l 257
 1447.32 201 l 257
 260.316 201 l 257
421.918 423 m 257
 119.824 8 l 257
 320.824 8 l 257
 622.918 423 l 257
 421.918 423 l 257
2081.87 1037 m 257
 1974.87 890 l 257
 2131.87 890 l 257
 2238.87 1037 l 257
 2081.87 1037 l 257
1478.98 -22 m 257
 1336.31 -218 l 257
 1693.31 -218 l 257
 1835.98 -22 l 257
 1478.98 -22 l 257
1577.79 -183 m 257
 1752.97 -588 l 257
 2015.62 -425 l 257
 1838.71 -21 l 257
 1577.79 -183 l 257
EndSplineSet
Ligature2: "halnHalantFormsinDevanagari2lookup0 subtable" uni0919 uni094D
EndChar

StartChar: uni091A
Encoding: 2330 2330 405
GlifName: uni091A_
Width: 2048
VWidth: 0
GlyphClass: 2
Flags: W
LayerCount: 2
Fore
SplineSet
566.338 1556 m 257
 493.544 1356 l 257
 2541.54 1356 l 257
 2614.34 1556 l 257
 566.338 1556 l 257
2227.25 1553 m 257
 1662 0 l 257
 1862 0 l 257
 2427.25 1553 l 257
 2227.25 1553 l 257
1930.91 280 m 257
 2003.71 480 l 257
 982.706 480 l 257
 909.912 280 l 257
 1930.91 280 l 257
1112.64 837 m 257
 961.231 421 l 257
 1161.23 421 l 257
 1312.64 837 l 257
 1112.64 837 l 257
432.694 991 m 257
 359.9 791 l 257
 1367.9 791 l 257
 1440.69 991 l 257
 432.694 991 l 257
EndSplineSet
EndChar

StartChar: uni091A_uni0930_uni094D.vatu
Encoding: 65555 -1 406
GlifName: uni091A__uni0930_uni094D_.vatu
Width: 2048
VWidth: 0
GlyphClass: 2
Flags: W
LayerCount: 2
Fore
SplineSet
52 0 m 257
 476 0 l 257
 1856.25 215 l 257
 1929.41 416 l 257
 52 0 l 257
566.338 1556 m 257
 493.544 1356 l 257
 2541.54 1356 l 257
 2614.34 1556 l 257
 566.338 1556 l 257
2227.25 1553 m 257
 1662 0 l 257
 1862 0 l 257
 2427.25 1553 l 257
 2227.25 1553 l 257
2003.71 480 m 257
 2076.5 680 l 257
 1055.5 680 l 257
 982.706 480 l 257
 2003.71 480 l 257
1185.44 1037 m 257
 1034.03 621 l 257
 1234.03 621 l 257
 1385.44 1037 l 257
 1185.44 1037 l 257
505.488 1191 m 257
 432.694 991 l 257
 1440.69 991 l 257
 1513.49 1191 l 257
 505.488 1191 l 257
EndSplineSet
Ligature2: "rkrfRakarVariantsinDevanagari2lookup0 subtable" uni091A uni0930_uni094D.blwf
EndChar

StartChar: uni091A_uni094D.half
Encoding: 65556 -1 407
GlifName: uni091A__uni094D_.half
Width: 2048
VWidth: 0
GlyphClass: 2
Flags: W
LayerCount: 2
Fore
SplineSet
566.338 1556 m 257
 493.544 1356 l 257
 2541.54 1356 l 257
 2614.34 1556 l 257
 566.338 1556 l 257
2230.91 280 m 257
 2303.71 480 l 257
 1282.71 480 l 257
 1209.91 280 l 257
 2230.91 280 l 257
1412.64 837 m 257
 1261.23 421 l 257
 1461.23 421 l 257
 1612.64 837 l 257
 1412.64 837 l 257
732.694 991 m 257
 659.9 791 l 257
 1667.9 791 l 257
 1740.69 991 l 257
 732.694 991 l 257
EndSplineSet
Ligature2: "halfHalfFormsinDevanagari2lookup0 subtable" uni091A uni094D
EndChar

StartChar: uni091A_uni094D.haln
Encoding: 65557 -1 408
GlifName: uni091A__uni094D_.haln
Width: 2048
VWidth: 0
GlyphClass: 2
Flags: W
LayerCount: 2
Fore
SplineSet
1132.67 1556 m 257
 987.087 1356 l 257
 3035.09 1356 l 257
 3180.67 1556 l 257
 1132.67 1556 l 257
2792.49 1553 m 257
 1662 0 l 257
 1862 0 l 257
 2992.49 1553 l 257
 2792.49 1553 l 257
2032.82 280 m 257
 2178.41 480 l 257
 1157.41 480 l 257
 1011.82 280 l 257
 2032.82 280 l 257
1417.29 837 m 257
 1114.46 421 l 257
 1314.46 421 l 257
 1617.29 837 l 257
 1417.29 837 l 257
793.389 991 m 257
 647.801 791 l 257
 1655.8 791 l 257
 1801.39 991 l 257
 793.389 991 l 257
1478.98 -22 m 257
 1336.31 -218 l 257
 1693.31 -218 l 257
 1835.98 -22 l 257
 1478.98 -22 l 257
1577.79 -183 m 257
 1752.97 -588 l 257
 2015.62 -425 l 257
 1838.71 -21 l 257
 1577.79 -183 l 257
EndSplineSet
Ligature2: "halnHalantFormsinDevanagari2lookup0 subtable" uni091A uni094D
EndChar

StartChar: uni091B
Encoding: 2331 2331 409
GlifName: uni091B_
Width: 2048
VWidth: 0
GlyphClass: 2
Flags: W
LayerCount: 2
Fore
SplineSet
565.974 1555 m 257
 493.18 1355 l 257
 2544.18 1355 l 257
 2616.97 1555 l 257
 565.974 1555 l 257
1647.29 1130 m 257
 506.286 1130 l 257
 433.856 931 l 257
 1574.86 931 l 257
 1647.29 1130 l 257
503.286 1130 m 257
 304.559 584 l 257
 504.559 584 l 257
 703.286 1130 l 257
 503.286 1130 l 257
402.577 639 m 257
 329.783 439 l 257
 979.783 439 l 257
 1052.58 639 l 257
 402.577 639 l 257
266.438 493 m 257
 87 0 l 257
 287 0 l 257
 466.438 493 l 257
 266.438 493 l 257
159.43 199 m 257
 87 0 l 257
 1522 0 l 257
 1594.43 199 l 257
 159.43 199 l 257
1323.18 6 m 257
 1524.18 6 l 257
 2073.42 1515 l 257
 1872.42 1515 l 257
 1323.18 6 l 257
1828.52 1007 m 257
 1756.09 808 l 257
 2326.09 808 l 257
 2398.52 1007 l 257
 1828.52 1007 l 257
2146.93 868 m 257
 2002.43 471 l 257
 2203.43 471 l 257
 2347.93 868 l 257
 2146.93 868 l 257
EndSplineSet
EndChar

StartChar: uni091B_uni0930_uni094D.vatu
Encoding: 65558 -1 410
GlifName: uni091B__uni0930_uni094D_.vatu
Width: 2048
VWidth: 0
GlyphClass: 2
Flags: W
LayerCount: 2
Fore
SplineSet
536 0 m 257
 960 0 l 257
 1550.48 70 l 257
 1623.64 271 l 257
 536 0 l 257
565.974 1555 m 257
 493.18 1355 l 257
 2544.18 1355 l 257
 2616.97 1555 l 257
 565.974 1555 l 257
1693.88 1258 m 257
 552.875 1258 l 257
 485.176 1072 l 257
 1626.18 1072 l 257
 1693.88 1258 l 257
552.059 1264 m 257
 388.636 815 l 257
 588.636 815 l 257
 752.059 1264 l 257
 552.059 1264 l 257
486.654 870 m 257
 413.86 670 l 257
 1063.86 670 l 257
 1136.65 870 l 257
 486.654 870 l 257
350.515 724 m 257
 171.077 231 l 257
 371.077 231 l 257
 550.515 724 l 257
 350.515 724 l 257
243.507 430 m 257
 171.077 231 l 257
 1606.08 231 l 257
 1678.51 430 l 257
 243.507 430 l 257
1323.18 6 m 257
 1524.18 6 l 257
 2073.42 1515 l 257
 1872.42 1515 l 257
 1323.18 6 l 257
1863.82 1104 m 257
 1791.39 905 l 257
 2361.39 905 l 257
 2433.82 1104 l 257
 1863.82 1104 l 257
2182.23 965 m 257
 2037.74 568 l 257
 2238.74 568 l 257
 2383.23 965 l 257
 2182.23 965 l 257
EndSplineSet
Ligature2: "rkrfRakarVariantsinDevanagari2lookup0 subtable" uni091B uni0930_uni094D.blwf
EndChar

StartChar: uni091B_uni094D.half
Encoding: 65559 -1 411
GlifName: uni091B__uni094D_.half
Width: 2048
VWidth: 0
GlyphClass: 2
Flags: W
LayerCount: 2
Fore
SplineSet
565.974 1555 m 257
 493.18 1355 l 257
 2544.18 1355 l 257
 2616.97 1555 l 257
 565.974 1555 l 257
2247.29 1130 m 257
 1106.29 1130 l 257
 1033.86 931 l 257
 2174.86 931 l 257
 2247.29 1130 l 257
1103.29 1130 m 257
 904.559 584 l 257
 1104.56 584 l 257
 1303.29 1130 l 257
 1103.29 1130 l 257
1002.58 639 m 257
 929.783 439 l 257
 1579.78 439 l 257
 1652.58 639 l 257
 1002.58 639 l 257
866.438 493 m 257
 687 0 l 257
 887 0 l 257
 1066.44 493 l 257
 866.438 493 l 257
759.43 199 m 257
 687 0 l 257
 2122 0 l 257
 2194.43 199 l 257
 759.43 199 l 257
EndSplineSet
Ligature2: "halfHalfFormsinDevanagari2lookup0 subtable" uni091B uni094D
EndChar

StartChar: uni091B_uni094D.haln
Encoding: 65560 -1 412
GlifName: uni091B__uni094D_.haln
Width: 2048
VWidth: 0
GlyphClass: 2
Flags: W
LayerCount: 2
Fore
SplineSet
1131.95 1555 m 257
 986.359 1355 l 257
 3037.36 1355 l 257
 3182.95 1555 l 257
 1131.95 1555 l 257
2058.57 1130 m 257
 917.572 1130 l 257
 772.713 931 l 257
 1913.71 931 l 257
 2058.57 1130 l 257
914.572 1130 m 257
 517.117 584 l 257
 717.117 584 l 257
 1114.57 1130 l 257
 914.572 1130 l 257
635.154 639 m 257
 489.566 439 l 257
 1139.57 439 l 257
 1285.15 639 l 257
 635.154 639 l 257
445.875 493 m 257
 87 0 l 257
 287 0 l 257
 645.875 493 l 257
 445.875 493 l 257
231.859 199 m 257
 87 0 l 257
 1522 0 l 257
 1666.86 199 l 257
 231.859 199 l 257
1325.37 6 m 257
 1526.37 6 l 257
 2624.83 1515 l 257
 2423.83 1515 l 257
 1325.37 6 l 257
2195.04 1007 m 257
 2050.18 808 l 257
 2620.18 808 l 257
 2765.04 1007 l 257
 2195.04 1007 l 257
2462.85 868 m 257
 2173.86 471 l 257
 2374.86 471 l 257
 2663.85 868 l 257
 2462.85 868 l 257
1273.98 -22 m 257
 1131.31 -218 l 257
 1488.31 -218 l 257
 1630.98 -22 l 257
 1273.98 -22 l 257
1372.79 -183 m 257
 1547.97 -588 l 257
 1810.62 -425 l 257
 1633.71 -21 l 257
 1372.79 -183 l 257
EndSplineSet
Ligature2: "halnHalantFormsinDevanagari2lookup0 subtable" uni091B uni094D
EndChar

StartChar: uni091C
Encoding: 2332 2332 413
GlifName: uni091C_
Width: 2048
VWidth: 0
GlyphClass: 2
Flags: W
LayerCount: 2
Fore
SplineSet
546.426 1548 m 257
 474.359 1350 l 257
 2556.36 1350 l 257
 2628.43 1548 l 257
 546.426 1548 l 257
2282.43 1548 m 257
 1714.63 -12 l 257
 1913.63 -12 l 257
 2481.43 1548 l 257
 2282.43 1548 l 257
1239.01 860 m 257
 1167.31 663 l 257
 2093.31 663 l 257
 2165.01 860 l 257
 1239.01 860 l 257
1193.01 860 m 257
 1030.32 413 l 257
 1230.32 413 l 257
 1393.01 860 l 257
 1193.01 860 l 257
264.371 567 m 257
 191.577 367 l 257
 1213.58 367 l 257
 1286.37 567 l 257
 264.371 567 l 257
369.194 855 m 257
 243.261 509 l 257
 443.261 509 l 257
 569.194 855 l 257
 369.194 855 l 257
EndSplineSet
EndChar

StartChar: uni091C_uni0930_uni094D.vatu
Encoding: 65561 -1 414
GlifName: uni091C__uni0930_uni094D_.vatu
Width: 2048
VWidth: 0
GlyphClass: 2
Flags: W
LayerCount: 2
Fore
SplineSet
52 0 m 257
 476 0 l 257
 1856.25 215 l 257
 1929.41 416 l 257
 52 0 l 257
546.426 1548 m 257
 474.359 1350 l 257
 2556.36 1350 l 257
 2628.43 1548 l 257
 546.426 1548 l 257
2282.43 1548 m 257
 1714.63 -12 l 257
 1913.63 -12 l 257
 2481.43 1548 l 257
 2282.43 1548 l 257
1239.01 860 m 257
 1167.31 663 l 257
 2093.31 663 l 257
 2165.01 860 l 257
 1239.01 860 l 257
1193.01 860 m 257
 1030.32 413 l 257
 1230.32 413 l 257
 1393.01 860 l 257
 1193.01 860 l 257
264.371 567 m 257
 191.577 367 l 257
 1213.58 367 l 257
 1286.37 567 l 257
 264.371 567 l 257
369.194 855 m 257
 243.261 509 l 257
 443.261 509 l 257
 569.194 855 l 257
 369.194 855 l 257
EndSplineSet
Ligature2: "rkrfRakarVariantsinDevanagari2lookup0 subtable" uni091C uni0930_uni094D.blwf
EndChar

StartChar: uni091C_uni094D.half
Encoding: 65562 -1 415
GlifName: uni091C__uni094D_.half
Width: 2048
VWidth: 0
GlyphClass: 2
Flags: W
LayerCount: 2
Fore
SplineSet
546.426 1548 m 257
 474.359 1350 l 257
 2556.36 1350 l 257
 2628.43 1548 l 257
 546.426 1548 l 257
1539.01 860 m 257
 1467.31 663 l 257
 2393.31 663 l 257
 2465.01 860 l 257
 1539.01 860 l 257
1493.01 860 m 257
 1330.32 413 l 257
 1530.32 413 l 257
 1693.01 860 l 257
 1493.01 860 l 257
564.371 567 m 257
 491.577 367 l 257
 1513.58 367 l 257
 1586.37 567 l 257
 564.371 567 l 257
669.194 855 m 257
 543.261 509 l 257
 743.261 509 l 257
 869.194 855 l 257
 669.194 855 l 257
EndSplineSet
Ligature2: "halfHalfFormsinDevanagari2lookup0 subtable" uni091C uni094D
EndChar

StartChar: uni091C_uni094D.haln
Encoding: 65563 -1 416
GlifName: uni091C__uni094D_.haln
Width: 2048
VWidth: 0
GlyphClass: 2
Flags: W
LayerCount: 2
Fore
SplineSet
1109.85 1548 m 257
 965.719 1350 l 257
 3047.72 1350 l 257
 3191.85 1548 l 257
 1109.85 1548 l 257
2845.85 1548 m 257
 1710.27 -12 l 257
 1909.27 -12 l 257
 3044.85 1548 l 257
 2845.85 1548 l 257
1552.03 860 m 257
 1408.62 663 l 257
 2334.62 663 l 257
 2478.03 860 l 257
 1552.03 860 l 257
1506.03 860 m 257
 1180.64 413 l 257
 1380.64 413 l 257
 1706.03 860 l 257
 1506.03 860 l 257
470.742 567 m 257
 325.154 367 l 257
 1347.15 367 l 257
 1492.74 567 l 257
 470.742 567 l 257
680.389 855 m 257
 428.521 509 l 257
 628.521 509 l 257
 880.389 855 l 257
 680.389 855 l 257
1478.98 -22 m 257
 1336.31 -218 l 257
 1693.31 -218 l 257
 1835.98 -22 l 257
 1478.98 -22 l 257
1577.79 -183 m 257
 1752.97 -588 l 257
 2015.62 -425 l 257
 1838.71 -21 l 257
 1577.79 -183 l 257
EndSplineSet
Ligature2: "halnHalantFormsinDevanagari2lookup0 subtable" uni091C uni094D
EndChar

StartChar: uni091C_uni094D_uni091E.akhn
Encoding: 65564 -1 417
GlifName: uni091C__uni094D__uni091E_.akhn
Width: 2048
VWidth: 0
GlyphClass: 2
Flags: W
LayerCount: 2
Fore
SplineSet
529.426 1548 m 257
 457.359 1350 l 257
 2539.36 1350 l 257
 2611.43 1548 l 257
 529.426 1548 l 257
2265.43 1548 m 257
 1697.63 -12 l 257
 1896.63 -12 l 257
 2464.43 1548 l 257
 2265.43 1548 l 257
1222.01 860 m 257
 1150.31 663 l 257
 2076.31 663 l 257
 2148.01 860 l 257
 1222.01 860 l 257
1176.01 860 m 257
 1013.32 413 l 257
 1213.32 413 l 257
 1376.01 860 l 257
 1176.01 860 l 257
247.371 567 m 257
 174.577 367 l 257
 1196.58 367 l 257
 1269.37 567 l 257
 247.371 567 l 257
174.941 368 m 257
 340.298 75 l 257
 598.298 75 l 257
 417.941 368 l 257
 174.941 368 l 257
EndSplineSet
Ligature2: "akhnAkhandinDevanagari2lookup0 subtable" uni091C uni094D uni091E
EndChar

StartChar: uni091C_uni094D_uni091E.half
Encoding: 65565 -1 418
GlifName: uni091C__uni094D__uni091E_.half
Width: 2048
VWidth: 0
GlyphClass: 2
Flags: W
LayerCount: 2
Fore
SplineSet
529.426 1548 m 257
 457.359 1350 l 257
 2539.36 1350 l 257
 2611.43 1548 l 257
 529.426 1548 l 257
1422.01 860 m 257
 1350.31 663 l 257
 2276.31 663 l 257
 2348.01 860 l 257
 1422.01 860 l 257
1376.01 860 m 257
 1213.32 413 l 257
 1413.32 413 l 257
 1576.01 860 l 257
 1376.01 860 l 257
447.371 567 m 257
 374.577 367 l 257
 1396.58 367 l 257
 1469.37 567 l 257
 447.371 567 l 257
374.941 368 m 257
 540.298 75 l 257
 798.298 75 l 257
 617.941 368 l 257
 374.941 368 l 257
EndSplineSet
Ligature2: "halfHalfFormsinDevanagari2lookup0 subtable" uni091C_uni094D_uni091E.akhn uni094D
EndChar

StartChar: uni091C_uni094D_uni091E_uni094D
Encoding: 65566 -1 419
GlifName: uni091C__uni094D__uni091E__uni094D_
Width: 2048
VWidth: 0
GlyphClass: 2
Flags: W
LayerCount: 2
Fore
SplineSet
1092.85 1548 m 257
 948.719 1350 l 257
 3030.72 1350 l 257
 3174.85 1548 l 257
 1092.85 1548 l 257
2828.85 1548 m 257
 1693.27 -12 l 257
 1892.27 -12 l 257
 3027.85 1548 l 257
 2828.85 1548 l 257
1535.03 860 m 257
 1391.62 663 l 257
 2317.62 663 l 257
 2461.03 860 l 257
 1535.03 860 l 257
1489.03 860 m 257
 1163.64 413 l 257
 1363.64 413 l 257
 1689.03 860 l 257
 1489.03 860 l 257
453.742 567 m 257
 308.154 367 l 257
 1330.15 367 l 257
 1475.74 567 l 257
 453.742 567 l 257
308.883 368 m 257
 367.596 75 l 257
 625.596 75 l 257
 551.883 368 l 257
 308.883 368 l 257
1454.98 -22 m 257
 1312.31 -218 l 257
 1669.31 -218 l 257
 1811.98 -22 l 257
 1454.98 -22 l 257
1553.79 -183 m 257
 1728.97 -588 l 257
 1991.62 -425 l 257
 1814.71 -21 l 257
 1553.79 -183 l 257
EndSplineSet
Ligature2: "halnHalantFormsinDevanagari2lookup0 subtable" uni091C_uni094D_uni091E.akhn uni094D
EndChar

StartChar: uni091D
Encoding: 2333 2333 420
GlifName: uni091D_
Width: 2048
VWidth: 0
GlyphClass: 2
Flags: W
LayerCount: 2
Fore
SplineSet
555.426 1548 m 257
 482.996 1349 l 257
 2547 1349 l 257
 2619.43 1548 l 257
 555.426 1548 l 257
2271.42 1537 m 257
 1710.18 -5 l 257
 1912.18 -5 l 257
 2473.42 1537 l 257
 2271.42 1537 l 257
1527.42 1537 m 257
 1340.34 1023 l 257
 1540.34 1023 l 257
 1727.42 1537 l 257
 1527.42 1537 l 257
579.136 1223 m 257
 506.342 1023 l 257
 1540.34 1023 l 257
 1613.14 1223 l 257
 579.136 1223 l 257
528.907 1085 m 257
 370.944 651 l 257
 570.944 651 l 257
 728.907 1085 l 257
 528.907 1085 l 257
438.644 837 m 257
 366.213 638 l 257
 2140.21 638 l 257
 2212.64 837 l 257
 438.644 837 l 257
1191.5 691 m 257
 942.548 7 l 257
 1142.55 7 l 257
 1391.5 691 l 257
 1191.5 691 l 257
207.886 203 m 257
 134 0 l 257
 1140 0 l 257
 1213.89 203 l 257
 207.886 203 l 257
156.93 63 m 257
 80.1328 -148 l 257
 280.133 -148 l 257
 356.93 63 l 257
 156.93 63 l 257
EndSplineSet
EndChar

StartChar: uni091D_uni0930_uni094D.vatu
Encoding: 65567 -1 421
GlifName: uni091D__uni0930_uni094D_.vatu
Width: 2048
VWidth: 0
GlyphClass: 2
Flags: W
LayerCount: 2
Fore
SplineSet
902 0 m 257
 1416 0 l 257
 1856.25 215 l 257
 1929.41 416 l 257
 902 0 l 257
555.426 1548 m 257
 482.996 1349 l 257
 2547 1349 l 257
 2619.43 1548 l 257
 555.426 1548 l 257
2271.42 1537 m 257
 1710.18 -5 l 257
 1912.18 -5 l 257
 2473.42 1537 l 257
 2271.42 1537 l 257
1527.42 1537 m 257
 1340.34 1023 l 257
 1540.34 1023 l 257
 1727.42 1537 l 257
 1527.42 1537 l 257
579.136 1223 m 257
 506.342 1023 l 257
 1540.34 1023 l 257
 1613.14 1223 l 257
 579.136 1223 l 257
528.907 1085 m 257
 370.944 651 l 257
 570.944 651 l 257
 728.907 1085 l 257
 528.907 1085 l 257
438.644 837 m 257
 366.213 638 l 257
 2140.21 638 l 257
 2212.64 837 l 257
 438.644 837 l 257
901.504 691 m 257
 652.548 7 l 257
 852.548 7 l 257
 1101.5 691 l 257
 901.504 691 l 257
207.886 203 m 257
 134 0 l 257
 850 0 l 257
 923.886 203 l 257
 207.886 203 l 257
156.93 63 m 257
 80.1328 -148 l 257
 280.133 -148 l 257
 356.93 63 l 257
 156.93 63 l 257
EndSplineSet
Ligature2: "rkrfRakarVariantsinDevanagari2lookup0 subtable" uni091D uni0930_uni094D.blwf
EndChar

StartChar: uni091D_uni094D.half
Encoding: 65568 -1 422
GlifName: uni091D__uni094D_.half
Width: 2048
VWidth: 0
GlyphClass: 2
Flags: W
LayerCount: 2
Fore
SplineSet
555.426 1548 m 257
 482.996 1349 l 257
 2547 1349 l 257
 2619.43 1548 l 257
 555.426 1548 l 257
1827.42 1537 m 257
 1640.34 1023 l 257
 1840.34 1023 l 257
 2027.42 1537 l 257
 1827.42 1537 l 257
879.136 1223 m 257
 806.342 1023 l 257
 1840.34 1023 l 257
 1913.14 1223 l 257
 879.136 1223 l 257
828.907 1085 m 257
 670.944 651 l 257
 870.944 651 l 257
 1028.91 1085 l 257
 828.907 1085 l 257
738.644 837 m 257
 666.213 638 l 257
 2440.21 638 l 257
 2512.64 837 l 257
 738.644 837 l 257
1491.5 691 m 257
 1242.55 7 l 257
 1442.55 7 l 257
 1691.5 691 l 257
 1491.5 691 l 257
507.886 203 m 257
 434 0 l 257
 1440 0 l 257
 1513.89 203 l 257
 507.886 203 l 257
456.93 63 m 257
 380.133 -148 l 257
 580.133 -148 l 257
 656.93 63 l 257
 456.93 63 l 257
EndSplineSet
Ligature2: "halfHalfFormsinDevanagari2lookup0 subtable" uni091D uni094D
EndChar

StartChar: uni091D_uni094D.haln
Encoding: 65569 -1 423
GlifName: uni091D__uni094D_.haln
Width: 2048
VWidth: 0
GlyphClass: 2
Flags: W
LayerCount: 2
Fore
SplineSet
1118.85 1548 m 257
 973.991 1349 l 257
 3037.99 1349 l 257
 3182.85 1548 l 257
 1118.85 1548 l 257
2830.84 1537 m 257
 1708.36 -5 l 257
 1910.36 -5 l 257
 3032.84 1537 l 257
 2830.84 1537 l 257
2086.84 1537 m 257
 1712.68 1023 l 257
 1912.68 1023 l 257
 2286.84 1537 l 257
 2086.84 1537 l 257
1024.27 1223 m 257
 878.684 1023 l 257
 1912.68 1023 l 257
 2058.27 1223 l 257
 1024.27 1223 l 257
923.814 1085 m 257
 607.889 651 l 257
 807.889 651 l 257
 1123.81 1085 l 257
 923.814 1085 l 257
743.286 837 m 257
 598.426 638 l 257
 2372.43 638 l 257
 2517.29 837 l 257
 743.286 837 l 257
1443.01 691 m 257
 945.096 7 l 257
 1145.1 7 l 257
 1643.01 691 l 257
 1443.01 691 l 257
281.771 203 m 257
 134 0 l 257
 1140 0 l 257
 1287.77 203 l 257
 281.771 203 l 257
179.859 63 m 257
 26.2656 -148 l 257
 226.266 -148 l 257
 379.859 63 l 257
 179.859 63 l 257
1478.98 -22 m 257
 1336.31 -218 l 257
 1693.31 -218 l 257
 1835.98 -22 l 257
 1478.98 -22 l 257
1577.79 -183 m 257
 1752.97 -588 l 257
 2015.62 -425 l 257
 1838.71 -21 l 257
 1577.79 -183 l 257
EndSplineSet
Ligature2: "halnHalantFormsinDevanagari2lookup0 subtable" uni091D uni094D
EndChar

StartChar: uni091E
Encoding: 2334 2334 424
GlifName: uni091E_
Width: 2048
VWidth: 0
GlyphClass: 2
Flags: W
LayerCount: 2
Fore
SplineSet
563.426 1548 m 257
 490.632 1348 l 257
 2540.63 1348 l 257
 2613.43 1548 l 257
 563.426 1548 l 257
2315.42 1537 m 257
 1753.09 -8 l 257
 1953.09 -8 l 257
 2515.42 1537 l 257
 2315.42 1537 l 257
1248.25 737 m 257
 1175.45 537 l 257
 2049.45 537 l 257
 2122.25 737 l 257
 1248.25 737 l 257
435.411 960 m 257
 362.617 760 l 257
 1232.62 760 l 257
 1305.41 960 l 257
 435.411 960 l 257
1275.41 960 m 257
 1041.01 316 l 257
 1241.01 316 l 257
 1475.41 960 l 257
 1275.41 960 l 257
231.427 460 m 257
 158.632 260 l 257
 1220.63 260 l 257
 1293.43 460 l 257
 231.427 460 l 257
EndSplineSet
EndChar

StartChar: uni091E_uni0930_uni094D.vatu
Encoding: 65570 -1 425
GlifName: uni091E__uni0930_uni094D_.vatu
Width: 2048
VWidth: 0
GlyphClass: 2
Flags: W
LayerCount: 2
Fore
SplineSet
52 0 m 257
 476 0 l 257
 1856.25 215 l 257
 1929.41 416 l 257
 52 0 l 257
563.426 1548 m 257
 490.632 1348 l 257
 2540.63 1348 l 257
 2613.43 1548 l 257
 563.426 1548 l 257
2315.42 1537 m 257
 1753.09 -8 l 257
 1953.09 -8 l 257
 2515.42 1537 l 257
 2315.42 1537 l 257
1248.25 737 m 257
 1175.45 537 l 257
 2049.45 537 l 257
 2122.25 737 l 257
 1248.25 737 l 257
435.411 960 m 257
 362.617 760 l 257
 1232.62 760 l 257
 1305.41 960 l 257
 435.411 960 l 257
1275.41 960 m 257
 1041.01 316 l 257
 1241.01 316 l 257
 1475.41 960 l 257
 1275.41 960 l 257
239.434 482 m 257
 166.64 282 l 257
 1228.64 282 l 257
 1301.43 482 l 257
 239.434 482 l 257
EndSplineSet
Ligature2: "rkrfRakarVariantsinDevanagari2lookup0 subtable" uni091E uni0930_uni094D.blwf
EndChar

StartChar: uni091E_uni094D.half
Encoding: 65571 -1 426
GlifName: uni091E__uni094D_.half
Width: 2048
VWidth: 0
GlyphClass: 2
Flags: W
LayerCount: 2
Fore
SplineSet
563.426 1548 m 257
 490.632 1348 l 257
 2540.63 1348 l 257
 2613.43 1548 l 257
 563.426 1548 l 257
1508.25 737 m 257
 1435.45 537 l 257
 2309.45 537 l 257
 2382.25 737 l 257
 1508.25 737 l 257
695.411 960 m 257
 622.617 760 l 257
 1492.62 760 l 257
 1565.41 960 l 257
 695.411 960 l 257
1535.41 960 m 257
 1301.01 316 l 257
 1501.01 316 l 257
 1735.41 960 l 257
 1535.41 960 l 257
491.427 460 m 257
 418.632 260 l 257
 1480.63 260 l 257
 1553.43 460 l 257
 491.427 460 l 257
EndSplineSet
Ligature2: "halfHalfFormsinDevanagari2lookup0 subtable" uni091E uni094D
EndChar

StartChar: uni091E_uni094D.haln
Encoding: 65572 -1 427
GlifName: uni091E__uni094D_.haln
Width: 2048
VWidth: 0
GlyphClass: 2
Flags: W
LayerCount: 2
Fore
SplineSet
1126.85 1548 m 257
 981.264 1348 l 257
 3031.26 1348 l 257
 3176.85 1548 l 257
 1126.85 1548 l 257
2874.84 1537 m 257
 1750.18 -8 l 257
 1950.18 -8 l 257
 3074.84 1537 l 257
 2874.84 1537 l 257
1516.49 737 m 257
 1370.9 537 l 257
 2244.9 537 l 257
 2390.49 737 l 257
 1516.49 737 l 257
784.822 960 m 257
 639.234 760 l 257
 1509.23 760 l 257
 1654.82 960 l 257
 784.822 960 l 257
1624.82 960 m 257
 1156.03 316 l 257
 1356.03 316 l 257
 1824.82 960 l 257
 1624.82 960 l 257
398.853 460 m 257
 253.264 260 l 257
 1315.26 260 l 257
 1460.85 460 l 257
 398.853 460 l 257
1478.98 -22 m 257
 1336.31 -218 l 257
 1693.31 -218 l 257
 1835.98 -22 l 257
 1478.98 -22 l 257
1577.79 -183 m 257
 1752.97 -588 l 257
 2015.62 -425 l 257
 1838.71 -21 l 257
 1577.79 -183 l 257
EndSplineSet
Ligature2: "halnHalantFormsinDevanagari2lookup0 subtable" uni091E uni094D
EndChar

StartChar: uni091F
Encoding: 2335 2335 428
GlifName: uni091F_
Width: 2048
VWidth: 0
GlyphClass: 2
Flags: W
LayerCount: 2
Fore
SplineSet
563.426 1548 m 257
 490.632 1348 l 257
 2542.63 1348 l 257
 2615.43 1548 l 257
 563.426 1548 l 257
2153.15 1528 m 257
 1956.6 988 l 257
 2156.6 988 l 257
 2353.15 1528 l 257
 2153.15 1528 l 257
2169.34 1023 m 257
 478.342 1023 l 257
 405.184 822 l 257
 2096.18 822 l 257
 2169.34 1023 l 257
457.342 1023 m 257
 86.8203 5 l 257
 286.82 5 l 257
 657.342 1023 l 257
 457.342 1023 l 257
158.158 201 m 257
 85 0 l 257
 1840 0 l 257
 1913.16 201 l 257
 158.158 201 l 257
EndSplineSet
EndChar

StartChar: uni091F_uni0930_uni094D.vatu
Encoding: 65573 -1 429
GlifName: uni091F__uni0930_uni094D_.vatu
Width: 2048
VWidth: 0
GlyphClass: 2
Flags: W
LayerCount: 2
Fore
SplineSet
961.757 90 m 257
 1047.45 -290 l 257
 1329.45 -290 l 257
 1145.27 259 l 257
 961.757 90 l 257
1145.27 259 m 257
 535.173 -299 l 257
 756.173 -299 l 257
 1200.21 94 l 257
 1145.27 259 l 257
563.426 1548 m 257
 490.632 1348 l 257
 2542.63 1348 l 257
 2615.43 1548 l 257
 563.426 1548 l 257
2153.15 1528 m 257
 1956.6 988 l 257
 2156.6 988 l 257
 2353.15 1528 l 257
 2153.15 1528 l 257
2169.34 1023 m 257
 478.342 1023 l 257
 405.184 822 l 257
 2096.18 822 l 257
 2169.34 1023 l 257
457.342 1023 m 257
 196.011 305 l 257
 396.011 305 l 257
 657.342 1023 l 257
 457.342 1023 l 257
267.349 501 m 257
 194.191 300 l 257
 1949.19 300 l 257
 2022.35 501 l 257
 267.349 501 l 257
EndSplineSet
Ligature2: "rkrfRakarVariantsinDevanagari2lookup0 subtable" uni091F uni0930_uni094D.blwf
EndChar

StartChar: uni091F_uni094D.haln
Encoding: 65574 -1 430
GlifName: uni091F__uni094D_.haln
Width: 2048
VWidth: 0
GlyphClass: 2
Flags: W
LayerCount: 2
Fore
SplineSet
1126.85 1548 m 257
 981.264 1348 l 257
 3033.26 1348 l 257
 3178.85 1548 l 257
 1126.85 1548 l 257
2709.29 1528 m 257
 2316.21 988 l 257
 2516.21 988 l 257
 2909.29 1528 l 257
 2709.29 1528 l 257
2541.68 1023 m 257
 850.684 1023 l 257
 704.367 822 l 257
 2395.37 822 l 257
 2541.68 1023 l 257
829.684 1023 m 257
 88.6406 5 l 257
 288.641 5 l 257
 1029.68 1023 l 257
 829.684 1023 l 257
231.316 201 m 257
 85 0 l 257
 1840 0 l 257
 1986.32 201 l 257
 231.316 201 l 257
1478.98 -22 m 257
 1336.31 -218 l 257
 1693.31 -218 l 257
 1835.98 -22 l 257
 1478.98 -22 l 257
1577.79 -183 m 257
 1752.97 -588 l 257
 2015.62 -425 l 257
 1838.71 -21 l 257
 1577.79 -183 l 257
EndSplineSet
Ligature2: "halnHalantFormsinDevanagari2lookup0 subtable" uni091F uni094D
EndChar

StartChar: uni0920
Encoding: 2336 2336 431
GlifName: uni0920
Width: 2048
VWidth: 0
GlyphClass: 2
Flags: W
LayerCount: 2
Fore
SplineSet
563.426 1548 m 257
 491.359 1350 l 257
 2539.36 1350 l 257
 2611.43 1548 l 257
 563.426 1548 l 257
1452.13 1484 m 257
 1284.34 1023 l 257
 1492.34 1023 l 257
 1660.13 1484 l 257
 1452.13 1484 l 257
461.709 1035 m 257
 388.551 834 l 257
 2288.55 834 l 257
 2361.71 1035 l 257
 461.709 1035 l 257
448.709 1035 m 257
 76.7314 13 l 257
 276.731 13 l 257
 648.709 1035 l 257
 448.709 1035 l 257
2161.71 1035 m 257
 1785 0 l 257
 1985 0 l 257
 2361.71 1035 l 257
 2161.71 1035 l 257
145.066 198 m 257
 73 0 l 257
 1965 0 l 257
 2037.07 198 l 257
 145.066 198 l 257
EndSplineSet
EndChar

StartChar: uni0920_uni0930_uni094D.vatu
Encoding: 65575 -1 432
GlifName: uni0920_uni0930_uni094D_.vatu
Width: 2048
VWidth: 0
GlyphClass: 2
Flags: W
LayerCount: 2
Fore
SplineSet
961.757 90 m 257
 1047.45 -290 l 257
 1329.45 -290 l 257
 1145.27 259 l 257
 961.757 90 l 257
1145.27 259 m 257
 535.173 -299 l 257
 756.173 -299 l 257
 1200.21 94 l 257
 1145.27 259 l 257
563.426 1548 m 257
 491.359 1350 l 257
 2539.36 1350 l 257
 2611.43 1548 l 257
 563.426 1548 l 257
1452.13 1484 m 257
 1284.34 1023 l 257
 1492.34 1023 l 257
 1660.13 1484 l 257
 1452.13 1484 l 257
461.709 1035 m 257
 388.551 834 l 257
 2288.55 834 l 257
 2361.71 1035 l 257
 461.709 1035 l 257
448.709 1035 m 257
 185.923 313 l 257
 385.923 313 l 257
 648.709 1035 l 257
 448.709 1035 l 257
2161.71 1035 m 257
 1893.46 298 l 257
 2093.46 298 l 257
 2361.71 1035 l 257
 2161.71 1035 l 257
254.257 498 m 257
 181.1 297 l 257
 2073.1 297 l 257
 2146.26 498 l 257
 254.257 498 l 257
EndSplineSet
Ligature2: "rkrfRakarVariantsinDevanagari2lookup0 subtable" uni0920 uni0930_uni094D.blwf
EndChar

StartChar: uni0920_uni094D.haln
Encoding: 65576 -1 433
GlifName: uni0920_uni094D_.haln
Width: 2048
VWidth: 0
GlyphClass: 2
Flags: W
LayerCount: 2
Fore
SplineSet
1126.85 1548 m 257
 982.719 1350 l 257
 3030.72 1350 l 257
 3174.85 1548 l 257
 1126.85 1548 l 257
1992.26 1484 m 257
 1656.68 1023 l 257
 1864.68 1023 l 257
 2200.26 1484 l 257
 1992.26 1484 l 257
838.418 1035 m 257
 692.102 834 l 257
 2592.1 834 l 257
 2738.42 1035 l 257
 838.418 1035 l 257
825.418 1035 m 257
 81.4629 13 l 257
 281.463 13 l 257
 1025.42 1035 l 257
 825.418 1035 l 257
2538.42 1035 m 257
 1785 0 l 257
 1985 0 l 257
 2738.42 1035 l 257
 2538.42 1035 l 257
217.133 198 m 257
 73 0 l 257
 1965 0 l 257
 2109.13 198 l 257
 217.133 198 l 257
1478.98 -22 m 257
 1336.31 -218 l 257
 1693.31 -218 l 257
 1835.98 -22 l 257
 1478.98 -22 l 257
1577.79 -183 m 257
 1752.97 -588 l 257
 2015.62 -425 l 257
 1838.71 -21 l 257
 1577.79 -183 l 257
EndSplineSet
Ligature2: "halnHalantFormsinDevanagari2lookup0 subtable" uni0920 uni094D
EndChar

StartChar: uni0921
Encoding: 2337 2337 434
GlifName: uni0921
Width: 2048
VWidth: 0
GlyphClass: 2
Flags: W
LayerCount: 2
Fore
SplineSet
563.426 1548 m 257
 490.632 1348 l 257
 2542.63 1348 l 257
 2615.43 1548 l 257
 563.426 1548 l 257
765.805 1049 m 257
 616.213 638 l 257
 815.213 638 l 257
 964.805 1049 l 257
 765.805 1049 l 257
655.521 746 m 257
 579.816 538 l 257
 1776.82 538 l 257
 1852.52 746 l 257
 655.521 746 l 257
1637.87 703 m 257
 1384.82 5 l 257
 1583.82 5 l 257
 1836.87 703 l 257
 1637.87 703 l 257
134.794 200 m 257
 62 0 l 257
 1582 0 l 257
 1652.79 200 l 257
 134.794 200 l 257
182.475 331 m 257
 63.8203 5 l 257
 263.82 5 l 257
 382.475 331 l 257
 182.475 331 l 257
796.742 1134 m 257
 721.036 926 l 257
 1782.04 926 l 257
 1857.74 1134 l 257
 796.742 1134 l 257
1752.28 1391 m 257
 1602.69 980 l 257
 1801.69 980 l 257
 1951.28 1391 l 257
 1752.28 1391 l 257
EndSplineSet
EndChar

StartChar: uni0921_uni0930_uni094D.vatu
Encoding: 65577 -1 435
GlifName: uni0921_uni0930_uni094D_.vatu
Width: 2048
VWidth: 0
GlyphClass: 2
Flags: W
LayerCount: 2
Fore
SplineSet
951.93 63 m 257
 1072.2 -222 l 257
 1354.2 -222 l 257
 1120.15 190 l 257
 951.93 63 l 257
1120.15 190 m 257
 561.015 -228 l 257
 782.015 -228 l 257
 1190.39 67 l 257
 1120.15 190 l 257
563.426 1548 m 257
 490.632 1348 l 257
 2542.63 1348 l 257
 2615.43 1548 l 257
 563.426 1548 l 257
786.551 1106 m 257
 649.334 729 l 257
 848.334 729 l 257
 985.551 1106 l 257
 786.551 1106 l 257
688.644 837 m 257
 612.938 629 l 257
 1809.94 629 l 257
 1885.64 837 l 257
 688.644 837 l 257
1670.99 794 m 257
 1442.69 164 l 257
 1641.69 164 l 257
 1869.99 794 l 257
 1670.99 794 l 257
192.665 359 m 257
 119.871 159 l 257
 1639.87 159 l 257
 1710.67 359 l 257
 192.665 359 l 257
240.346 490 m 257
 121.691 164 l 257
 321.691 164 l 257
 440.346 490 l 257
 240.346 490 l 257
817.488 1191 m 257
 741.783 983 l 257
 1802.78 983 l 257
 1878.49 1191 l 257
 817.488 1191 l 257
1752.28 1391 m 257
 1623.44 1037 l 257
 1822.44 1037 l 257
 1951.28 1391 l 257
 1752.28 1391 l 257
EndSplineSet
Ligature2: "rkrfRakarVariantsinDevanagari2lookup0 subtable" uni0921 uni0930_uni094D.blwf
EndChar

StartChar: uni0921_uni094D.haln
Encoding: 65578 -1 436
GlifName: uni0921_uni094D_.haln
Width: 2048
VWidth: 0
GlyphClass: 2
Flags: W
LayerCount: 2
Fore
SplineSet
1126.85 1548 m 257
 981.264 1348 l 257
 3033.26 1348 l 257
 3178.85 1548 l 257
 1126.85 1548 l 257
1147.61 1049 m 257
 848.426 638 l 257
 1047.43 638 l 257
 1346.61 1049 l 257
 1147.61 1049 l 257
927.043 746 m 257
 775.632 538 l 257
 1972.63 538 l 257
 2124.04 746 l 257
 927.043 746 l 257
1893.74 703 m 257
 1386.64 5 l 257
 1585.64 5 l 257
 2092.74 703 l 257
 1893.74 703 l 257
207.588 200 m 257
 62 0 l 257
 1582 0 l 257
 1725.59 200 l 257
 207.588 200 l 257
302.948 331 m 257
 65.6406 5 l 257
 265.641 5 l 257
 502.948 331 l 257
 302.948 331 l 257
1209.48 1134 m 257
 1058.07 926 l 257
 2119.07 926 l 257
 2270.48 1134 l 257
 1209.48 1134 l 257
2258.56 1391 m 257
 1959.38 980 l 257
 2158.38 980 l 257
 2457.56 1391 l 257
 2258.56 1391 l 257
1478.98 -22 m 257
 1336.31 -218 l 257
 1693.31 -218 l 257
 1835.98 -22 l 257
 1478.98 -22 l 257
1577.79 -183 m 257
 1752.97 -588 l 257
 2015.62 -425 l 257
 1838.71 -21 l 257
 1577.79 -183 l 257
EndSplineSet
Ligature2: "halnHalantFormsinDevanagari2lookup0 subtable" uni0921 uni094D
EndChar

StartChar: uni0922
Encoding: 2338 2338 437
GlifName: uni0922
Width: 2048
VWidth: 0
GlyphClass: 2
Flags: W
LayerCount: 2
Fore
SplineSet
568.426 1548 m 257
 495.632 1348 l 257
 2533.63 1348 l 257
 2606.43 1548 l 257
 568.426 1548 l 257
2144.15 1528 m 257
 1947.6 988 l 257
 2147.6 988 l 257
 2344.15 1528 l 257
 2144.15 1528 l 257
2160.34 1023 m 257
 487.342 1023 l 257
 414.184 822 l 257
 2087.18 822 l 257
 2160.34 1023 l 257
466.342 1023 m 257
 95.8203 5 l 257
 295.82 5 l 257
 666.342 1023 l 257
 466.342 1023 l 257
167.158 201 m 257
 94 0 l 257
 1831 0 l 257
 1904.16 201 l 257
 167.158 201 l 257
1830 544 m 257
 1632 0 l 257
 1833 0 l 257
 2031 544 l 257
 1830 544 l 257
1778.09 547 m 257
 1705.3 347 l 257
 1957.3 347 l 257
 2030.09 547 l 257
 1778.09 547 l 257
EndSplineSet
EndChar

StartChar: uni0922_uni0930_uni094D.vatu
Encoding: 65579 -1 438
GlifName: uni0922_uni0930_uni094D_.vatu
Width: 2048
VWidth: 0
GlyphClass: 2
Flags: W
LayerCount: 2
Fore
SplineSet
966.757 90 m 257
 1052.45 -290 l 257
 1334.45 -290 l 257
 1150.27 259 l 257
 966.757 90 l 257
1150.27 259 m 257
 540.173 -299 l 257
 761.173 -299 l 257
 1205.21 94 l 257
 1150.27 259 l 257
573.426 1548 m 257
 500.632 1348 l 257
 2538.63 1348 l 257
 2611.43 1548 l 257
 573.426 1548 l 257
2149.15 1528 m 257
 1989 1088 l 257
 2189 1088 l 257
 2349.15 1528 l 257
 2149.15 1528 l 257
2201.74 1123 m 257
 528.738 1123 l 257
 455.58 922 l 257
 2128.58 922 l 257
 2201.74 1123 l 257
508.103 1124 m 257
 210.011 305 l 257
 410.011 305 l 257
 708.103 1124 l 257
 508.103 1124 l 257
281.349 501 m 257
 208.191 300 l 257
 1945.19 300 l 257
 2018.35 501 l 257
 281.349 501 l 257
1944.19 844 m 257
 1745.46 298 l 257
 1946.46 298 l 257
 2145.19 844 l 257
 1944.19 844 l 257
1892.28 847 m 257
 1819.49 647 l 257
 2071.49 647 l 257
 2144.28 847 l 257
 1892.28 847 l 257
EndSplineSet
Ligature2: "rkrfRakarVariantsinDevanagari2lookup0 subtable" uni0922 uni0930_uni094D.blwf
EndChar

StartChar: uni0922_uni094D.haln
Encoding: 65580 -1 439
GlifName: uni0922_uni094D_.haln
Width: 2048
VWidth: 0
GlyphClass: 2
Flags: W
LayerCount: 2
Fore
SplineSet
1131.85 1548 m 257
 986.264 1348 l 257
 3024.26 1348 l 257
 3169.85 1548 l 257
 1131.85 1548 l 257
2700.29 1528 m 257
 2307.21 988 l 257
 2507.21 988 l 257
 2900.29 1528 l 257
 2700.29 1528 l 257
2532.68 1023 m 257
 859.684 1023 l 257
 713.367 822 l 257
 2386.37 822 l 257
 2532.68 1023 l 257
838.684 1023 m 257
 97.6406 5 l 257
 297.641 5 l 257
 1038.68 1023 l 257
 838.684 1023 l 257
240.316 201 m 257
 94 0 l 257
 1831 0 l 257
 1977.32 201 l 257
 240.316 201 l 257
2028 544 m 257
 1632 0 l 257
 1833 0 l 257
 2229 544 l 257
 2028 544 l 257
1977.18 547 m 257
 1831.6 347 l 257
 2083.6 347 l 257
 2229.18 547 l 257
 1977.18 547 l 257
1478.98 -22 m 257
 1336.31 -218 l 257
 1693.31 -218 l 257
 1835.98 -22 l 257
 1478.98 -22 l 257
1577.79 -183 m 257
 1752.97 -588 l 257
 2015.62 -425 l 257
 1838.71 -21 l 257
 1577.79 -183 l 257
EndSplineSet
Ligature2: "halnHalantFormsinDevanagari2lookup0 subtable" uni0922 uni094D
EndChar

StartChar: uni0923
Encoding: 2339 2339 440
GlifName: uni0923
Width: 2048
VWidth: 0
GlyphClass: 2
Flags: W
LayerCount: 2
Fore
SplineSet
563.426 1548 m 257
 491.359 1350 l 257
 2539.36 1350 l 257
 2611.43 1548 l 257
 563.426 1548 l 257
2296.87 1530 m 257
 1740 0 l 257
 1940 0 l 257
 2496.87 1530 l 257
 2296.87 1530 l 257
671.606 1543 m 257
 421.194 855 l 257
 621.194 855 l 257
 871.606 1543 l 257
 671.606 1543 l 257
1522.15 1528 m 257
 1273.19 844 l 257
 1473.19 844 l 257
 1722.15 1528 l 257
 1522.15 1528 l 257
482.342 1023 m 257
 410.275 825 l 257
 1466.28 825 l 257
 1538.34 1023 l 257
 482.342 1023 l 257
EndSplineSet
EndChar

StartChar: uni0923_uni0930_uni094D.vatu
Encoding: 65581 -1 441
GlifName: uni0923_uni0930_uni094D_.vatu
Width: 2048
VWidth: 0
GlyphClass: 2
Flags: W
LayerCount: 2
Fore
SplineSet
52 0 m 257
 476 0 l 257
 1856.25 215 l 257
 1929.41 416 l 257
 52 0 l 257
563.426 1548 m 257
 491.359 1350 l 257
 2539.36 1350 l 257
 2611.43 1548 l 257
 563.426 1548 l 257
2296.87 1530 m 257
 1740 0 l 257
 1940 0 l 257
 2496.87 1530 l 257
 2296.87 1530 l 257
671.606 1543 m 257
 421.194 855 l 257
 621.194 855 l 257
 871.606 1543 l 257
 671.606 1543 l 257
1522.15 1528 m 257
 1273.19 844 l 257
 1473.19 844 l 257
 1722.15 1528 l 257
 1522.15 1528 l 257
482.342 1023 m 257
 410.275 825 l 257
 1466.28 825 l 257
 1538.34 1023 l 257
 482.342 1023 l 257
EndSplineSet
Ligature2: "rkrfRakarVariantsinDevanagari2lookup0 subtable" uni0923 uni0930_uni094D.blwf
EndChar

StartChar: uni0923_uni094D.half
Encoding: 65582 -1 442
GlifName: uni0923_uni094D_.half
Width: 2048
VWidth: 0
GlyphClass: 2
Flags: W
LayerCount: 2
Fore
SplineSet
563.426 1548 m 257
 491.359 1350 l 257
 2539.36 1350 l 257
 2611.43 1548 l 257
 563.426 1548 l 257
1071.61 1543 m 257
 821.194 855 l 257
 1021.19 855 l 257
 1271.61 1543 l 257
 1071.61 1543 l 257
1922.15 1528 m 257
 1673.19 844 l 257
 1873.19 844 l 257
 2122.15 1528 l 257
 1922.15 1528 l 257
882.342 1023 m 257
 810.275 825 l 257
 1866.28 825 l 257
 1938.34 1023 l 257
 882.342 1023 l 257
EndSplineSet
Ligature2: "halfHalfFormsinDevanagari2lookup0 subtable" uni0923 uni094D
EndChar

StartChar: uni0923_uni094D.haln
Encoding: 65583 -1 443
GlifName: uni0923_uni094D_.haln
Width: 2048
VWidth: 0
GlyphClass: 2
Flags: W
LayerCount: 2
Fore
SplineSet
1126.85 1548 m 257
 982.719 1350 l 257
 3030.72 1350 l 257
 3174.85 1548 l 257
 1126.85 1548 l 257
2853.75 1530 m 257
 1740 0 l 257
 1940 0 l 257
 3053.75 1530 l 257
 2853.75 1530 l 257
1233.21 1543 m 257
 732.389 855 l 257
 932.389 855 l 257
 1433.21 1543 l 257
 1233.21 1543 l 257
2078.29 1528 m 257
 1580.38 844 l 257
 1780.38 844 l 257
 2278.29 1528 l 257
 2078.29 1528 l 257
854.684 1023 m 257
 710.551 825 l 257
 1766.55 825 l 257
 1910.68 1023 l 257
 854.684 1023 l 257
1478.98 -22 m 257
 1336.31 -218 l 257
 1693.31 -218 l 257
 1835.98 -22 l 257
 1478.98 -22 l 257
1577.79 -183 m 257
 1752.97 -588 l 257
 2015.62 -425 l 257
 1838.71 -21 l 257
 1577.79 -183 l 257
EndSplineSet
Ligature2: "halnHalantFormsinDevanagari2lookup0 subtable" uni0923 uni094D
EndChar

StartChar: uni0924
Encoding: 2340 2340 444
GlifName: uni0924
Width: 2048
VWidth: 0
GlyphClass: 2
Flags: W
LayerCount: 2
Fore
SplineSet
553.521 1562 m 257
 480.728 1362 l 257
 2558.73 1362 l 257
 2631.52 1562 l 257
 553.521 1562 l 257
2241.52 1562 m 257
 1673 0 l 257
 1872 0 l 257
 2440.52 1562 l 257
 2241.52 1562 l 257
2113.81 788 m 257
 406.809 788 l 257
 334.015 588 l 257
 2041.01 588 l 257
 2113.81 788 l 257
398.801 766 m 257
 129.463 26 l 257
 329.463 26 l 257
 598.801 766 l 257
 398.801 766 l 257
EndSplineSet
EndChar

StartChar: uni0924_uni0930_uni094D.vatu
Encoding: 65584 -1 445
GlifName: uni0924_uni0930_uni094D_.vatu
Width: 2048
VWidth: 0
GlyphClass: 2
Flags: W
LayerCount: 2
Fore
SplineSet
52 0 m 257
 476 0 l 257
 1856.25 215 l 257
 1929.41 416 l 257
 52 0 l 257
553.521 1562 m 257
 480.728 1362 l 257
 2558.73 1362 l 257
 2631.52 1562 l 257
 553.521 1562 l 257
2241.52 1562 m 257
 1673 0 l 257
 1872 0 l 257
 2440.52 1562 l 257
 2241.52 1562 l 257
1889.66 348 m 257
 721.128 1201 l 257
 558.161 1028 l 257
 1726.69 175 l 257
 1889.66 348 l 257
EndSplineSet
Ligature2: "rkrfRakarVariantsinDevanagari2lookup0 subtable" uni0924 uni0930_uni094D.blwf
EndChar

StartChar: uni0924_uni094D.half
Encoding: 65585 -1 446
GlifName: uni0924_uni094D_.half
Width: 2048
VWidth: 0
GlyphClass: 2
Flags: W
LayerCount: 2
Fore
SplineSet
553.521 1562 m 257
 480.728 1362 l 257
 2558.73 1362 l 257
 2631.52 1562 l 257
 553.521 1562 l 257
2358.81 788 m 257
 651.809 788 l 257
 579.015 588 l 257
 2286.01 588 l 257
 2358.81 788 l 257
643.801 766 m 257
 374.463 26 l 257
 574.463 26 l 257
 843.801 766 l 257
 643.801 766 l 257
EndSplineSet
Ligature2: "halfHalfFormsinDevanagari2lookup0 subtable" uni0924 uni094D
EndChar

StartChar: uni0924_uni094D.haln
Encoding: 65586 -1 447
GlifName: uni0924_uni094D_.haln
Width: 2048
VWidth: 0
GlyphClass: 2
Flags: W
LayerCount: 2
Fore
SplineSet
1122.04 1562 m 257
 976.455 1362 l 257
 3054.46 1362 l 257
 3200.04 1562 l 257
 1122.04 1562 l 257
2810.04 1562 m 257
 1673 0 l 257
 1872 0 l 257
 3009.04 1562 l 257
 2810.04 1562 l 257
2400.62 788 m 257
 693.617 788 l 257
 548.029 588 l 257
 2255.03 588 l 257
 2400.62 788 l 257
677.602 766 m 257
 138.926 26 l 257
 338.926 26 l 257
 877.602 766 l 257
 677.602 766 l 257
1478.98 -22 m 257
 1336.31 -218 l 257
 1693.31 -218 l 257
 1835.98 -22 l 257
 1478.98 -22 l 257
1577.79 -183 m 257
 1752.97 -588 l 257
 2015.62 -425 l 257
 1838.71 -21 l 257
 1577.79 -183 l 257
EndSplineSet
Ligature2: "halnHalantFormsinDevanagari2lookup0 subtable" uni0924 uni094D
EndChar

StartChar: uni0924_uni094D_uni0924.pres
Encoding: 65587 -1 448
GlifName: uni0924_uni094D__uni0924.pres
Width: 2048
VWidth: 0
GlyphClass: 2
Flags: W
LayerCount: 2
Fore
SplineSet
535.609 1554 m 257
 462.815 1354 l 257
 2541.82 1354 l 257
 2614.61 1554 l 257
 535.609 1554 l 257
2208.96 1511 m 257
 1659 0 l 257
 1858 0 l 257
 2407.96 1511 l 257
 2208.96 1511 l 257
2099.81 788 m 257
 391.809 788 l 257
 319.015 588 l 257
 2027.01 588 l 257
 2099.81 788 l 257
319.015 588 m 257
 212 0 l 257
 412 0 l 257
 518.015 588 l 257
 319.015 588 l 257
2101.8 1038 m 257
 393.801 1038 l 257
 321.007 838 l 257
 2029.01 838 l 257
 2101.8 1038 l 257
EndSplineSet
Ligature2: "presPreBaseSubstitutionsinDevanagari2lookup0 subtable" uni0924_uni094D.half uni0924
EndChar

StartChar: uni0925
Encoding: 2341 2341 449
GlifName: uni0925
Width: 2048
VWidth: 0
GlyphClass: 2
Flags: W
LayerCount: 2
Fore
SplineSet
2210.43 1548 m 257
 2138.36 1350 l 257
 2522.36 1350 l 257
 2594.43 1548 l 257
 2210.43 1548 l 257
2342.42 1537 m 257
 1776.45 -18 l 257
 1975.45 -18 l 257
 2541.42 1537 l 257
 2342.42 1537 l 257
580.426 1548 m 257
 508.359 1350 l 257
 1465.36 1350 l 257
 1537.43 1548 l 257
 580.426 1548 l 257
1287.29 1413 m 257
 1110.4 927 l 257
 1310.4 927 l 257
 1487.29 1413 l 257
 1287.29 1413 l 257
1344.52 1018 m 257
 391.521 1018 l 257
 315.815 810 l 257
 1268.82 810 l 257
 1344.52 1018 l 257
365.315 946 m 257
 69.0439 132 l 257
 268.044 132 l 257
 564.315 946 l 257
 365.315 946 l 257
141.475 331 m 257
 69.0439 132 l 257
 2030.04 132 l 257
 2102.47 331 l 257
 141.475 331 l 257
EndSplineSet
EndChar

StartChar: uni0925_uni0930_uni094D.vatu
Encoding: 65588 -1 450
GlifName: uni0925_uni0930_uni094D_.vatu
Width: 2048
VWidth: 0
GlyphClass: 2
Flags: W
LayerCount: 2
Fore
SplineSet
52 0 m 257
 476 0 l 257
 1856.25 215 l 257
 1929.41 416 l 257
 52 0 l 257
2210.43 1548 m 257
 2138.36 1350 l 257
 2522.36 1350 l 257
 2594.43 1548 l 257
 2210.43 1548 l 257
2342.42 1537 m 257
 1776.45 -18 l 257
 1975.45 -18 l 257
 2541.42 1537 l 257
 2342.42 1537 l 257
580.426 1548 m 257
 508.359 1350 l 257
 1465.36 1350 l 257
 1537.43 1548 l 257
 580.426 1548 l 257
1287.29 1413 m 257
 1110.4 927 l 257
 1310.4 927 l 257
 1487.29 1413 l 257
 1287.29 1413 l 257
1344.52 1018 m 257
 391.521 1018 l 257
 315.815 810 l 257
 1268.82 810 l 257
 1344.52 1018 l 257
365.315 946 m 257
 141.838 332 l 257
 340.838 332 l 257
 564.315 946 l 257
 365.315 946 l 257
214.269 531 m 257
 141.838 332 l 257
 2102.84 332 l 257
 2175.27 531 l 257
 214.269 531 l 257
EndSplineSet
Ligature2: "rkrfRakarVariantsinDevanagari2lookup0 subtable" uni0925 uni0930_uni094D.blwf
EndChar

StartChar: uni0925_uni094D.half
Encoding: 65589 -1 451
GlifName: uni0925_uni094D_.half
Width: 2048
VWidth: 0
GlyphClass: 2
Flags: W
LayerCount: 2
Fore
SplineSet
2210.43 1548 m 257
 2138.36 1350 l 257
 2522.36 1350 l 257
 2594.43 1548 l 257
 2210.43 1548 l 257
580.426 1548 m 257
 508.359 1350 l 257
 1465.36 1350 l 257
 1537.43 1548 l 257
 580.426 1548 l 257
1287.29 1413 m 257
 1110.4 927 l 257
 1310.4 927 l 257
 1487.29 1413 l 257
 1287.29 1413 l 257
1344.52 1018 m 257
 391.521 1018 l 257
 315.815 810 l 257
 1268.82 810 l 257
 1344.52 1018 l 257
365.315 946 m 257
 69.0439 132 l 257
 268.044 132 l 257
 564.315 946 l 257
 365.315 946 l 257
141.475 331 m 257
 69.0439 132 l 257
 2100.04 132 l 257
 2172.47 331 l 257
 141.475 331 l 257
EndSplineSet
Ligature2: "halfHalfFormsinDevanagari2lookup0 subtable" uni0925 uni094D
EndChar

StartChar: uni0925_uni094D.haln
Encoding: 65590 -1 452
GlifName: uni0925_uni094D_.haln
Width: 2048
VWidth: 0
GlyphClass: 2
Flags: W
LayerCount: 2
Fore
SplineSet
2773.85 1548 m 257
 2629.72 1350 l 257
 3013.72 1350 l 257
 3157.85 1548 l 257
 2773.85 1548 l 257
2901.84 1537 m 257
 1769.9 -18 l 257
 1968.9 -18 l 257
 3100.84 1537 l 257
 2901.84 1537 l 257
1143.85 1548 m 257
 999.719 1350 l 257
 1956.72 1350 l 257
 2100.85 1548 l 257
 1143.85 1548 l 257
1801.58 1413 m 257
 1447.8 927 l 257
 1647.8 927 l 257
 2001.58 1413 l 257
 1801.58 1413 l 257
1715.04 1018 m 257
 762.043 1018 l 257
 610.631 810 l 257
 1563.63 810 l 257
 1715.04 1018 l 257
709.631 946 m 257
 117.088 132 l 257
 316.088 132 l 257
 908.631 946 l 257
 709.631 946 l 257
261.948 331 m 257
 117.088 132 l 257
 2078.09 132 l 257
 2222.95 331 l 257
 261.948 331 l 257
1478.98 -22 m 257
 1336.31 -218 l 257
 1693.31 -218 l 257
 1835.98 -22 l 257
 1478.98 -22 l 257
1577.79 -183 m 257
 1752.97 -588 l 257
 2015.62 -425 l 257
 1838.71 -21 l 257
 1577.79 -183 l 257
EndSplineSet
Ligature2: "halnHalantFormsinDevanagari2lookup0 subtable" uni0925 uni094D
EndChar

StartChar: uni0926
Encoding: 2342 2342 453
GlifName: uni0926
Width: 2048
VWidth: 0
GlyphClass: 2
Flags: W
LayerCount: 2
Fore
SplineSet
563.426 1548 m 257
 491.359 1350 l 257
 2535.36 1350 l 257
 2607.43 1548 l 257
 563.426 1548 l 257
1541.23 1509 m 257
 1327.94 923 l 257
 1527.94 923 l 257
 1741.23 1509 l 257
 1541.23 1509 l 257
1564.34 1023 m 257
 430.342 1023 l 257
 356.819 821 l 257
 1490.82 821 l 257
 1564.34 1023 l 257
416.515 996 m 257
 133.71 219 l 257
 333.71 219 l 257
 616.515 996 l 257
 416.515 996 l 257
179.934 346 m 257
 107.14 146 l 257
 1371.14 146 l 257
 1443.93 346 l 257
 179.934 346 l 257
1269.77 406 m 257
 1119.45 -7 l 257
 1319.45 -7 l 257
 1469.77 406 l 257
 1269.77 406 l 257
EndSplineSet
EndChar

StartChar: uni0926_uni0930_uni094D.vatu
Encoding: 65591 -1 454
GlifName: uni0926_uni0930_uni094D_.vatu
Width: 2048
VWidth: 0
GlyphClass: 2
Flags: W
LayerCount: 2
Fore
SplineSet
52 0 m 257
 476 0 l 257
 1256.25 215 l 257
 1329.41 416 l 257
 52 0 l 257
563.426 1548 m 257
 491.359 1350 l 257
 2535.36 1350 l 257
 2607.43 1548 l 257
 563.426 1548 l 257
1541.23 1509 m 257
 1327.94 923 l 257
 1527.94 923 l 257
 1741.23 1509 l 257
 1541.23 1509 l 257
1564.34 1023 m 257
 430.342 1023 l 257
 356.819 821 l 257
 1490.82 821 l 257
 1564.34 1023 l 257
416.515 996 m 257
 206.504 419 l 257
 406.504 419 l 257
 616.515 996 l 257
 416.515 996 l 257
252.728 546 m 257
 179.934 346 l 257
 1443.93 346 l 257
 1516.73 546 l 257
 252.728 546 l 257
1342.57 606 m 257
 1119.45 -7 l 257
 1319.45 -7 l 257
 1542.57 606 l 257
 1342.57 606 l 257
EndSplineSet
Ligature2: "rkrfRakarVariantsinDevanagari2lookup0 subtable" uni0926 uni0930_uni094D.blwf
EndChar

StartChar: uni0926_uni094D.half
Encoding: 65592 -1 455
GlifName: uni0926_uni094D_.half
Width: 2048
VWidth: 0
GlyphClass: 2
Flags: W
LayerCount: 2
Fore
SplineSet
563.426 1548 m 257
 491.359 1350 l 257
 2535.36 1350 l 257
 2607.43 1548 l 257
 563.426 1548 l 257
1541.23 1509 m 257
 1327.94 923 l 257
 1527.94 923 l 257
 1741.23 1509 l 257
 1541.23 1509 l 257
1564.34 1023 m 257
 430.342 1023 l 257
 356.819 821 l 257
 1490.82 821 l 257
 1564.34 1023 l 257
416.515 996 m 257
 206.504 419 l 257
 406.504 419 l 257
 616.515 996 l 257
 416.515 996 l 257
252.728 546 m 257
 179.934 346 l 257
 1443.93 346 l 257
 1516.73 546 l 257
 252.728 546 l 257
1342.57 606 m 257
 1192.25 193 l 257
 1392.25 193 l 257
 1542.57 606 l 257
 1342.57 606 l 257
1259.79 178 m 257
 1188.45 -18 l 257
 1545.45 -18 l 257
 1616.79 178 l 257
 1259.79 178 l 257
1417.19 17 m 257
 1739.78 -388 l 257
 1943.11 -225 l 257
 1619.15 179 l 257
 1417.19 17 l 257
EndSplineSet
Ligature2: "halfHalfFormsinDevanagari2lookup0 subtable" uni0926 uni094D
EndChar

StartChar: uni0926_uni094D.haln
Encoding: 65593 -1 456
GlifName: uni0926_uni094D_.haln
Width: 2048
VWidth: 0
GlyphClass: 2
Flags: W
LayerCount: 2
Fore
SplineSet
1126.85 1548 m 257
 982.719 1350 l 257
 3026.72 1350 l 257
 3170.85 1548 l 257
 1126.85 1548 l 257
2090.46 1509 m 257
 1663.89 923 l 257
 1863.89 923 l 257
 2290.46 1509 l 257
 2090.46 1509 l 257
1936.68 1023 m 257
 802.684 1023 l 257
 655.639 821 l 257
 1789.64 821 l 257
 1936.68 1023 l 257
779.028 996 m 257
 213.419 219 l 257
 413.419 219 l 257
 979.028 996 l 257
 779.028 996 l 257
305.867 346 m 257
 160.279 146 l 257
 1424.28 146 l 257
 1569.87 346 l 257
 305.867 346 l 257
1417.54 406 m 257
 1116.9 -7 l 257
 1316.9 -7 l 257
 1617.54 406 l 257
 1417.54 406 l 257
1478.98 -22 m 257
 1336.31 -218 l 257
 1693.31 -218 l 257
 1835.98 -22 l 257
 1478.98 -22 l 257
1577.79 -183 m 257
 1752.97 -588 l 257
 2015.62 -425 l 257
 1838.71 -21 l 257
 1577.79 -183 l 257
EndSplineSet
Ligature2: "halnHalantFormsinDevanagari2lookup0 subtable" uni0926 uni094D
EndChar

StartChar: uni0926_uni094D_uni0926.pres
Encoding: 65594 -1 457
GlifName: uni0926_uni094D__uni0926.pres
Width: 2048
VWidth: 0
GlyphClass: 2
Flags: W
LayerCount: 2
Fore
SplineSet
570.426 1548 m 257
 498.359 1350 l 257
 2542.36 1350 l 257
 2614.43 1548 l 257
 570.426 1548 l 257
1545.23 1509 m 257
 1396.37 1100 l 257
 1596.37 1100 l 257
 1745.23 1509 l 257
 1545.23 1509 l 257
1630.67 1197 m 257
 696.673 1197 l 257
 624.242 998 l 257
 1558.24 998 l 257
 1630.67 1197 l 257
683.938 1173 m 257
 532.89 758 l 257
 732.89 758 l 257
 883.938 1173 l 257
 683.938 1173 l 257
382.934 346 m 257
 310.14 146 l 257
 1374.14 146 l 257
 1446.93 346 l 257
 382.934 346 l 257
1272.77 406 m 257
 1122.45 -7 l 257
 1322.45 -7 l 257
 1472.77 406 l 257
 1272.77 406 l 257
1485.45 798 m 257
 692.448 798 l 257
 620.019 599 l 257
 1413.02 599 l 257
 1485.45 798 l 257
493.944 651 m 257
 358.548 279 l 257
 558.548 279 l 257
 693.944 651 l 257
 493.944 651 l 257
EndSplineSet
Ligature2: "presPreBaseSubstitutionsinDevanagari2lookup0 subtable" uni0926_uni094D.half uni0926
EndChar

StartChar: uni0926_uni094D_uni0927.pres
Encoding: 65595 -1 458
GlifName: uni0926_uni094D__uni0927.pres
Width: 2048
VWidth: 0
GlyphClass: 2
Flags: W
LayerCount: 2
Fore
SplineSet
570.426 1548 m 257
 498.359 1350 l 257
 2541.36 1350 l 257
 2613.43 1548 l 257
 570.426 1548 l 257
1936.23 1509 m 257
 1722.94 923 l 257
 1922.94 923 l 257
 2136.23 1509 l 257
 1936.23 1509 l 257
1958.34 1023 m 257
 1217.34 1023 l 257
 1143.82 821 l 257
 1884.82 821 l 257
 1958.34 1023 l 257
1207.51 996 m 257
 924.71 219 l 257
 1124.71 219 l 257
 1407.51 996 l 257
 1207.51 996 l 257
1663.77 406 m 257
 1513.45 -7 l 257
 1713.45 -7 l 257
 1863.77 406 l 257
 1663.77 406 l 257
406.555 1117 m 257
 334.125 918 l 257
 636.125 918 l 257
 708.555 1117 l 257
 406.555 1117 l 257
345.771 950 m 257
 261.331 718 l 257
 456.331 718 l 257
 540.771 950 l 257
 345.771 950 l 257
256.694 719 m 257
 183.536 518 l 257
 1046.54 518 l 257
 1119.69 719 l 257
 256.694 719 l 257
274.316 674 m 257
 108.346 218 l 257
 308.346 218 l 257
 474.316 674 l 257
 274.316 674 l 257
152.386 339 m 257
 79.5918 139 l 257
 1653.59 139 l 257
 1726.39 339 l 257
 152.386 339 l 257
EndSplineSet
Ligature2: "presPreBaseSubstitutionsinDevanagari2lookup0 subtable" uni0926_uni094D.half uni0927
EndChar

StartChar: uni0926_uni094D_uni092F.pres
Encoding: 65596 -1 459
GlifName: uni0926_uni094D__uni092F_.pres
Width: 2048
VWidth: 0
GlyphClass: 2
Flags: W
LayerCount: 2
Fore
SplineSet
2386.24 1531 m 257
 1829 0 l 257
 2030 0 l 257
 2587.24 1531 l 257
 2386.24 1531 l 257
1341.78 428 m 257
 1269.35 229 l 257
 1829 0 l 257
 1953.42 166 l 257
 1341.78 428 l 257
558.426 1548 m 257
 486.359 1350 l 257
 2541.36 1350 l 257
 2613.43 1548 l 257
 558.426 1548 l 257
1545.23 1509 m 257
 1331.94 923 l 257
 1531.94 923 l 257
 1745.23 1509 l 257
 1545.23 1509 l 257
1341.78 428 m 257
 212.779 428 l 257
 140.35 229 l 257
 1269.35 229 l 257
 1341.78 428 l 257
419.515 996 m 257
 162.552 290 l 257
 362.552 290 l 257
 619.515 996 l 257
 419.515 996 l 257
1568.34 1023 m 257
 428.342 1023 l 257
 354.819 821 l 257
 1494.82 821 l 257
 1568.34 1023 l 257
EndSplineSet
Ligature2: "presPreBaseSubstitutionsinDevanagari2lookup0 subtable" uni0926_uni094D.half uni092F
EndChar

StartChar: uni0926_uni094D_uni0935.pres
Encoding: 65597 -1 460
GlifName: uni0926_uni094D__uni0935.pres
Width: 2048
VWidth: 0
GlyphClass: 2
Flags: W
LayerCount: 2
Fore
SplineSet
570.426 1548 m 257
 498.359 1350 l 257
 2541.36 1350 l 257
 2613.43 1548 l 257
 570.426 1548 l 257
1545.23 1509 m 257
 1413.11 1146 l 257
 1613.11 1146 l 257
 1745.23 1509 l 257
 1545.23 1509 l 257
1647.42 1243 m 257
 513.415 1243 l 257
 440.985 1044 l 257
 1574.99 1044 l 257
 1647.42 1243 l 257
509.415 1243 m 257
 296.856 659 l 257
 496.856 659 l 257
 709.415 1243 l 257
 509.415 1243 l 257
357.275 825 m 257
 284.481 625 l 257
 2064.48 625 l 257
 2137.28 825 l 257
 357.275 825 l 257
1948.92 846 m 257
 1638.45 -7 l 257
 1838.45 -7 l 257
 2148.92 846 l 257
 1948.92 846 l 257
253.617 488 m 257
 113.125 102 l 257
 313.125 102 l 257
 453.617 488 l 257
 253.617 488 l 257
176.728 274 m 257
 103.934 74 l 257
 1866.93 74 l 257
 1939.73 274 l 257
 176.728 274 l 257
276.275 553 m 257
 203.117 352 l 257
 1151.12 352 l 257
 1224.28 553 l 257
 276.275 553 l 257
EndSplineSet
Ligature2: "presPreBaseSubstitutionsinDevanagari2lookup0 subtable" uni0926_uni094D.half uni0935
EndChar

StartChar: uni0927
Encoding: 2343 2343 461
GlifName: uni0927
Width: 2048
VWidth: 0
GlyphClass: 2
Flags: W
LayerCount: 2
Fore
SplineSet
2254.43 1548 m 257
 2181.63 1348 l 257
 2482.63 1348 l 257
 2555.43 1548 l 257
 2254.43 1548 l 257
2264.12 1440 m 257
 1737.82 -6 l 257
 1936.82 -6 l 257
 2463.12 1440 l 257
 2264.12 1440 l 257
626.426 1548 m 257
 552.904 1346 l 257
 1450.9 1346 l 257
 1524.43 1548 l 257
 626.426 1548 l 257
603.319 1501 m 257
 351.088 808 l 257
 550.088 808 l 257
 802.319 1501 l 257
 603.319 1501 l 257
377.021 882 m 257
 303.863 681 l 257
 1214.86 681 l 257
 1288.02 882 l 257
 377.021 882 l 257
348.783 711 m 257
 164.614 205 l 257
 364.614 205 l 257
 548.783 711 l 257
 348.783 711 l 257
208.654 326 m 257
 135.86 126 l 257
 1851.86 126 l 257
 1924.65 326 l 257
 208.654 326 l 257
EndSplineSet
EndChar

StartChar: uni0927_uni0930_uni094D.vatu
Encoding: 65598 -1 462
GlifName: uni0927_uni0930_uni094D_.vatu
Width: 2048
VWidth: 0
GlyphClass: 2
Flags: W
LayerCount: 2
Fore
SplineSet
52 0 m 257
 476 0 l 257
 1856.25 215 l 257
 1929.41 416 l 257
 52 0 l 257
2254.43 1548 m 257
 2181.63 1348 l 257
 2482.63 1348 l 257
 2555.43 1548 l 257
 2254.43 1548 l 257
2264.12 1440 m 257
 1737.82 -6 l 257
 1936.82 -6 l 257
 2463.12 1440 l 257
 2264.12 1440 l 257
626.426 1548 m 257
 552.904 1346 l 257
 1450.9 1346 l 257
 1524.43 1548 l 257
 626.426 1548 l 257
603.319 1501 m 257
 423.882 1008 l 257
 622.882 1008 l 257
 802.319 1501 l 257
 603.319 1501 l 257
449.815 1082 m 257
 376.658 881 l 257
 1287.66 881 l 257
 1360.82 1082 l 257
 449.815 1082 l 257
421.577 911 m 257
 237.408 405 l 257
 437.408 405 l 257
 621.577 911 l 257
 421.577 911 l 257
281.448 526 m 257
 208.654 326 l 257
 1924.65 326 l 257
 1997.45 526 l 257
 281.448 526 l 257
EndSplineSet
Ligature2: "rkrfRakarVariantsinDevanagari2lookup0 subtable" uni0927 uni0930_uni094D.blwf
EndChar

StartChar: uni0927_uni094D.half
Encoding: 65599 -1 463
GlifName: uni0927_uni094D_.half
Width: 2048
VWidth: 0
GlyphClass: 2
Flags: W
LayerCount: 2
Fore
SplineSet
876.426 1548 m 257
 802.904 1346 l 257
 1700.9 1346 l 257
 1774.43 1548 l 257
 876.426 1548 l 257
853.319 1501 m 257
 601.088 808 l 257
 800.088 808 l 257
 1052.32 1501 l 257
 853.319 1501 l 257
627.021 882 m 257
 553.863 681 l 257
 1464.86 681 l 257
 1538.02 882 l 257
 627.021 882 l 257
598.783 711 m 257
 414.614 205 l 257
 614.614 205 l 257
 798.783 711 l 257
 598.783 711 l 257
458.654 326 m 257
 385.86 126 l 257
 2101.86 126 l 257
 2174.65 326 l 257
 458.654 326 l 257
EndSplineSet
Ligature2: "halfHalfFormsinDevanagari2lookup0 subtable" uni0927 uni094D
EndChar

StartChar: uni0927_uni094D.haln
Encoding: 65600 -1 464
GlifName: uni0927_uni094D_.haln
Width: 2048
VWidth: 0
GlyphClass: 2
Flags: W
LayerCount: 2
Fore
SplineSet
2817.85 1548 m 257
 2672.26 1348 l 257
 2973.26 1348 l 257
 3118.85 1548 l 257
 2817.85 1548 l 257
2788.23 1440 m 257
 1735.63 -6 l 257
 1934.63 -6 l 257
 2987.23 1440 l 257
 2788.23 1440 l 257
1189.85 1548 m 257
 1042.81 1346 l 257
 1940.81 1346 l 257
 2087.85 1548 l 257
 1189.85 1548 l 257
1149.64 1501 m 257
 645.176 808 l 257
 844.176 808 l 257
 1348.64 1501 l 257
 1149.64 1501 l 257
698.043 882 m 257
 551.727 681 l 257
 1462.73 681 l 257
 1609.04 882 l 257
 698.043 882 l 257
607.565 711 m 257
 239.229 205 l 257
 439.229 205 l 257
 807.565 711 l 257
 607.565 711 l 257
327.309 326 m 257
 181.721 126 l 257
 1897.72 126 l 257
 2043.31 326 l 257
 327.309 326 l 257
1478.98 -22 m 257
 1336.31 -218 l 257
 1693.31 -218 l 257
 1835.98 -22 l 257
 1478.98 -22 l 257
1577.79 -183 m 257
 1752.97 -588 l 257
 2015.62 -425 l 257
 1838.71 -21 l 257
 1577.79 -183 l 257
EndSplineSet
Ligature2: "halnHalantFormsinDevanagari2lookup0 subtable" uni0927 uni094D
EndChar

StartChar: uni0928
Encoding: 2344 2344 465
GlifName: uni0928
Width: 2048
VWidth: 0
GlyphClass: 2
Flags: W
LayerCount: 2
Fore
SplineSet
563.426 1548 m 257
 490.268 1347 l 257
 2535.27 1347 l 257
 2608.43 1548 l 257
 563.426 1548 l 257
2293.43 1548 m 257
 1730 0 l 257
 1929 0 l 257
 2492.43 1548 l 257
 2293.43 1548 l 257
368.794 744 m 257
 296 544 l 257
 2097 544 l 257
 2169.79 744 l 257
 368.794 744 l 257
368.702 741 m 257
 264.971 456 l 257
 465.971 456 l 257
 569.702 741 l 257
 368.702 741 l 257
EndSplineSet
EndChar

StartChar: uni0928_uni0930_uni094D.vatu
Encoding: 65601 -1 466
GlifName: uni0928_uni0930_uni094D_.vatu
Width: 2048
VWidth: 0
GlyphClass: 2
Flags: W
LayerCount: 2
Fore
SplineSet
52 0 m 257
 476 0 l 257
 1856.25 215 l 257
 1929.41 416 l 257
 52 0 l 257
563.426 1548 m 257
 490.268 1347 l 257
 2535.27 1347 l 257
 2608.43 1548 l 257
 563.426 1548 l 257
2293.43 1548 m 257
 1730 0 l 257
 1929 0 l 257
 2492.43 1548 l 257
 2293.43 1548 l 257
368.794 744 m 257
 296 544 l 257
 2097 544 l 257
 2169.79 744 l 257
 368.794 744 l 257
368.702 741 m 257
 264.971 456 l 257
 465.971 456 l 257
 569.702 741 l 257
 368.702 741 l 257
EndSplineSet
Ligature2: "rkrfRakarVariantsinDevanagari2lookup0 subtable" uni0928 uni0930_uni094D.blwf
EndChar

StartChar: uni0928_uni094D.half
Encoding: 65602 -1 467
GlifName: uni0928_uni094D_.half
Width: 2048
VWidth: 0
GlyphClass: 2
Flags: W
LayerCount: 2
Fore
SplineSet
563.426 1548 m 257
 490.268 1347 l 257
 2535.27 1347 l 257
 2608.43 1548 l 257
 563.426 1548 l 257
568.794 744 m 257
 496 544 l 257
 2297 544 l 257
 2369.79 744 l 257
 568.794 744 l 257
568.702 741 m 257
 464.971 456 l 257
 665.971 456 l 257
 769.702 741 l 257
 568.702 741 l 257
EndSplineSet
Ligature2: "halfHalfFormsinDevanagari2lookup0 subtable" uni0928 uni094D
EndChar

StartChar: uni0928_uni094D.haln
Encoding: 65603 -1 468
GlifName: uni0928_uni094D_.haln
Width: 2048
VWidth: 0
GlyphClass: 2
Flags: W
LayerCount: 2
Fore
SplineSet
1126.85 1548 m 257
 980.535 1347 l 257
 3025.54 1347 l 257
 3171.85 1548 l 257
 1126.85 1548 l 257
2856.85 1548 m 257
 1730 0 l 257
 1929 0 l 257
 3055.85 1548 l 257
 2856.85 1548 l 257
639.588 744 m 257
 494 544 l 257
 2295 544 l 257
 2440.59 744 l 257
 639.588 744 l 257
638.404 741 m 257
 430.941 456 l 257
 631.941 456 l 257
 839.404 741 l 257
 638.404 741 l 257
1478.98 -22 m 257
 1336.31 -218 l 257
 1693.31 -218 l 257
 1835.98 -22 l 257
 1478.98 -22 l 257
1577.79 -183 m 257
 1752.97 -588 l 257
 2015.62 -425 l 257
 1838.71 -21 l 257
 1577.79 -183 l 257
EndSplineSet
Ligature2: "halnHalantFormsinDevanagari2lookup0 subtable" uni0928 uni094D
EndChar

StartChar: uni0929
Encoding: 2345 2345 469
GlifName: uni0929
Width: 2048
VWidth: 0
GlyphClass: 2
Flags: W
LayerCount: 2
Fore
SplineSet
563.426 1548 m 257
 490.268 1347 l 257
 2532.27 1347 l 257
 2605.43 1548 l 257
 563.426 1548 l 257
2290.43 1548 m 257
 1727 0 l 257
 1926 0 l 257
 2489.43 1548 l 257
 2290.43 1548 l 257
365.794 744 m 257
 293 544 l 257
 2094 544 l 257
 2166.79 744 l 257
 365.794 744 l 257
365.702 741 m 257
 261.971 456 l 257
 462.971 456 l 257
 566.702 741 l 257
 365.702 741 l 257
1062.89 -58 m 257
 972.989 -305 l 257
 1236.99 -305 l 257
 1326.89 -58 l 257
 1062.89 -58 l 257
EndSplineSet
Ligature2: "nuktNuktaFormsinDevanagari2lookup0 subtable" uni0928 uni093C
EndChar

StartChar: uni0929_uni0930_uni094D.vatu
Encoding: 65604 -1 470
GlifName: uni0929_uni0930_uni094D_.vatu
Width: 2048
VWidth: 0
GlyphClass: 2
Flags: W
LayerCount: 2
Fore
SplineSet
52 0 m 257
 476 0 l 257
 1856.25 215 l 257
 1929.41 416 l 257
 52 0 l 257
563.426 1548 m 257
 490.268 1347 l 257
 2532.27 1347 l 257
 2605.43 1548 l 257
 563.426 1548 l 257
2290.43 1548 m 257
 1727 0 l 257
 1926 0 l 257
 2489.43 1548 l 257
 2290.43 1548 l 257
365.794 744 m 257
 293 544 l 257
 2094 544 l 257
 2166.79 744 l 257
 365.794 744 l 257
365.702 741 m 257
 261.971 456 l 257
 462.971 456 l 257
 566.702 741 l 257
 365.702 741 l 257
1062.89 -58 m 257
 972.989 -305 l 257
 1236.99 -305 l 257
 1326.89 -58 l 257
 1062.89 -58 l 257
EndSplineSet
Ligature2: "rkrfRakarVariantsinDevanagari2lookup0 subtable" uni0929 uni0930_uni094D.blwf
EndChar

StartChar: uni0929_uni094D.half
Encoding: 65605 -1 471
GlifName: uni0929_uni094D_.half
Width: 2048
VWidth: 0
GlyphClass: 2
Flags: W
LayerCount: 2
Fore
SplineSet
563.426 1548 m 257
 490.268 1347 l 257
 2532.27 1347 l 257
 2605.43 1548 l 257
 563.426 1548 l 257
515.794 744 m 257
 443 544 l 257
 2244 544 l 257
 2316.79 744 l 257
 515.794 744 l 257
515.702 741 m 257
 411.971 456 l 257
 612.971 456 l 257
 716.702 741 l 257
 515.702 741 l 257
1212.89 -58 m 257
 1122.99 -305 l 257
 1386.99 -305 l 257
 1476.89 -58 l 257
 1212.89 -58 l 257
EndSplineSet
Ligature2: "halfHalfFormsinDevanagari2lookup0 subtable" uni0929 uni094D
EndChar

StartChar: uni0929_uni094D.haln
Encoding: 65606 -1 472
GlifName: uni0929_uni094D_.haln
Width: 2048
VWidth: 0
GlyphClass: 2
Flags: W
LayerCount: 2
Fore
SplineSet
1126.85 1548 m 257
 980.535 1347 l 257
 3022.54 1347 l 257
 3168.85 1548 l 257
 1126.85 1548 l 257
2853.85 1548 m 257
 1727 0 l 257
 1926 0 l 257
 3052.85 1548 l 257
 2853.85 1548 l 257
636.588 744 m 257
 491 544 l 257
 2292 544 l 257
 2437.59 744 l 257
 636.588 744 l 257
635.404 741 m 257
 427.941 456 l 257
 628.941 456 l 257
 836.404 741 l 257
 635.404 741 l 257
1041.78 -58 m 257
 861.979 -305 l 257
 1125.98 -305 l 257
 1305.78 -58 l 257
 1041.78 -58 l 257
1478.98 -22 m 257
 1336.31 -218 l 257
 1693.31 -218 l 257
 1835.98 -22 l 257
 1478.98 -22 l 257
1577.79 -183 m 257
 1752.97 -588 l 257
 2015.62 -425 l 257
 1838.71 -21 l 257
 1577.79 -183 l 257
EndSplineSet
Ligature2: "halnHalantFormsinDevanagari2lookup0 subtable" uni0929 uni094D
EndChar

StartChar: uni092A
Encoding: 2346 2346 473
GlifName: uni092A_
Width: 2048
VWidth: 0
GlyphClass: 2
Flags: W
LayerCount: 2
Fore
SplineSet
548.426 1548 m 257
 475.996 1349 l 257
 2554 1349 l 257
 2626.43 1548 l 257
 548.426 1548 l 257
2282.42 1537 m 257
 1723 0 l 257
 1923 0 l 257
 2482.42 1537 l 257
 2282.42 1537 l 257
672.426 1548 m 257
 413.644 837 l 257
 614.644 837 l 257
 873.426 1548 l 257
 672.426 1548 l 257
481.342 1023 m 257
 409.275 825 l 257
 2189.28 825 l 257
 2261.34 1023 l 257
 481.342 1023 l 257
EndSplineSet
EndChar

StartChar: uni092A_uni0930_uni094D.vatu
Encoding: 65607 -1 474
GlifName: uni092A__uni0930_uni094D_.vatu
Width: 2048
VWidth: 0
GlyphClass: 2
Flags: W
LayerCount: 2
Fore
SplineSet
52 0 m 257
 476 0 l 257
 1856.25 215 l 257
 1929.41 416 l 257
 52 0 l 257
548.426 1548 m 257
 475.996 1349 l 257
 2554 1349 l 257
 2626.43 1548 l 257
 548.426 1548 l 257
2282.42 1537 m 257
 1723 0 l 257
 1923 0 l 257
 2482.42 1537 l 257
 2282.42 1537 l 257
672.426 1548 m 257
 413.644 837 l 257
 614.644 837 l 257
 873.426 1548 l 257
 672.426 1548 l 257
481.342 1023 m 257
 409.275 825 l 257
 2189.28 825 l 257
 2261.34 1023 l 257
 481.342 1023 l 257
EndSplineSet
Ligature2: "rkrfRakarVariantsinDevanagari2lookup0 subtable" uni092A uni0930_uni094D.blwf
EndChar

StartChar: uni092A_uni094D.half
Encoding: 65608 -1 475
GlifName: uni092A__uni094D_.half
Width: 2048
VWidth: 0
GlyphClass: 2
Flags: W
LayerCount: 2
Fore
SplineSet
548.426 1548 m 257
 475.996 1349 l 257
 2554 1349 l 257
 2626.43 1548 l 257
 548.426 1548 l 257
672.426 1548 m 257
 413.644 837 l 257
 614.644 837 l 257
 873.426 1548 l 257
 672.426 1548 l 257
481.342 1023 m 257
 409.275 825 l 257
 2389.28 825 l 257
 2461.34 1023 l 257
 481.342 1023 l 257
EndSplineSet
Ligature2: "halfHalfFormsinDevanagari2lookup0 subtable" uni092A uni094D
EndChar

StartChar: uni092A_uni094D.haln
Encoding: 65609 -1 476
GlifName: uni092A__uni094D_.haln
Width: 2048
VWidth: 0
GlyphClass: 2
Flags: W
LayerCount: 2
Fore
SplineSet
1111.85 1548 m 257
 966.991 1349 l 257
 3044.99 1349 l 257
 3189.85 1548 l 257
 1111.85 1548 l 257
2841.84 1537 m 257
 1723 0 l 257
 1923 0 l 257
 3041.84 1537 l 257
 2841.84 1537 l 257
1235.85 1548 m 257
 718.286 837 l 257
 919.286 837 l 257
 1436.85 1548 l 257
 1235.85 1548 l 257
853.684 1023 m 257
 709.551 825 l 257
 2489.55 825 l 257
 2633.68 1023 l 257
 853.684 1023 l 257
1478.98 -22 m 257
 1336.31 -218 l 257
 1693.31 -218 l 257
 1835.98 -22 l 257
 1478.98 -22 l 257
1577.79 -183 m 257
 1752.97 -588 l 257
 2015.62 -425 l 257
 1838.71 -21 l 257
 1577.79 -183 l 257
EndSplineSet
Ligature2: "halnHalantFormsinDevanagari2lookup0 subtable" uni092A uni094D
EndChar

StartChar: uni092B
Encoding: 2347 2347 477
GlifName: uni092B_
Width: 2048
VWidth: 0
GlyphClass: 2
Flags: W
LayerCount: 2
Fore
SplineSet
548.426 1548 m 257
 475.996 1349 l 257
 2554 1349 l 257
 2626.43 1548 l 257
 548.426 1548 l 257
1937.42 1537 m 257
 1378 0 l 257
 1578 0 l 257
 2137.42 1537 l 257
 1937.42 1537 l 257
672.426 1548 m 257
 413.644 837 l 257
 614.644 837 l 257
 873.426 1548 l 257
 672.426 1548 l 257
481.342 1023 m 257
 408.911 824 l 257
 2302.91 824 l 257
 2375.34 1023 l 257
 481.342 1023 l 257
2185.34 1023 m 257
 2062.68 686 l 257
 2261.68 686 l 257
 2384.34 1023 l 257
 2185.34 1023 l 257
EndSplineSet
EndChar

StartChar: uni092B_uni0930_uni094D.vatu
Encoding: 65610 -1 478
GlifName: uni092B__uni0930_uni094D_.vatu
Width: 2048
VWidth: 0
GlyphClass: 2
Flags: W
LayerCount: 2
Fore
SplineSet
52 0 m 257
 476 0 l 257
 1729.05 415 l 257
 1802.21 616 l 257
 52 0 l 257
548.426 1548 m 257
 475.996 1349 l 257
 2554 1349 l 257
 2626.43 1548 l 257
 548.426 1548 l 257
1937.42 1537 m 257
 1378 0 l 257
 1578 0 l 257
 2137.42 1537 l 257
 1937.42 1537 l 257
672.426 1548 m 257
 413.644 837 l 257
 614.644 837 l 257
 873.426 1548 l 257
 672.426 1548 l 257
481.342 1023 m 257
 408.911 824 l 257
 2302.91 824 l 257
 2375.34 1023 l 257
 481.342 1023 l 257
2185.34 1023 m 257
 2062.68 686 l 257
 2261.68 686 l 257
 2384.34 1023 l 257
 2185.34 1023 l 257
EndSplineSet
Ligature2: "rkrfRakarVariantsinDevanagari2lookup0 subtable" uni092B uni0930_uni094D.blwf
EndChar

